<ttFont>
<head>
    <!-- Most of this table will be recalculated by the compiler -->
    <tableVersion value="1.0"/>
    <fontRevision value="3.002"/>
    <checkSumAdjustment value="0xc2258d29"/>
    <magicNumber value="0x5f0f3cf5"/>
    <flags value="00000000 00000110"/>
    <unitsPerEm value="2048"/>
    <created value="Mon Oct 23 16:00:00 2017"/>
    <modified value="Tue Jan 23 13:52:43 2018"/>
    <xMin value="-1502"/>
    <yMin value="-807"/>
    <xMax value="1698"/>
    <yMax value="2001"/>
    <macStyle value="00000000 00000011"/>
    <lowestRecPPEM value="6"/>
    <fontDirectionHint value="2"/>
    <indexToLocFormat value="1"/>
    <glyphDataFormat value="0"/>
  </head>
    <TTGlyph name=".notdef" xMin="104" yMin="-362" xMax="1128" yMax="1444">
      <contour>
        <pt x="104" y="1444" on="1"/>
        <pt x="1128" y="1444" on="1"/>
        <pt x="1128" y="-362" on="1"/>
        <pt x="104" y="-362" on="1"/>
      </contour>
      <contour>
        <pt x="1014" y="-248" on="1"/>
        <pt x="1014" y="1329" on="1"/>
        <pt x="219" y="1329" on="1"/>
        <pt x="219" y="-248" on="1"/>
      </contour>
    </TTGlyph>
    <TTGlyph name="c6459" xMin="409" yMin="1280" xMax="1084" yMax="1526">
      <contour>
        <pt x="436" y="1280" on="1"/>
        <pt x="409" y="1280" on="0"/>
        <pt x="409" y="1304" on="1"/>
        <pt x="409" y="1311" on="0"/>
        <pt x="410" y="1313" on="1"/>
        <pt x="448" y="1499" on="1"/>
        <pt x="454" y="1526" on="0"/>
        <pt x="480" y="1526" on="1"/>
        <pt x="655" y="1526" on="1"/>
        <pt x="682" y="1526" on="0"/>
        <pt x="682" y="1502" on="1"/>
        <pt x="682" y="1495" on="0"/>
        <pt x="681" y="1493" on="1"/>
        <pt x="644" y="1307" on="1"/>
        <pt x="640" y="1280" on="0"/>
        <pt x="612" y="1280" on="1"/>
      </contour>
      <contour>
        <pt x="832" y="1280" on="1"/>
        <pt x="805" y="1280" on="0"/>
        <pt x="805" y="1304" on="1"/>
        <pt x="805" y="1311" on="0"/>
        <pt x="806" y="1313" on="1"/>
        <pt x="843" y="1499" on="1"/>
        <pt x="848" y="1526" on="0"/>
        <pt x="875" y="1526" on="1"/>
        <pt x="1050" y="1526" on="1"/>
        <pt x="1084" y="1526" on="0"/>
        <pt x="1077" y="1493" on="1"/>
        <pt x="1041" y="1307" on="1"/>
        <pt x="1036" y="1280" on="0"/>
        <pt x="1009" y="1280" on="1"/>
      </contour>
    </TTGlyph>
    <TTGlyph name="c6460" xMin="565" yMin="1262" xMax="1092" yMax="1526">
      <contour>
        <pt x="811" y="1526" on="1"/>
        <pt x="1092" y="1526" on="1"/>
        <pt x="772" y="1262" on="1"/>
        <pt x="565" y="1262" on="1"/>
      </contour>
    </TTGlyph>
    <TTGlyph name="c6461" xMin="371" yMin="1262" xMax="1120" yMax="1528">
      <contour>
        <pt x="371" y="1262" on="1"/>
        <pt x="396" y="1390" on="0"/>
        <pt x="462" y="1459" on="1"/>
        <pt x="528" y="1528" on="0"/>
        <pt x="622" y="1528" on="1"/>
        <pt x="660" y="1528" on="0"/>
        <pt x="693" y="1516" on="1"/>
        <pt x="722" y="1505" on="0"/>
        <pt x="760" y="1477" on="1"/>
        <pt x="813" y="1436" on="1"/>
        <pt x="828" y="1423" on="0"/>
        <pt x="847" y="1416" on="1"/>
        <pt x="862" y="1409" on="0"/>
        <pt x="881" y="1409" on="1"/>
        <pt x="921" y="1409" on="0"/>
        <pt x="946" y="1440" on="1"/>
        <pt x="972" y="1470" on="0"/>
        <pt x="983" y="1528" on="1"/>
        <pt x="1120" y="1528" on="1"/>
        <pt x="1095" y="1401" on="0"/>
        <pt x="1029" y="1331" on="1"/>
        <pt x="964" y="1262" on="0"/>
        <pt x="870" y="1262" on="1"/>
        <pt x="834" y="1262" on="0"/>
        <pt x="801" y="1273" on="1"/>
        <pt x="770" y="1283" on="0"/>
        <pt x="731" y="1313" on="1"/>
        <pt x="682" y="1350" on="1"/>
        <pt x="654" y="1372" on="0"/>
        <pt x="641" y="1376" on="1"/>
        <pt x="624" y="1382" on="0"/>
        <pt x="607" y="1382" on="1"/>
        <pt x="586" y="1382" on="0"/>
        <pt x="556" y="1364" on="0"/>
        <pt x="545" y="1350" on="1"/>
        <pt x="530" y="1332" on="0"/>
        <pt x="513" y="1289" on="0"/>
        <pt x="508" y="1262" on="1"/>
      </contour>
    </TTGlyph>
    <TTGlyph name="c6462" xMin="88" yMin="-29" xMax="1145" yMax="1149">
      <contour>
        <pt x="543" y="-29" on="1"/>
        <pt x="429" y="-29" on="0"/>
        <pt x="262" y="38" on="0"/>
        <pt x="208" y="91" on="1"/>
        <pt x="144" y="154" on="0"/>
        <pt x="88" y="330" on="0"/>
        <pt x="88" y="442" on="1"/>
        <pt x="88" y="584" on="0"/>
        <pt x="171" y="848" on="0"/>
        <pt x="254" y="949" on="1"/>
        <pt x="334" y="1046" on="0"/>
        <pt x="554" y="1149" on="0"/>
        <pt x="689" y="1149" on="1"/>
        <pt x="789" y="1149" on="0"/>
        <pt x="963" y="1090" on="0"/>
        <pt x="1025" y="1030" on="1"/>
        <pt x="1088" y="968" on="0"/>
        <pt x="1145" y="790" on="0"/>
        <pt x="1145" y="676" on="1"/>
        <pt x="1145" y="532" on="0"/>
        <pt x="1061" y="271" on="0"/>
        <pt x="980" y="171" on="1"/>
        <pt x="895" y="68" on="0"/>
        <pt x="672" y="-29" on="0"/>
      </contour>
      <contour>
        <pt x="563" y="207" on="1"/>
        <pt x="684" y="207" on="0"/>
        <pt x="767" y="343" on="1"/>
        <pt x="805" y="406" on="0"/>
        <pt x="850" y="576" on="0"/>
        <pt x="850" y="672" on="1"/>
        <pt x="850" y="741" on="0"/>
        <pt x="826" y="826" on="0"/>
        <pt x="804" y="853" on="1"/>
        <pt x="779" y="883" on="0"/>
        <pt x="711" y="911" on="0"/>
        <pt x="673" y="911" on="1"/>
        <pt x="548" y="911" on="0"/>
        <pt x="466" y="776" on="1"/>
        <pt x="425" y="707" on="0"/>
        <pt x="383" y="533" on="0"/>
        <pt x="383" y="449" on="1"/>
        <pt x="383" y="395" on="0"/>
        <pt x="403" y="301" on="0"/>
        <pt x="431" y="267" on="1"/>
        <pt x="452" y="241" on="0"/>
        <pt x="518" y="207" on="0"/>
      </contour>
    </TTGlyph>
    <TTGlyph name="c6469" xMin="449" yMin="1262" xMax="856" yMax="1526">
      <contour>
        <pt x="449" y="1526" on="1"/>
        <pt x="713" y="1526" on="1"/>
        <pt x="856" y="1262" on="1"/>
        <pt x="678" y="1262" on="1"/>
      </contour>
    </TTGlyph>
    <TTGlyph name="c6471" xMin="344" yMin="1262" xMax="1087" yMax="1526">
      <contour>
        <pt x="588" y="1526" on="1"/>
        <pt x="936" y="1526" on="1"/>
        <pt x="1087" y="1262" on="1"/>
        <pt x="918" y="1262" on="1"/>
        <pt x="754" y="1423" on="1"/>
        <pt x="524" y="1262" on="1"/>
        <pt x="344" y="1262" on="1"/>
      </contour>
    </TTGlyph>
    <TTGlyph name="c6473" xMin="410" yMin="1262" xMax="1139" yMax="1526">
      <contour>
        <pt x="410" y="1526" on="1"/>
        <pt x="580" y="1526" on="1"/>
        <pt x="729" y="1364" on="1"/>
        <pt x="958" y="1526" on="1"/>
        <pt x="1139" y="1526" on="1"/>
        <pt x="895" y="1262" on="1"/>
        <pt x="547" y="1262" on="1"/>
      </contour>
    </TTGlyph>
    <TTGlyph name="c6476" xMin="434" yMin="1262" xMax="1102" yMax="1526">
      <contour>
        <pt x="720" y="1262" on="1"/>
        <pt x="582" y="1262" on="0"/>
        <pt x="508" y="1330" on="1"/>
        <pt x="434" y="1398" on="0"/>
        <pt x="434" y="1522" on="1"/>
        <pt x="434" y="1526" on="1"/>
        <pt x="577" y="1526" on="1"/>
        <pt x="588" y="1466" on="0"/>
        <pt x="628" y="1439" on="1"/>
        <pt x="668" y="1411" on="0"/>
        <pt x="745" y="1411" on="1"/>
        <pt x="819" y="1411" on="0"/>
        <pt x="872" y="1442" on="1"/>
        <pt x="925" y="1473" on="0"/>
        <pt x="948" y="1526" on="1"/>
        <pt x="1102" y="1526" on="1"/>
        <pt x="1062" y="1397" on="0"/>
        <pt x="963" y="1330" on="1"/>
        <pt x="862" y="1262" on="0"/>
      </contour>
    </TTGlyph>
    <TTGlyph name="c6477" xMin="583" yMin="1280" xMax="906" yMax="1526">
      <contour>
        <pt x="617" y="1280" on="1"/>
        <pt x="583" y="1280" on="0"/>
        <pt x="590" y="1313" on="1"/>
        <pt x="626" y="1499" on="1"/>
        <pt x="630" y="1526" on="0"/>
        <pt x="658" y="1526" on="1"/>
        <pt x="872" y="1526" on="1"/>
        <pt x="906" y="1526" on="0"/>
        <pt x="899" y="1493" on="1"/>
        <pt x="863" y="1307" on="1"/>
        <pt x="858" y="1280" on="0"/>
        <pt x="831" y="1280" on="1"/>
      </contour>
    </TTGlyph>
    <TTGlyph name="c6478" xMin="47" yMin="500" xMax="1143" yMax="879">
      <contour>
        <pt x="47" y="618" on="1"/>
        <pt x="1106" y="879" on="1"/>
        <pt x="1143" y="762" on="1"/>
        <pt x="84" y="500" on="1"/>
      </contour>
    </TTGlyph>
    <TTGlyph name="c6479" xMin="270" yMin="668" xMax="981" yMax="1503">
      <contour>
        <pt x="659" y="848" on="1"/>
        <pt x="270" y="848" on="1"/>
        <pt x="301" y="1010" on="1"/>
        <pt x="768" y="1503" on="1"/>
        <pt x="973" y="1503" on="1"/>
        <pt x="872" y="991" on="1"/>
        <pt x="981" y="991" on="1"/>
        <pt x="954" y="848" on="1"/>
        <pt x="846" y="848" on="1"/>
        <pt x="811" y="668" on="1"/>
        <pt x="623" y="668" on="1"/>
      </contour>
      <contour>
        <pt x="686" y="991" on="1"/>
        <pt x="750" y="1321" on="1"/>
        <pt x="436" y="991" on="1"/>
      </contour>
    </TTGlyph>
    <TTGlyph name="uni0021" xMin="465" yMin="-65" xMax="994" yMax="1508">
      <contour>
        <pt x="637" y="1054" on="1"/>
        <pt x="708" y="1508" on="1"/>
        <pt x="994" y="1508" on="1"/>
        <pt x="922" y="1051" on="1"/>
        <pt x="763" y="476" on="1"/>
        <pt x="624" y="476" on="1"/>
      </contour>
      <contour>
        <pt x="612" y="-65" on="1"/>
        <pt x="574" y="-65" on="0"/>
        <pt x="520" y="-40" on="0"/>
        <pt x="503" y="-22" on="1"/>
        <pt x="481" y="3" on="0"/>
        <pt x="465" y="64" on="0"/>
        <pt x="465" y="90" on="1"/>
        <pt x="465" y="153" on="0"/>
        <pt x="538" y="258" on="0"/>
        <pt x="597" y="281" on="1"/>
        <pt x="630" y="293" on="0"/>
        <pt x="670" y="293" on="1"/>
        <pt x="713" y="293" on="0"/>
        <pt x="764" y="264" on="0"/>
        <pt x="780" y="247" on="1"/>
        <pt x="800" y="224" on="0"/>
        <pt x="817" y="170" on="0"/>
        <pt x="817" y="140" on="1"/>
        <pt x="817" y="99" on="0"/>
        <pt x="803" y="66" on="1"/>
        <pt x="769" y="-18" on="0"/>
        <pt x="686" y="-52" on="1"/>
        <pt x="654" y="-65" on="0"/>
      </contour>
    </TTGlyph>
    <TTGlyph name="uni0022" xMin="231" yMin="938" xMax="999" yMax="1493">
      <contour>
        <pt x="231" y="1493" on="1"/>
        <pt x="487" y="1493" on="1"/>
        <pt x="487" y="938" on="1"/>
        <pt x="231" y="938" on="1"/>
      </contour>
      <contour>
        <pt x="743" y="1493" on="1"/>
        <pt x="999" y="1493" on="1"/>
        <pt x="999" y="938" on="1"/>
        <pt x="743" y="938" on="1"/>
      </contour>
    </TTGlyph>
    <TTGlyph name="uni0023" xMin="-41" yMin="0" xMax="1268" yMax="1470">
      <contour>
        <pt x="199" y="373" on="1"/>
        <pt x="-41" y="373" on="1"/>
        <pt x="12" y="588" on="1"/>
        <pt x="254" y="588" on="1"/>
        <pt x="326" y="881" on="1"/>
        <pt x="86" y="881" on="1"/>
        <pt x="139" y="1096" on="1"/>
        <pt x="381" y="1096" on="1"/>
        <pt x="475" y="1470" on="1"/>
        <pt x="696" y="1470" on="1"/>
        <pt x="602" y="1096" on="1"/>
        <pt x="807" y="1096" on="1"/>
        <pt x="901" y="1470" on="1"/>
        <pt x="1122" y="1470" on="1"/>
        <pt x="1028" y="1096" on="1"/>
        <pt x="1268" y="1096" on="1"/>
        <pt x="1214" y="881" on="1"/>
        <pt x="973" y="881" on="1"/>
        <pt x="901" y="588" on="1"/>
        <pt x="1141" y="588" on="1"/>
        <pt x="1087" y="373" on="1"/>
        <pt x="846" y="373" on="1"/>
        <pt x="752" y="0" on="1"/>
        <pt x="530" y="0" on="1"/>
        <pt x="625" y="373" on="1"/>
        <pt x="420" y="373" on="1"/>
        <pt x="326" y="0" on="1"/>
        <pt x="104" y="0" on="1"/>
      </contour>
      <contour>
        <pt x="678" y="588" on="1"/>
        <pt x="752" y="881" on="1"/>
        <pt x="549" y="881" on="1"/>
        <pt x="475" y="588" on="1"/>
      </contour>
    </TTGlyph>
    <TTGlyph name="uni0024" xMin="39" yMin="-301" xMax="1092" yMax="1556">
      <contour>
        <pt x="361" y="0" on="1"/>
        <pt x="358" y="1" on="0"/>
        <pt x="271" y="14" on="0"/>
        <pt x="226" y="25" on="1"/>
        <pt x="175" y="38" on="0"/>
        <pt x="89" y="70" on="0"/>
        <pt x="39" y="92" on="1"/>
        <pt x="90" y="354" on="1"/>
        <pt x="176" y="295" on="0"/>
        <pt x="268" y="260" on="1"/>
        <pt x="358" y="227" on="0"/>
        <pt x="454" y="223" on="1"/>
        <pt x="522" y="569" on="1"/>
        <pt x="428" y="591" on="0"/>
        <pt x="315" y="651" on="0"/>
        <pt x="277" y="691" on="1"/>
        <pt x="238" y="733" on="0"/>
        <pt x="199" y="834" on="0"/>
        <pt x="199" y="900" on="1"/>
        <pt x="199" y="1073" on="0"/>
        <pt x="327" y="1193" on="1"/>
        <pt x="455" y="1312" on="0"/>
        <pt x="617" y="1319" on="1"/>
        <pt x="665" y="1556" on="1"/>
        <pt x="886" y="1556" on="1"/>
        <pt x="839" y="1319" on="1"/>
        <pt x="834" y="1317" on="0"/>
        <pt x="911" y="1307" on="0"/>
        <pt x="943" y="1301" on="1"/>
        <pt x="976" y="1295" on="0"/>
        <pt x="1052" y="1276" on="0"/>
        <pt x="1092" y="1262" on="1"/>
        <pt x="1042" y="1012" on="1"/>
        <pt x="1010" y="1033" on="0"/>
        <pt x="942" y="1063" on="0"/>
        <pt x="911" y="1073" on="1"/>
        <pt x="841" y="1095" on="0"/>
        <pt x="748" y="1098" on="1"/>
        <pt x="684" y="784" on="1"/>
        <pt x="866" y="736" on="0"/>
        <pt x="947" y="652" on="1"/>
        <pt x="1028" y="570" on="0"/>
        <pt x="1028" y="435" on="1"/>
        <pt x="1028" y="254" on="0"/>
        <pt x="897" y="135" on="1"/>
        <pt x="829" y="73" on="0"/>
        <pt x="652" y="8" on="0"/>
        <pt x="583" y="0" on="1"/>
        <pt x="525" y="-301" on="1"/>
        <pt x="304" y="-301" on="1"/>
      </contour>
      <contour>
        <pt x="624" y="1099" on="1"/>
        <pt x="542" y="1090" on="0"/>
        <pt x="501" y="1045" on="1"/>
        <pt x="459" y="999" on="0"/>
        <pt x="459" y="935" on="1"/>
        <pt x="459" y="891" on="0"/>
        <pt x="485" y="862" on="1"/>
        <pt x="511" y="833" on="0"/>
        <pt x="571" y="821" on="1"/>
      </contour>
      <contour>
        <pt x="578" y="227" on="1"/>
        <pt x="671" y="238" on="0"/>
        <pt x="719" y="286" on="1"/>
        <pt x="742" y="309" on="0"/>
        <pt x="768" y="364" on="0"/>
        <pt x="768" y="401" on="1"/>
        <pt x="768" y="453" on="0"/>
        <pt x="740" y="484" on="1"/>
        <pt x="712" y="515" on="0"/>
        <pt x="637" y="532" on="1"/>
      </contour>
    </TTGlyph>
    <TTGlyph name="uni0025" xMin="13" yMin="0" xMax="1240" yMax="1432">
      <contour>
        <pt x="353" y="778" on="1"/>
        <pt x="286" y="778" on="0"/>
        <pt x="159" y="823" on="0"/>
        <pt x="109" y="871" on="1"/>
        <pt x="66" y="913" on="0"/>
        <pt x="13" y="1033" on="0"/>
        <pt x="13" y="1105" on="1"/>
        <pt x="13" y="1175" on="0"/>
        <pt x="64" y="1295" on="0"/>
        <pt x="109" y="1339" on="1"/>
        <pt x="205" y="1432" on="0"/>
        <pt x="360" y="1432" on="1"/>
        <pt x="362" y="1432" on="0"/>
        <pt x="377" y="1432" on="0"/>
        <pt x="385" y="1431" on="1"/>
        <pt x="404" y="1428" on="0"/>
        <pt x="432" y="1424" on="0"/>
        <pt x="452" y="1418" on="1"/>
        <pt x="470" y="1413" on="0"/>
        <pt x="482" y="1408" on="0"/>
        <pt x="484" y="1407" on="1"/>
        <pt x="510" y="1397" on="0"/>
        <pt x="529" y="1387" on="0"/>
        <pt x="545" y="1377" on="1"/>
        <pt x="587" y="1351" on="0"/>
        <pt x="653" y="1278" on="0"/>
        <pt x="673" y="1231" on="1"/>
        <pt x="700" y="1171" on="0"/>
        <pt x="700" y="1103" on="1"/>
        <pt x="700" y="968" on="0"/>
        <pt x="599" y="873" on="1"/>
        <pt x="577" y="853" on="0"/>
        <pt x="521" y="816" on="0"/>
        <pt x="486" y="802" on="1"/>
        <pt x="423" y="778" on="0"/>
      </contour>
      <contour>
        <pt x="351" y="943" on="1"/>
        <pt x="388" y="943" on="0"/>
        <pt x="419" y="955" on="1"/>
        <pt x="430" y="959" on="0"/>
        <pt x="459" y="974" on="0"/>
        <pt x="476" y="990" on="1"/>
        <pt x="502" y="1014" on="0"/>
        <pt x="515" y="1042" on="1"/>
        <pt x="528" y="1068" on="0"/>
        <pt x="528" y="1103" on="1"/>
        <pt x="528" y="1172" on="0"/>
        <pt x="477" y="1219" on="1"/>
        <pt x="424" y="1266" on="0"/>
        <pt x="351" y="1266" on="1"/>
        <pt x="276" y="1266" on="0"/>
        <pt x="178" y="1172" on="0"/>
        <pt x="178" y="1104" on="1"/>
        <pt x="178" y="1036" on="0"/>
        <pt x="225" y="989" on="1"/>
        <pt x="273" y="943" on="0"/>
      </contour>
      <contour>
        <pt x="22" y="570" on="1"/>
        <pt x="1232" y="1018" on="1"/>
        <pt x="1232" y="873" on="1"/>
        <pt x="22" y="431" on="1"/>
      </contour>
      <contour>
        <pt x="898" y="0" on="1"/>
        <pt x="827" y="0" on="0"/>
        <pt x="764" y="24" on="1"/>
        <pt x="736" y="35" on="0"/>
        <pt x="680" y="68" on="0"/>
        <pt x="652" y="94" on="1"/>
        <pt x="619" y="125" on="0"/>
        <pt x="597" y="162" on="1"/>
        <pt x="574" y="200" on="0"/>
        <pt x="564" y="239" on="1"/>
        <pt x="553" y="283" on="0"/>
        <pt x="553" y="327" on="1"/>
        <pt x="553" y="399" on="0"/>
        <pt x="607" y="517" on="0"/>
        <pt x="654" y="561" on="1"/>
        <pt x="753" y="654" on="0"/>
        <pt x="900" y="654" on="1"/>
        <pt x="974" y="654" on="0"/>
        <pt x="1031" y="629" on="1"/>
        <pt x="1097" y="601" on="0"/>
        <pt x="1140" y="558" on="1"/>
        <pt x="1149" y="549" on="0"/>
        <pt x="1156" y="541" on="0"/>
        <pt x="1159" y="538" on="1"/>
        <pt x="1160" y="536" on="0"/>
        <pt x="1173" y="520" on="0"/>
        <pt x="1175" y="518" on="1"/>
        <pt x="1185" y="502" on="0"/>
        <pt x="1179" y="512" on="0"/>
        <pt x="1189" y="496" on="1"/>
        <pt x="1203" y="474" on="1"/>
        <pt x="1205" y="470" on="0"/>
        <pt x="1212" y="454" on="0"/>
        <pt x="1214" y="451" on="1"/>
        <pt x="1222" y="434" on="0"/>
        <pt x="1231" y="403" on="0"/>
        <pt x="1234" y="390" on="1"/>
        <pt x="1240" y="362" on="0"/>
        <pt x="1240" y="325" on="1"/>
        <pt x="1240" y="261" on="0"/>
        <pt x="1191" y="141" on="0"/>
        <pt x="1144" y="95" on="1"/>
        <pt x="1101" y="53" on="0"/>
        <pt x="976" y="0" on="0"/>
      </contour>
      <contour>
        <pt x="900" y="165" on="1"/>
        <pt x="974" y="165" on="0"/>
        <pt x="1024" y="212" on="1"/>
        <pt x="1073" y="258" on="0"/>
        <pt x="1073" y="325" on="1"/>
        <pt x="1073" y="395" on="0"/>
        <pt x="1024" y="442" on="1"/>
        <pt x="1004" y="462" on="0"/>
        <pt x="941" y="489" on="0"/>
        <pt x="899" y="489" on="1"/>
        <pt x="824" y="489" on="0"/>
        <pt x="775" y="443" on="1"/>
        <pt x="725" y="396" on="0"/>
        <pt x="725" y="326" on="1"/>
        <pt x="725" y="283" on="0"/>
        <pt x="747" y="245" on="1"/>
        <pt x="751" y="239" on="0"/>
        <pt x="766" y="219" on="0"/>
        <pt x="775" y="211" on="1"/>
        <pt x="798" y="190" on="0"/>
        <pt x="831" y="177" on="1"/>
        <pt x="862" y="165" on="0"/>
      </contour>
    </TTGlyph>
    <TTGlyph name="uni0026" xMin="-33" yMin="-29" xMax="1214" yMax="1520">
      <contour>
        <pt x="387" y="-29" on="1"/>
        <pt x="295" y="-29" on="0"/>
        <pt x="138" y="23" on="0"/>
        <pt x="80" y="77" on="1"/>
        <pt x="21" y="132" on="0"/>
        <pt x="-33" y="279" on="0"/>
        <pt x="-33" y="362" on="1"/>
        <pt x="-33" y="524" on="0"/>
        <pt x="66" y="666" on="1"/>
        <pt x="166" y="808" on="0"/>
        <pt x="350" y="913" on="1"/>
        <pt x="336" y="944" on="0"/>
        <pt x="319" y="994" on="0"/>
        <pt x="312" y="1021" on="1"/>
        <pt x="306" y="1045" on="0"/>
        <pt x="299" y="1089" on="0"/>
        <pt x="299" y="1118" on="1"/>
        <pt x="299" y="1206" on="0"/>
        <pt x="365" y="1356" on="0"/>
        <pt x="432" y="1411" on="1"/>
        <pt x="565" y="1520" on="0"/>
        <pt x="794" y="1520" on="1"/>
        <pt x="831" y="1520" on="0"/>
        <pt x="899" y="1514" on="0"/>
        <pt x="933" y="1509" on="1"/>
        <pt x="996" y="1499" on="0"/>
        <pt x="1065" y="1477" on="1"/>
        <pt x="1016" y="1221" on="1"/>
        <pt x="962" y="1256" on="0"/>
        <pt x="898" y="1275" on="1"/>
        <pt x="835" y="1294" on="0"/>
        <pt x="769" y="1294" on="1"/>
        <pt x="677" y="1294" on="0"/>
        <pt x="633" y="1259" on="1"/>
        <pt x="586" y="1223" on="0"/>
        <pt x="586" y="1158" on="1"/>
        <pt x="586" y="1121" on="0"/>
        <pt x="605" y="1065" on="1"/>
        <pt x="616" y="1030" on="0"/>
        <pt x="643" y="966" on="0"/>
        <pt x="664" y="920" on="1"/>
        <pt x="885" y="440" on="1"/>
        <pt x="927" y="498" on="0"/>
        <pt x="951" y="575" on="1"/>
        <pt x="975" y="654" on="0"/>
        <pt x="979" y="745" on="1"/>
        <pt x="1214" y="745" on="1"/>
        <pt x="1203" y="587" on="0"/>
        <pt x="1143" y="463" on="1"/>
        <pt x="1082" y="337" on="0"/>
        <pt x="975" y="246" on="1"/>
        <pt x="1090" y="0" on="1"/>
        <pt x="774" y="0" on="1"/>
        <pt x="739" y="72" on="1"/>
        <pt x="696" y="47" on="0"/>
        <pt x="609" y="9" on="0"/>
        <pt x="564" y="-4" on="1"/>
        <pt x="477" y="-29" on="0"/>
      </contour>
      <contour>
        <pt x="473" y="207" on="1"/>
        <pt x="514" y="207" on="0"/>
        <pt x="562" y="221" on="1"/>
        <pt x="608" y="234" on="0"/>
        <pt x="653" y="262" on="1"/>
        <pt x="436" y="731" on="1"/>
        <pt x="346" y="679" on="0"/>
        <pt x="299" y="605" on="1"/>
        <pt x="275" y="567" on="0"/>
        <pt x="252" y="482" on="0"/>
        <pt x="252" y="440" on="1"/>
        <pt x="252" y="340" on="0"/>
        <pt x="380" y="207" on="0"/>
      </contour>
    </TTGlyph>
    <TTGlyph name="uni0027" xMin="487" yMin="938" xMax="743" yMax="1493">
      <contour>
        <pt x="487" y="1493" on="1"/>
        <pt x="743" y="1493" on="1"/>
        <pt x="743" y="938" on="1"/>
        <pt x="487" y="938" on="1"/>
      </contour>
    </TTGlyph>
    <TTGlyph name="uni0028" xMin="278" yMin="-270" xMax="1019" yMax="1554">
      <contour>
        <pt x="440" y="-270" on="1"/>
        <pt x="401" y="-188" on="0"/>
        <pt x="339" y="-20" on="0"/>
        <pt x="318" y="67" on="1"/>
        <pt x="278" y="228" on="0"/>
        <pt x="278" y="393" on="1"/>
        <pt x="278" y="972" on="0"/>
        <pt x="794" y="1554" on="1"/>
        <pt x="1019" y="1554" on="1"/>
        <pt x="785" y="1240" on="0"/>
        <pt x="669" y="941" on="1"/>
        <pt x="552" y="640" on="0"/>
        <pt x="552" y="346" on="1"/>
        <pt x="552" y="202" on="0"/>
        <pt x="580" y="50" on="1"/>
        <pt x="595" y="-31" on="0"/>
        <pt x="638" y="-191" on="0"/>
        <pt x="665" y="-270" on="1"/>
      </contour>
    </TTGlyph>
    <TTGlyph name="uni0029" xMin="243" yMin="-270" xMax="984" yMax="1554">
      <contour>
        <pt x="243" y="-270" on="1"/>
        <pt x="710" y="356" on="0"/>
        <pt x="710" y="939" on="1"/>
        <pt x="710" y="1082" on="0"/>
        <pt x="682" y="1235" on="1"/>
        <pt x="668" y="1312" on="0"/>
        <pt x="625" y="1472" on="0"/>
        <pt x="597" y="1554" on="1"/>
        <pt x="822" y="1554" on="1"/>
        <pt x="863" y="1468" on="0"/>
        <pt x="924" y="1300" on="0"/>
        <pt x="944" y="1218" on="1"/>
        <pt x="984" y="1054" on="0"/>
        <pt x="984" y="892" on="1"/>
        <pt x="984" y="599" on="0"/>
        <pt x="855" y="310" on="1"/>
        <pt x="791" y="166" on="0"/>
        <pt x="597" y="-124" on="0"/>
        <pt x="468" y="-270" on="1"/>
      </contour>
    </TTGlyph>
    <TTGlyph name="uni002A" xMin="109" yMin="383" xMax="1119" yMax="1420">
      <contour>
        <pt x="230" y="467" on="1"/>
        <pt x="470" y="835" on="1"/>
        <pt x="109" y="992" on="1"/>
        <pt x="155" y="1122" on="1"/>
        <pt x="526" y="1000" on="1"/>
        <pt x="546" y="1420" on="1"/>
        <pt x="682" y="1420" on="1"/>
        <pt x="702" y="1000" on="1"/>
        <pt x="1073" y="1122" on="1"/>
        <pt x="1119" y="992" on="1"/>
        <pt x="758" y="835" on="1"/>
        <pt x="998" y="467" on="1"/>
        <pt x="881" y="383" on="1"/>
        <pt x="614" y="736" on="1"/>
        <pt x="347" y="383" on="1"/>
      </contour>
    </TTGlyph>
    <TTGlyph name="uni002B" xMin="66" yMin="92" xMax="1165" yMax="1192">
      <contour>
        <pt x="498" y="524" on="1"/>
        <pt x="66" y="524" on="1"/>
        <pt x="66" y="762" on="1"/>
        <pt x="498" y="762" on="1"/>
        <pt x="498" y="1192" on="1"/>
        <pt x="735" y="1192" on="1"/>
        <pt x="735" y="762" on="1"/>
        <pt x="1165" y="762" on="1"/>
        <pt x="1165" y="524" on="1"/>
        <pt x="735" y="524" on="1"/>
        <pt x="735" y="92" on="1"/>
        <pt x="498" y="92" on="1"/>
      </contour>
    </TTGlyph>
    <TTGlyph name="uni002C" xMin="380" yMin="-406" xMax="813" yMax="364">
      <contour>
        <pt x="380" y="-275" on="1"/>
        <pt x="394" y="-269" on="1"/>
        <pt x="496" y="-225" on="0"/>
        <pt x="628" y="-71" on="0"/>
        <pt x="636" y="34" on="1"/>
        <pt x="629" y="33" on="0"/>
        <pt x="618" y="32" on="0"/>
        <pt x="609" y="32" on="1"/>
        <pt x="539" y="32" on="0"/>
        <pt x="492" y="75" on="1"/>
        <pt x="469" y="95" on="0"/>
        <pt x="443" y="153" on="0"/>
        <pt x="443" y="196" on="1"/>
        <pt x="443" y="222" on="0"/>
        <pt x="449" y="244" on="1"/>
        <pt x="456" y="270" on="0"/>
        <pt x="473" y="302" on="0"/>
        <pt x="494" y="319" on="1"/>
        <pt x="523" y="343" on="0"/>
        <pt x="551" y="353" on="1"/>
        <pt x="582" y="364" on="0"/>
        <pt x="618" y="364" on="1"/>
        <pt x="635" y="364" on="0"/>
        <pt x="662" y="360" on="0"/>
        <pt x="676" y="356" on="1"/>
        <pt x="702" y="349" on="0"/>
        <pt x="726" y="331" on="1"/>
        <pt x="747" y="315" on="0"/>
        <pt x="764" y="289" on="1"/>
        <pt x="813" y="219" on="0"/>
        <pt x="813" y="93" on="1"/>
        <pt x="813" y="6" on="0"/>
        <pt x="789" y="-71" on="1"/>
        <pt x="765" y="-148" on="0"/>
        <pt x="718" y="-211" on="1"/>
        <pt x="669" y="-278" on="0"/>
        <pt x="536" y="-369" on="0"/>
        <pt x="451" y="-401" on="1"/>
        <pt x="438" y="-406" on="1"/>
      </contour>
    </TTGlyph>
    <TTGlyph name="uni002D" xMin="204" yMin="455" xMax="1048" yMax="746">
      <contour>
        <pt x="259" y="746" on="1"/>
        <pt x="1048" y="746" on="1"/>
        <pt x="992" y="455" on="1"/>
        <pt x="204" y="455" on="1"/>
      </contour>
    </TTGlyph>
    <TTGlyph name="uni002E" xMin="436" yMin="-42" xMax="790" yMax="326">
      <contour>
        <pt x="614" y="-42" on="1"/>
        <pt x="538" y="-42" on="0"/>
        <pt x="487" y="9" on="1"/>
        <pt x="436" y="60" on="0"/>
        <pt x="436" y="143" on="1"/>
        <pt x="436" y="222" on="0"/>
        <pt x="487" y="275" on="1"/>
        <pt x="538" y="326" on="0"/>
        <pt x="612" y="326" on="1"/>
        <pt x="688" y="326" on="0"/>
        <pt x="790" y="224" on="0"/>
        <pt x="790" y="141" on="1"/>
        <pt x="790" y="62" on="0"/>
        <pt x="739" y="9" on="1"/>
        <pt x="688" y="-42" on="0"/>
      </contour>
    </TTGlyph>
    <TTGlyph name="uni002F" xMin="79" yMin="-190" xMax="1154" yMax="1493">
      <contour>
        <pt x="931" y="1493" on="1"/>
        <pt x="1154" y="1493" on="1"/>
        <pt x="300" y="-190" on="1"/>
        <pt x="79" y="-190" on="1"/>
      </contour>
    </TTGlyph>
    <TTGlyph name="uni0030" xMin="98" yMin="-29" xMax="1195" yMax="1520">
      <contour>
        <pt x="504" y="-29" on="1"/>
        <pt x="396" y="-29" on="0"/>
        <pt x="245" y="34" on="0"/>
        <pt x="195" y="98" on="1"/>
        <pt x="147" y="160" on="0"/>
        <pt x="98" y="344" on="0"/>
        <pt x="98" y="477" on="1"/>
        <pt x="98" y="534" on="0"/>
        <pt x="106" y="627" on="0"/>
        <pt x="113" y="675" on="1"/>
        <pt x="128" y="785" on="0"/>
        <pt x="155" y="886" on="1"/>
        <pt x="211" y="1099" on="0"/>
        <pt x="299" y="1243" on="1"/>
        <pt x="330" y="1295" on="0"/>
        <pt x="361" y="1329" on="1"/>
        <pt x="394" y="1368" on="0"/>
        <pt x="431" y="1399" on="1"/>
        <pt x="468" y="1430" on="0"/>
        <pt x="508" y="1452" on="1"/>
        <pt x="630" y="1520" on="0"/>
        <pt x="786" y="1520" on="1"/>
        <pt x="898" y="1520" on="0"/>
        <pt x="1048" y="1455" on="0"/>
        <pt x="1096" y="1394" on="1"/>
        <pt x="1195" y="1270" on="0"/>
        <pt x="1195" y="1023" on="1"/>
        <pt x="1195" y="930" on="0"/>
        <pt x="1167" y="715" on="0"/>
        <pt x="1138" y="606" on="1"/>
        <pt x="1082" y="393" on="0"/>
        <pt x="994" y="250" on="1"/>
        <pt x="975" y="219" on="0"/>
        <pt x="927" y="155" on="0"/>
        <pt x="899" y="127" on="1"/>
        <pt x="846" y="74" on="0"/>
        <pt x="785" y="40" on="1"/>
        <pt x="664" y="-29" on="0"/>
      </contour>
      <contour>
        <pt x="529" y="165" on="1"/>
        <pt x="570" y="165" on="0"/>
        <pt x="607" y="177" on="1"/>
        <pt x="623" y="182" on="0"/>
        <pt x="661" y="200" on="0"/>
        <pt x="678" y="212" on="1"/>
        <pt x="746" y="258" on="0"/>
        <pt x="794" y="351" on="1"/>
        <pt x="801" y="364" on="0"/>
        <pt x="819" y="401" on="0"/>
        <pt x="829" y="423" on="1"/>
        <pt x="838" y="443" on="0"/>
        <pt x="853" y="483" on="0"/>
        <pt x="860" y="502" on="1"/>
        <pt x="870" y="530" on="0"/>
        <pt x="882" y="564" on="0"/>
        <pt x="889" y="589" on="1"/>
        <pt x="894" y="605" on="0"/>
        <pt x="908" y="659" on="0"/>
        <pt x="914" y="685" on="1"/>
        <pt x="924" y="729" on="0"/>
        <pt x="935" y="785" on="0"/>
        <pt x="941" y="816" on="1"/>
        <pt x="952" y="882" on="0"/>
        <pt x="962" y="998" on="0"/>
        <pt x="962" y="1051" on="1"/>
        <pt x="962" y="1088" on="0"/>
        <pt x="959" y="1133" on="0"/>
        <pt x="954" y="1160" on="1"/>
        <pt x="952" y="1177" on="0"/>
        <pt x="945" y="1201" on="1"/>
        <pt x="943" y="1207" on="0"/>
        <pt x="935" y="1230" on="0"/>
        <pt x="931" y="1237" on="1"/>
        <pt x="927" y="1247" on="0"/>
        <pt x="914" y="1264" on="1"/>
        <pt x="869" y="1326" on="0"/>
        <pt x="766" y="1326" on="1"/>
        <pt x="681" y="1326" on="0"/>
        <pt x="614" y="1279" on="1"/>
        <pt x="576" y="1253" on="0"/>
        <pt x="518" y="1180" on="0"/>
        <pt x="497" y="1142" on="1"/>
        <pt x="462" y="1079" on="0"/>
        <pt x="398" y="903" on="0"/>
        <pt x="376" y="807" on="1"/>
        <pt x="352" y="704" on="0"/>
        <pt x="329" y="507" on="0"/>
        <pt x="329" y="433" on="1"/>
        <pt x="329" y="287" on="0"/>
        <pt x="379" y="226" on="1"/>
        <pt x="428" y="165" on="0"/>
      </contour>
      <contour>
        <pt x="572" y="410" on="1"/>
        <pt x="571" y="410" on="0"/>
        <pt x="570" y="412" on="0"/>
        <pt x="569" y="412" on="1"/>
        <pt x="565" y="412" on="1"/>
        <pt x="516" y="427" on="0"/>
        <pt x="521" y="543" on="1"/>
        <pt x="521" y="555" on="1"/>
        <pt x="521" y="558" on="0"/>
        <pt x="523" y="568" on="1"/>
        <pt x="523" y="581" on="1"/>
        <pt x="523" y="586" on="0"/>
        <pt x="524" y="595" on="1"/>
        <pt x="532" y="661" on="0"/>
        <pt x="537" y="699" on="0"/>
        <pt x="541" y="725" on="1"/>
        <pt x="543" y="737" on="0"/>
        <pt x="556" y="798" on="0"/>
        <pt x="558" y="804" on="1"/>
        <pt x="566" y="834" on="0"/>
        <pt x="571" y="846" on="0"/>
        <pt x="571" y="848" on="1"/>
        <pt x="573" y="856" on="0"/>
        <pt x="585" y="893" on="0"/>
        <pt x="589" y="905" on="1"/>
        <pt x="595" y="922" on="0"/>
        <pt x="612" y="963" on="0"/>
        <pt x="617" y="974" on="1"/>
        <pt x="635" y="1017" on="0"/>
        <pt x="692" y="1084" on="0"/>
        <pt x="716" y="1084" on="1"/>
        <pt x="721" y="1084" on="1"/>
        <pt x="721" y="1084" on="0"/>
        <pt x="727" y="1082" on="1"/>
        <pt x="780" y="1067" on="0"/>
        <pt x="775" y="954" on="1"/>
        <pt x="775" y="953" on="1"/>
        <pt x="774" y="950" on="0"/>
        <pt x="774" y="941" on="1"/>
        <pt x="774" y="927" on="1"/>
        <pt x="772" y="896" on="0"/>
        <pt x="762" y="825" on="1"/>
        <pt x="757" y="800" on="0"/>
        <pt x="749" y="757" on="0"/>
        <pt x="746" y="746" on="1"/>
        <pt x="738" y="712" on="0"/>
        <pt x="700" y="592" on="0"/>
        <pt x="682" y="548" on="1"/>
        <pt x="654" y="479" on="0"/>
        <pt x="630" y="445" on="1"/>
        <pt x="603" y="410" on="0"/>
        <pt x="575" y="410" on="1"/>
      </contour>
    </TTGlyph>
    <TTGlyph name="uni0030.subs" xMin="303" yMin="-445" xMax="1050" yMax="422">
      <contour>
        <pt x="586" y="-445" on="1"/>
        <pt x="453" y="-445" on="0"/>
        <pt x="303" y="-314" on="0"/>
        <pt x="303" y="-176" on="1"/>
        <pt x="303" y="-111" on="0"/>
        <pt x="336" y="51" on="0"/>
        <pt x="394" y="205" on="0"/>
        <pt x="433" y="259" on="1"/>
        <pt x="547" y="422" on="0"/>
        <pt x="766" y="422" on="1"/>
        <pt x="898" y="422" on="0"/>
        <pt x="1050" y="291" on="0"/>
        <pt x="1050" y="155" on="1"/>
        <pt x="1050" y="94" on="0"/>
        <pt x="1018" y="-67" on="0"/>
        <pt x="958" y="-226" on="0"/>
        <pt x="917" y="-284" on="1"/>
        <pt x="862" y="-362" on="0"/>
        <pt x="697" y="-445" on="0"/>
      </contour>
      <contour>
        <pt x="608" y="-307" on="1"/>
        <pt x="661" y="-307" on="0"/>
        <pt x="730" y="-244" on="0"/>
        <pt x="756" y="-192" on="1"/>
        <pt x="780" y="-142" on="0"/>
        <pt x="819" y="-13" on="0"/>
        <pt x="841" y="113" on="0"/>
        <pt x="841" y="159" on="1"/>
        <pt x="841" y="283" on="0"/>
        <pt x="744" y="283" on="1"/>
        <pt x="694" y="283" on="0"/>
        <pt x="623" y="226" on="0"/>
        <pt x="595" y="169" on="1"/>
        <pt x="572" y="122" on="0"/>
        <pt x="534" y="-6" on="0"/>
        <pt x="511" y="-134" on="0"/>
        <pt x="511" y="-182" on="1"/>
        <pt x="511" y="-307" on="0"/>
      </contour>
      <contour>
        <pt x="674" y="-82" on="1"/>
        <pt x="638" y="-82" on="0"/>
        <pt x="586" y="-42" on="0"/>
        <pt x="586" y="-13" on="1"/>
        <pt x="586" y="18" on="0"/>
        <pt x="638" y="59" on="0"/>
        <pt x="674" y="59" on="1"/>
        <pt x="710" y="59" on="0"/>
        <pt x="765" y="18" on="0"/>
        <pt x="765" y="-11" on="1"/>
        <pt x="765" y="-40" on="0"/>
        <pt x="712" y="-82" on="0"/>
      </contour>
    </TTGlyph>
    <TTGlyph name="uni0031" xMin="43" yMin="0" xMax="1020" yMax="1493">
      <contour>
        <pt x="94" y="260" on="1"/>
        <pt x="424" y="260" on="1"/>
        <pt x="599" y="1187" on="1"/>
        <pt x="368" y="1005" on="1"/>
        <pt x="252" y="1169" on="1"/>
        <pt x="668" y="1493" on="1"/>
        <pt x="950" y="1493" on="1"/>
        <pt x="711" y="260" on="1"/>
        <pt x="1020" y="260" on="1"/>
        <pt x="969" y="0" on="1"/>
        <pt x="43" y="0" on="1"/>
      </contour>
    </TTGlyph>
    <TTGlyph name="uni0031.subs" xMin="289" yMin="-400" xMax="975" yMax="435">
      <contour>
        <pt x="315" y="-255" on="1"/>
        <pt x="551" y="-255" on="1"/>
        <pt x="657" y="288" on="1"/>
        <pt x="428" y="245" on="1"/>
        <pt x="457" y="394" on="1"/>
        <pt x="686" y="435" on="1"/>
        <pt x="883" y="435" on="1"/>
        <pt x="748" y="-255" on="1"/>
        <pt x="975" y="-255" on="1"/>
        <pt x="946" y="-400" on="1"/>
        <pt x="289" y="-400" on="1"/>
      </contour>
    </TTGlyph>
    <TTGlyph name="uni0032" xMin="-29" yMin="0" xMax="1135" yMax="1520">
      <contour>
        <pt x="13" y="218" on="1"/>
        <pt x="20" y="251" on="0"/>
        <pt x="46" y="275" on="1"/>
        <pt x="297" y="500" on="1"/>
        <pt x="334" y="534" on="0"/>
        <pt x="376" y="570" on="0"/>
        <pt x="412" y="602" on="0"/>
        <pt x="442" y="628" on="1"/>
        <pt x="659" y="822" on="0"/>
        <pt x="844" y="1059" on="0"/>
        <pt x="844" y="1138" on="1"/>
        <pt x="844" y="1206" on="0"/>
        <pt x="732" y="1288" on="0"/>
        <pt x="635" y="1288" on="1"/>
        <pt x="551" y="1288" on="0"/>
        <pt x="447" y="1259" on="1"/>
        <pt x="402" y="1246" on="0"/>
        <pt x="288" y="1202" on="0"/>
        <pt x="225" y="1171" on="1"/>
        <pt x="276" y="1438" on="1"/>
        <pt x="386" y="1479" on="0"/>
        <pt x="492" y="1499" on="1"/>
        <pt x="546" y="1510" on="0"/>
        <pt x="652" y="1520" on="0"/>
        <pt x="697" y="1520" on="1"/>
        <pt x="792" y="1520" on="0"/>
        <pt x="954" y="1474" on="0"/>
        <pt x="1014" y="1426" on="1"/>
        <pt x="1070" y="1382" on="0"/>
        <pt x="1135" y="1259" on="0"/>
        <pt x="1135" y="1186" on="1"/>
        <pt x="1135" y="927" on="0"/>
        <pt x="681" y="542" on="1"/>
        <pt x="641" y="508" on="1"/>
        <pt x="324" y="260" on="1"/>
        <pt x="971" y="260" on="1"/>
        <pt x="920" y="0" on="1"/>
        <pt x="-29" y="0" on="1"/>
      </contour>
    </TTGlyph>
    <TTGlyph name="uni0032.subs" xMin="260" yMin="-400" xMax="1028" yMax="452">
      <contour>
        <pt x="289" y="-259" on="1"/>
        <pt x="331" y="-228" on="0"/>
        <pt x="369" y="-200" on="0"/>
        <pt x="387" y="-188" on="0"/>
        <pt x="407" y="-174" on="0"/>
        <pt x="431" y="-157" on="1"/>
        <pt x="633" y="-12" on="0"/>
        <pt x="831" y="173" on="0"/>
        <pt x="831" y="230" on="1"/>
        <pt x="831" y="265" on="0"/>
        <pt x="758" y="314" on="0"/>
        <pt x="687" y="314" on="1"/>
        <pt x="630" y="314" on="0"/>
        <pt x="480" y="278" on="0"/>
        <pt x="403" y="243" on="1"/>
        <pt x="434" y="405" on="1"/>
        <pt x="587" y="452" on="0"/>
        <pt x="722" y="452" on="1"/>
        <pt x="870" y="452" on="0"/>
        <pt x="1028" y="344" on="0"/>
        <pt x="1028" y="264" on="1"/>
        <pt x="1028" y="178" on="0"/>
        <pt x="830" y="-36" on="0"/>
        <pt x="618" y="-182" on="1"/>
        <pt x="578" y="-210" on="0"/>
        <pt x="543" y="-235" on="0"/>
        <pt x="526" y="-246" on="0"/>
        <pt x="514" y="-255" on="1"/>
        <pt x="952" y="-255" on="1"/>
        <pt x="924" y="-400" on="1"/>
        <pt x="260" y="-400" on="1"/>
      </contour>
    </TTGlyph>
    <TTGlyph name="uni0033" xMin="-31" yMin="-29" xMax="1124" yMax="1520">
      <contour>
        <pt x="421" y="-29" on="1"/>
        <pt x="321" y="-29" on="0"/>
        <pt x="206" y="-10" on="1"/>
        <pt x="85" y="12" on="0"/>
        <pt x="-31" y="45" on="1"/>
        <pt x="23" y="315" on="1"/>
        <pt x="73" y="291" on="0"/>
        <pt x="174" y="256" on="0"/>
        <pt x="223" y="245" on="1"/>
        <pt x="326" y="221" on="0"/>
        <pt x="430" y="221" on="1"/>
        <pt x="599" y="223" on="0"/>
        <pt x="742" y="356" on="0"/>
        <pt x="750" y="477" on="1"/>
        <pt x="750" y="572" on="0"/>
        <pt x="686" y="620" on="1"/>
        <pt x="622" y="668" on="0"/>
        <pt x="514" y="668" on="1"/>
        <pt x="356" y="668" on="1"/>
        <pt x="408" y="928" on="1"/>
        <pt x="565" y="928" on="1"/>
        <pt x="687" y="928" on="0"/>
        <pt x="767" y="984" on="1"/>
        <pt x="844" y="1041" on="0"/>
        <pt x="844" y="1124" on="1"/>
        <pt x="844" y="1194" on="0"/>
        <pt x="787" y="1232" on="1"/>
        <pt x="761" y="1249" on="0"/>
        <pt x="680" y="1270" on="0"/>
        <pt x="622" y="1270" on="1"/>
        <pt x="540" y="1270" on="0"/>
        <pt x="441" y="1249" on="1"/>
        <pt x="390" y="1238" on="0"/>
        <pt x="286" y="1208" on="0"/>
        <pt x="231" y="1188" on="1"/>
        <pt x="285" y="1456" on="1"/>
        <pt x="389" y="1489" on="0"/>
        <pt x="584" y="1520" on="0"/>
        <pt x="667" y="1520" on="1"/>
        <pt x="773" y="1520" on="0"/>
        <pt x="940" y="1470" on="0"/>
        <pt x="998" y="1424" on="1"/>
        <pt x="1060" y="1375" on="0"/>
        <pt x="1120" y="1241" on="0"/>
        <pt x="1120" y="1164" on="1"/>
        <pt x="1124" y="1078" on="0"/>
        <pt x="1035" y="925" on="0"/>
        <pt x="872" y="820" on="0"/>
        <pt x="764" y="805" on="1"/>
        <pt x="900" y="769" on="0"/>
        <pt x="964" y="687" on="1"/>
        <pt x="1030" y="603" on="0"/>
        <pt x="1030" y="470" on="1"/>
        <pt x="1030" y="320" on="0"/>
        <pt x="882" y="95" on="0"/>
        <pt x="608" y="-29" on="0"/>
      </contour>
    </TTGlyph>
    <TTGlyph name="uni0033.subs" xMin="276" yMin="-425" xMax="1040" yMax="442">
      <contour>
        <pt x="566" y="-425" on="1"/>
        <pt x="417" y="-425" on="0"/>
        <pt x="276" y="-384" on="1"/>
        <pt x="307" y="-230" on="1"/>
        <pt x="366" y="-256" on="0"/>
        <pt x="518" y="-285" on="0"/>
        <pt x="580" y="-285" on="1"/>
        <pt x="687" y="-285" on="0"/>
        <pt x="801" y="-206" on="0"/>
        <pt x="801" y="-143" on="1"/>
        <pt x="801" y="-87" on="0"/>
        <pt x="714" y="-36" on="0"/>
        <pt x="639" y="-36" on="1"/>
        <pt x="528" y="-36" on="1"/>
        <pt x="557" y="110" on="1"/>
        <pt x="666" y="110" on="1"/>
        <pt x="754" y="110" on="0"/>
        <pt x="848" y="165" on="0"/>
        <pt x="848" y="212" on="1"/>
        <pt x="848" y="257" on="0"/>
        <pt x="768" y="302" on="0"/>
        <pt x="699" y="302" on="1"/>
        <pt x="596" y="302" on="0"/>
        <pt x="432" y="255" on="1"/>
        <pt x="461" y="407" on="1"/>
        <pt x="609" y="442" on="0"/>
        <pt x="736" y="442" on="1"/>
        <pt x="882" y="442" on="0"/>
        <pt x="1040" y="343" on="0"/>
        <pt x="1040" y="246" on="1"/>
        <pt x="1040" y="162" on="0"/>
        <pt x="918" y="50" on="0"/>
        <pt x="807" y="38" on="1"/>
        <pt x="888" y="28" on="0"/>
        <pt x="989" y="-65" on="0"/>
        <pt x="989" y="-153" on="1"/>
        <pt x="989" y="-278" on="0"/>
        <pt x="770" y="-425" on="0"/>
      </contour>
    </TTGlyph>
    <TTGlyph name="uni0034" xMin="18" yMin="0" xMax="1120" yMax="1493">
      <contour>
        <pt x="612" y="322" on="1"/>
        <pt x="18" y="322" on="1"/>
        <pt x="76" y="608" on="1"/>
        <pt x="811" y="1493" on="1"/>
        <pt x="1120" y="1493" on="1"/>
        <pt x="942" y="575" on="1"/>
        <pt x="1106" y="575" on="1"/>
        <pt x="1057" y="322" on="1"/>
        <pt x="893" y="322" on="1"/>
        <pt x="831" y="0" on="1"/>
        <pt x="549" y="0" on="1"/>
      </contour>
      <contour>
        <pt x="662" y="575" on="1"/>
        <pt x="772" y="1153" on="1"/>
        <pt x="289" y="575" on="1"/>
      </contour>
    </TTGlyph>
    <TTGlyph name="uni0034.subs" xMin="270" yMin="-410" xMax="981" yMax="425">
      <contour>
        <pt x="659" y="-230" on="1"/>
        <pt x="270" y="-230" on="1"/>
        <pt x="301" y="-68" on="1"/>
        <pt x="768" y="425" on="1"/>
        <pt x="973" y="425" on="1"/>
        <pt x="872" y="-87" on="1"/>
        <pt x="981" y="-87" on="1"/>
        <pt x="954" y="-230" on="1"/>
        <pt x="846" y="-230" on="1"/>
        <pt x="811" y="-410" on="1"/>
        <pt x="623" y="-410" on="1"/>
      </contour>
      <contour>
        <pt x="686" y="-87" on="1"/>
        <pt x="750" y="243" on="1"/>
        <pt x="436" y="-87" on="1"/>
      </contour>
    </TTGlyph>
    <TTGlyph name="uni0035" xMin="6" yMin="-29" xMax="1151" yMax="1493">
      <contour>
        <pt x="387" y="-29" on="1"/>
        <pt x="290" y="-29" on="0"/>
        <pt x="197" y="-13" on="1"/>
        <pt x="102" y="3" on="0"/>
        <pt x="6" y="35" on="1"/>
        <pt x="57" y="301" on="1"/>
        <pt x="125" y="261" on="0"/>
        <pt x="213" y="240" on="1"/>
        <pt x="256" y="229" on="0"/>
        <pt x="346" y="219" on="0"/>
        <pt x="391" y="219" on="1"/>
        <pt x="566" y="219" on="0"/>
        <pt x="665" y="298" on="1"/>
        <pt x="764" y="376" on="0"/>
        <pt x="764" y="509" on="1"/>
        <pt x="764" y="617" on="0"/>
        <pt x="622" y="737" on="0"/>
        <pt x="498" y="737" on="1"/>
        <pt x="428" y="737" on="0"/>
        <pt x="340" y="717" on="1"/>
        <pt x="258" y="697" on="0"/>
        <pt x="178" y="659" on="1"/>
        <pt x="340" y="1493" on="1"/>
        <pt x="1151" y="1493" on="1"/>
        <pt x="1100" y="1233" on="1"/>
        <pt x="528" y="1233" on="1"/>
        <pt x="475" y="956" on="1"/>
        <pt x="505" y="969" on="0"/>
        <pt x="544" y="975" on="1"/>
        <pt x="580" y="981" on="0"/>
        <pt x="622" y="981" on="1"/>
        <pt x="721" y="981" on="0"/>
        <pt x="881" y="920" on="0"/>
        <pt x="936" y="865" on="1"/>
        <pt x="1051" y="750" on="0"/>
        <pt x="1051" y="545" on="1"/>
        <pt x="1051" y="418" on="0"/>
        <pt x="962" y="205" on="0"/>
        <pt x="873" y="127" on="1"/>
        <pt x="698" y="-29" on="0"/>
      </contour>
    </TTGlyph>
    <TTGlyph name="uni0035.subs" xMin="237" yMin="-425" xMax="1050" yMax="425">
      <contour>
        <pt x="507" y="-425" on="1"/>
        <pt x="439" y="-425" on="0"/>
        <pt x="297" y="-407" on="0"/>
        <pt x="237" y="-390" on="1"/>
        <pt x="273" y="-241" on="1"/>
        <pt x="381" y="-287" on="0"/>
        <pt x="508" y="-287" on="1"/>
        <pt x="631" y="-287" on="0"/>
        <pt x="775" y="-199" on="0"/>
        <pt x="775" y="-125" on="1"/>
        <pt x="775" y="-64" on="0"/>
        <pt x="676" y="3" on="0"/>
        <pt x="584" y="3" on="1"/>
        <pt x="476" y="3" on="0"/>
        <pt x="359" y="-40" on="1"/>
        <pt x="474" y="425" on="1"/>
        <pt x="1050" y="425" on="1"/>
        <pt x="1013" y="280" on="1"/>
        <pt x="608" y="280" on="1"/>
        <pt x="570" y="126" on="1"/>
        <pt x="618" y="140" on="0"/>
        <pt x="677" y="140" on="1"/>
        <pt x="814" y="140" on="0"/>
        <pt x="979" y="9" on="0"/>
        <pt x="979" y="-107" on="1"/>
        <pt x="979" y="-249" on="0"/>
        <pt x="726" y="-425" on="0"/>
      </contour>
    </TTGlyph>
    <TTGlyph name="uni0036" xMin="96" yMin="-33" xMax="1169" yMax="1518">
      <contour>
        <pt x="544" y="-33" on="1"/>
        <pt x="326" y="-33" on="0"/>
        <pt x="210" y="93" on="1"/>
        <pt x="153" y="156" on="0"/>
        <pt x="96" y="342" on="0"/>
        <pt x="96" y="480" on="1"/>
        <pt x="96" y="683" on="0"/>
        <pt x="157" y="891" on="1"/>
        <pt x="217" y="1098" on="0"/>
        <pt x="326" y="1247" on="1"/>
        <pt x="375" y="1314" on="0"/>
        <pt x="489" y="1416" on="0"/>
        <pt x="563" y="1451" on="1"/>
        <pt x="704" y="1518" on="0"/>
        <pt x="881" y="1518" on="1"/>
        <pt x="960" y="1518" on="0"/>
        <pt x="1024" y="1503" on="1"/>
        <pt x="1094" y="1487" on="0"/>
        <pt x="1169" y="1458" on="1"/>
        <pt x="1118" y="1190" on="1"/>
        <pt x="1080" y="1217" on="0"/>
        <pt x="1020" y="1246" on="0"/>
        <pt x="988" y="1257" on="1"/>
        <pt x="916" y="1280" on="0"/>
        <pt x="846" y="1280" on="1"/>
        <pt x="690" y="1280" on="0"/>
        <pt x="583" y="1172" on="1"/>
        <pt x="529" y="1118" on="0"/>
        <pt x="453" y="957" on="0"/>
        <pt x="430" y="854" on="1"/>
        <pt x="493" y="921" on="0"/>
        <pt x="566" y="952" on="1"/>
        <pt x="642" y="985" on="0"/>
        <pt x="732" y="985" on="1"/>
        <pt x="898" y="985" on="0"/>
        <pt x="995" y="874" on="1"/>
        <pt x="1043" y="820" on="0"/>
        <pt x="1092" y="669" on="0"/>
        <pt x="1092" y="565" on="1"/>
        <pt x="1092" y="434" on="0"/>
        <pt x="1013" y="224" on="0"/>
        <pt x="938" y="139" on="1"/>
        <pt x="862" y="54" on="0"/>
        <pt x="671" y="-33" on="0"/>
      </contour>
      <contour>
        <pt x="551" y="207" on="1"/>
        <pt x="621" y="207" on="0"/>
        <pt x="735" y="299" on="0"/>
        <pt x="803" y="455" on="0"/>
        <pt x="803" y="550" on="1"/>
        <pt x="803" y="646" on="0"/>
        <pt x="758" y="697" on="1"/>
        <pt x="712" y="748" on="0"/>
        <pt x="636" y="748" on="1"/>
        <pt x="580" y="748" on="0"/>
        <pt x="488" y="693" on="0"/>
        <pt x="456" y="648" on="1"/>
        <pt x="420" y="597" on="0"/>
        <pt x="383" y="471" on="0"/>
        <pt x="383" y="408" on="1"/>
        <pt x="383" y="311" on="0"/>
        <pt x="428" y="260" on="1"/>
        <pt x="449" y="236" on="0"/>
        <pt x="510" y="207" on="0"/>
      </contour>
    </TTGlyph>
    <TTGlyph name="uni0036.subs" xMin="289" yMin="-427" xMax="1050" yMax="440">
      <contour>
        <pt x="596" y="-427" on="1"/>
        <pt x="447" y="-427" on="0"/>
        <pt x="289" y="-285" on="0"/>
        <pt x="289" y="-139" on="1"/>
        <pt x="289" y="-31" on="0"/>
        <pt x="375" y="205" on="0"/>
        <pt x="452" y="288" on="1"/>
        <pt x="593" y="440" on="0"/>
        <pt x="843" y="440" on="1"/>
        <pt x="898" y="440" on="0"/>
        <pt x="993" y="424" on="0"/>
        <pt x="1050" y="406" on="1"/>
        <pt x="1014" y="257" on="1"/>
        <pt x="926" y="307" on="0"/>
        <pt x="821" y="307" on="1"/>
        <pt x="712" y="307" on="0"/>
        <pt x="559" y="187" on="0"/>
        <pt x="526" y="69" on="1"/>
        <pt x="568" y="103" on="0"/>
        <pt x="676" y="142" on="0"/>
        <pt x="742" y="142" on="1"/>
        <pt x="858" y="142" on="0"/>
        <pt x="996" y="16" on="0"/>
        <pt x="996" y="-96" on="1"/>
        <pt x="996" y="-191" on="0"/>
        <pt x="897" y="-341" on="0"/>
        <pt x="718" y="-427" on="0"/>
      </contour>
      <contour>
        <pt x="609" y="-293" on="1"/>
        <pt x="689" y="-293" on="0"/>
        <pt x="791" y="-177" on="0"/>
        <pt x="791" y="-105" on="1"/>
        <pt x="791" y="-48" on="0"/>
        <pt x="727" y="9" on="0"/>
        <pt x="675" y="9" on="1"/>
        <pt x="595" y="9" on="0"/>
        <pt x="493" y="-106" on="0"/>
        <pt x="493" y="-178" on="1"/>
        <pt x="493" y="-235" on="0"/>
        <pt x="556" y="-293" on="0"/>
      </contour>
    </TTGlyph>
    <TTGlyph name="uni0037" xMin="109" yMin="0" xMax="1225" yMax="1493">
      <contour>
        <pt x="844" y="1233" on="1"/>
        <pt x="211" y="1233" on="1"/>
        <pt x="262" y="1493" on="1"/>
        <pt x="1225" y="1493" on="1"/>
        <pt x="1184" y="1284" on="1"/>
        <pt x="428" y="0" on="1"/>
        <pt x="109" y="0" on="1"/>
      </contour>
    </TTGlyph>
    <TTGlyph name="uni0037.subs" xMin="258" yMin="-425" xMax="1050" yMax="410">
      <contour>
        <pt x="780" y="265" on="1"/>
        <pt x="331" y="265" on="1"/>
        <pt x="367" y="410" on="1"/>
        <pt x="1050" y="410" on="1"/>
        <pt x="1021" y="293" on="1"/>
        <pt x="485" y="-425" on="1"/>
        <pt x="258" y="-425" on="1"/>
      </contour>
    </TTGlyph>
    <TTGlyph name="uni0038" xMin="63" yMin="-29" xMax="1137" yMax="1520">
      <contour>
        <pt x="502" y="-29" on="1"/>
        <pt x="396" y="-29" on="0"/>
        <pt x="234" y="23" on="0"/>
        <pt x="178" y="71" on="1"/>
        <pt x="63" y="171" on="0"/>
        <pt x="63" y="352" on="1"/>
        <pt x="63" y="519" on="0"/>
        <pt x="260" y="759" on="0"/>
        <pt x="434" y="799" on="1"/>
        <pt x="383" y="813" on="0"/>
        <pt x="305" y="860" on="0"/>
        <pt x="277" y="897" on="1"/>
        <pt x="223" y="966" on="0"/>
        <pt x="223" y="1075" on="1"/>
        <pt x="223" y="1163" on="0"/>
        <pt x="295" y="1325" on="0"/>
        <pt x="370" y="1391" on="1"/>
        <pt x="439" y="1451" on="0"/>
        <pt x="621" y="1520" on="0"/>
        <pt x="730" y="1520" on="1"/>
        <pt x="910" y="1520" on="0"/>
        <pt x="1025" y="1422" on="1"/>
        <pt x="1079" y="1375" on="0"/>
        <pt x="1137" y="1245" on="0"/>
        <pt x="1137" y="1161" on="1"/>
        <pt x="1137" y="1017" on="0"/>
        <pt x="1048" y="913" on="1"/>
        <pt x="958" y="811" on="0"/>
        <pt x="809" y="786" on="1"/>
        <pt x="919" y="757" on="0"/>
        <pt x="979" y="673" on="1"/>
        <pt x="1009" y="631" on="0"/>
        <pt x="1040" y="529" on="0"/>
        <pt x="1040" y="461" on="1"/>
        <pt x="1040" y="357" on="0"/>
        <pt x="967" y="176" on="0"/>
        <pt x="892" y="107" on="1"/>
        <pt x="823" y="44" on="0"/>
        <pt x="628" y="-29" on="0"/>
      </contour>
      <contour>
        <pt x="653" y="903" on="1"/>
        <pt x="697" y="903" on="0"/>
        <pt x="781" y="933" on="0"/>
        <pt x="813" y="963" on="1"/>
        <pt x="877" y="1023" on="0"/>
        <pt x="877" y="1116" on="1"/>
        <pt x="877" y="1195" on="0"/>
        <pt x="831" y="1240" on="1"/>
        <pt x="784" y="1284" on="0"/>
        <pt x="705" y="1284" on="1"/>
        <pt x="610" y="1284" on="0"/>
        <pt x="548" y="1223" on="1"/>
        <pt x="485" y="1163" on="0"/>
        <pt x="485" y="1070" on="1"/>
        <pt x="485" y="995" on="0"/>
        <pt x="530" y="950" on="1"/>
        <pt x="576" y="903" on="0"/>
      </contour>
      <contour>
        <pt x="528" y="209" on="1"/>
        <pt x="639" y="209" on="0"/>
        <pt x="709" y="285" on="1"/>
        <pt x="778" y="360" on="0"/>
        <pt x="778" y="474" on="1"/>
        <pt x="778" y="523" on="0"/>
        <pt x="750" y="593" on="0"/>
        <pt x="725" y="617" on="1"/>
        <pt x="701" y="640" on="0"/>
        <pt x="629" y="668" on="0"/>
        <pt x="579" y="668" on="1"/>
        <pt x="468" y="668" on="0"/>
        <pt x="397" y="593" on="1"/>
        <pt x="362" y="556" on="0"/>
        <pt x="326" y="458" on="0"/>
        <pt x="326" y="405" on="1"/>
        <pt x="326" y="312" on="0"/>
        <pt x="382" y="260" on="1"/>
        <pt x="436" y="209" on="0"/>
      </contour>
    </TTGlyph>
    <TTGlyph name="uni0038.subs" xMin="288" yMin="-435" xMax="1050" yMax="432">
      <contour>
        <pt x="596" y="-435" on="1"/>
        <pt x="451" y="-435" on="0"/>
        <pt x="288" y="-324" on="0"/>
        <pt x="288" y="-223" on="1"/>
        <pt x="288" y="-127" on="0"/>
        <pt x="431" y="5" on="0"/>
        <pt x="551" y="29" on="1"/>
        <pt x="473" y="45" on="0"/>
        <pt x="401" y="126" on="0"/>
        <pt x="401" y="183" on="1"/>
        <pt x="401" y="252" on="0"/>
        <pt x="498" y="365" on="0"/>
        <pt x="662" y="432" on="0"/>
        <pt x="762" y="432" on="1"/>
        <pt x="890" y="432" on="0"/>
        <pt x="1050" y="322" on="0"/>
        <pt x="1050" y="231" on="1"/>
        <pt x="1050" y="154" on="0"/>
        <pt x="926" y="36" on="0"/>
        <pt x="817" y="22" on="1"/>
        <pt x="981" y="-15" on="0"/>
        <pt x="981" y="-163" on="1"/>
        <pt x="981" y="-285" on="0"/>
        <pt x="768" y="-435" on="0"/>
      </contour>
      <contour>
        <pt x="707" y="87" on="1"/>
        <pt x="772" y="87" on="0"/>
        <pt x="865" y="155" on="0"/>
        <pt x="865" y="208" on="1"/>
        <pt x="865" y="251" on="0"/>
        <pt x="800" y="300" on="0"/>
        <pt x="744" y="300" on="1"/>
        <pt x="675" y="300" on="0"/>
        <pt x="587" y="232" on="0"/>
        <pt x="587" y="181" on="1"/>
        <pt x="587" y="139" on="0"/>
        <pt x="650" y="87" on="0"/>
      </contour>
      <contour>
        <pt x="616" y="-302" on="1"/>
        <pt x="695" y="-302" on="0"/>
        <pt x="795" y="-219" on="0"/>
        <pt x="795" y="-156" on="1"/>
        <pt x="795" y="-102" on="0"/>
        <pt x="719" y="-45" on="0"/>
        <pt x="656" y="-45" on="1"/>
        <pt x="574" y="-45" on="0"/>
        <pt x="474" y="-130" on="0"/>
        <pt x="474" y="-191" on="1"/>
        <pt x="474" y="-248" on="0"/>
        <pt x="558" y="-302" on="0"/>
      </contour>
    </TTGlyph>
    <TTGlyph name="uni0039" xMin="55" yMin="-31" xMax="1128" yMax="1520">
      <contour>
        <pt x="345" y="-31" on="1"/>
        <pt x="265" y="-31" on="0"/>
        <pt x="201" y="-16" on="1"/>
        <pt x="170" y="-9" on="0"/>
        <pt x="97" y="12" on="0"/>
        <pt x="55" y="29" on="1"/>
        <pt x="106" y="297" on="1"/>
        <pt x="136" y="276" on="0"/>
        <pt x="201" y="241" on="0"/>
        <pt x="237" y="230" on="1"/>
        <pt x="309" y="207" on="0"/>
        <pt x="379" y="207" on="1"/>
        <pt x="535" y="207" on="0"/>
        <pt x="641" y="316" on="1"/>
        <pt x="699" y="376" on="0"/>
        <pt x="772" y="536" on="0"/>
        <pt x="795" y="633" on="1"/>
        <pt x="732" y="567" on="0"/>
        <pt x="658" y="535" on="1"/>
        <pt x="585" y="502" on="0"/>
        <pt x="494" y="502" on="1"/>
        <pt x="402" y="502" on="0"/>
        <pt x="274" y="564" on="0"/>
        <pt x="232" y="612" on="1"/>
        <pt x="180" y="672" on="0"/>
        <pt x="135" y="829" on="0"/>
        <pt x="135" y="919" on="1"/>
        <pt x="135" y="1049" on="0"/>
        <pt x="217" y="1272" on="0"/>
        <pt x="286" y="1350" on="1"/>
        <pt x="361" y="1435" on="0"/>
        <pt x="565" y="1520" on="0"/>
        <pt x="685" y="1520" on="1"/>
        <pt x="794" y="1520" on="0"/>
        <pt x="961" y="1454" on="0"/>
        <pt x="1015" y="1394" on="1"/>
        <pt x="1128" y="1270" on="0"/>
        <pt x="1128" y="1008" on="1"/>
        <pt x="1128" y="874" on="0"/>
        <pt x="1073" y="594" on="0"/>
        <pt x="970" y="336" on="0"/>
        <pt x="899" y="238" on="1"/>
        <pt x="847" y="166" on="0"/>
        <pt x="734" y="70" on="0"/>
        <pt x="663" y="36" on="1"/>
        <pt x="590" y="1" on="0"/>
        <pt x="431" y="-31" on="0"/>
      </contour>
      <contour>
        <pt x="589" y="739" on="1"/>
        <pt x="695" y="739" on="0"/>
        <pt x="768" y="839" on="1"/>
        <pt x="842" y="942" on="0"/>
        <pt x="842" y="1078" on="1"/>
        <pt x="842" y="1175" on="0"/>
        <pt x="797" y="1227" on="1"/>
        <pt x="750" y="1280" on="0"/>
        <pt x="675" y="1280" on="1"/>
        <pt x="568" y="1280" on="0"/>
        <pt x="496" y="1179" on="1"/>
        <pt x="460" y="1128" on="0"/>
        <pt x="424" y="1002" on="0"/>
        <pt x="424" y="935" on="1"/>
        <pt x="424" y="881" on="0"/>
        <pt x="446" y="816" on="0"/>
        <pt x="469" y="790" on="1"/>
        <pt x="489" y="767" on="0"/>
        <pt x="546" y="739" on="0"/>
      </contour>
    </TTGlyph>
    <TTGlyph name="uni0039.subs" xMin="289" yMin="-435" xMax="1050" yMax="432">
      <contour>
        <pt x="496" y="-435" on="1"/>
        <pt x="448" y="-435" on="0"/>
        <pt x="351" y="-422" on="0"/>
        <pt x="289" y="-402" on="1"/>
        <pt x="325" y="-252" on="1"/>
        <pt x="411" y="-302" on="0"/>
        <pt x="519" y="-302" on="1"/>
        <pt x="746" y="-302" on="0"/>
        <pt x="814" y="-64" on="1"/>
        <pt x="728" y="-137" on="0"/>
        <pt x="600" y="-137" on="1"/>
        <pt x="482" y="-137" on="0"/>
        <pt x="346" y="-13" on="0"/>
        <pt x="346" y="98" on="1"/>
        <pt x="346" y="190" on="0"/>
        <pt x="441" y="342" on="0"/>
        <pt x="620" y="432" on="0"/>
        <pt x="744" y="432" on="1"/>
        <pt x="893" y="432" on="0"/>
        <pt x="1050" y="290" on="0"/>
        <pt x="1050" y="144" on="1"/>
        <pt x="1050" y="38" on="0"/>
        <pt x="966" y="-201" on="0"/>
        <pt x="888" y="-285" on="1"/>
        <pt x="816" y="-363" on="0"/>
        <pt x="621" y="-435" on="0"/>
      </contour>
      <contour>
        <pt x="665" y="-5" on="1"/>
        <pt x="745" y="-5" on="0"/>
        <pt x="847" y="112" on="0"/>
        <pt x="847" y="183" on="1"/>
        <pt x="847" y="241" on="0"/>
        <pt x="781" y="298" on="0"/>
        <pt x="730" y="298" on="1"/>
        <pt x="653" y="298" on="0"/>
        <pt x="551" y="184" on="0"/>
        <pt x="551" y="110" on="1"/>
        <pt x="551" y="52" on="0"/>
        <pt x="613" y="-5" on="0"/>
      </contour>
    </TTGlyph>
    <TTGlyph name="uni003A" xMin="467" yMin="35" xMax="941" yMax="1115">
      <contour>
        <pt x="734" y="747" on="1"/>
        <pt x="694" y="747" on="0"/>
        <pt x="638" y="773" on="0"/>
        <pt x="620" y="793" on="1"/>
        <pt x="603" y="813" on="0"/>
        <pt x="581" y="869" on="0"/>
        <pt x="581" y="904" on="1"/>
        <pt x="581" y="967" on="0"/>
        <pt x="652" y="1078" on="0"/>
        <pt x="716" y="1102" on="1"/>
        <pt x="733" y="1108" on="0"/>
        <pt x="768" y="1115" on="0"/>
        <pt x="788" y="1115" on="1"/>
        <pt x="860" y="1115" on="0"/>
        <pt x="903" y="1069" on="1"/>
        <pt x="924" y="1046" on="0"/>
        <pt x="941" y="983" on="0"/>
        <pt x="941" y="954" on="1"/>
        <pt x="941" y="931" on="0"/>
        <pt x="933" y="897" on="0"/>
        <pt x="927" y="882" on="1"/>
        <pt x="893" y="797" on="0"/>
        <pt x="806" y="761" on="1"/>
        <pt x="770" y="747" on="0"/>
      </contour>
      <contour>
        <pt x="620" y="35" on="1"/>
        <pt x="580" y="35" on="0"/>
        <pt x="524" y="61" on="0"/>
        <pt x="506" y="81" on="1"/>
        <pt x="489" y="101" on="0"/>
        <pt x="467" y="157" on="0"/>
        <pt x="467" y="192" on="1"/>
        <pt x="467" y="255" on="0"/>
        <pt x="538" y="366" on="0"/>
        <pt x="602" y="390" on="1"/>
        <pt x="619" y="396" on="0"/>
        <pt x="654" y="403" on="0"/>
        <pt x="674" y="403" on="1"/>
        <pt x="746" y="403" on="0"/>
        <pt x="789" y="357" on="1"/>
        <pt x="810" y="334" on="0"/>
        <pt x="827" y="271" on="0"/>
        <pt x="827" y="242" on="1"/>
        <pt x="827" y="219" on="0"/>
        <pt x="819" y="185" on="0"/>
        <pt x="813" y="170" on="1"/>
        <pt x="779" y="85" on="0"/>
        <pt x="692" y="49" on="1"/>
        <pt x="656" y="35" on="0"/>
      </contour>
    </TTGlyph>
    <TTGlyph name="uni003B" xMin="320" yMin="-480" xMax="942" yMax="1084">
      <contour>
        <pt x="724" y="698" on="1"/>
        <pt x="645" y="698" on="0"/>
        <pt x="598" y="751" on="1"/>
        <pt x="579" y="774" on="0"/>
        <pt x="564" y="832" on="0"/>
        <pt x="564" y="863" on="1"/>
        <pt x="564" y="868" on="0"/>
        <pt x="565" y="875" on="1"/>
        <pt x="567" y="895" on="1"/>
        <pt x="571" y="915" on="0"/>
        <pt x="582" y="951" on="0"/>
        <pt x="593" y="971" on="1"/>
        <pt x="612" y="1006" on="0"/>
        <pt x="641" y="1031" on="1"/>
        <pt x="670" y="1055" on="0"/>
        <pt x="738" y="1084" on="0"/>
        <pt x="780" y="1084" on="1"/>
        <pt x="858" y="1084" on="0"/>
        <pt x="905" y="1031" on="1"/>
        <pt x="942" y="986" on="0"/>
        <pt x="942" y="920" on="1"/>
        <pt x="942" y="915" on="0"/>
        <pt x="941" y="908" on="1"/>
        <pt x="939" y="889" on="1"/>
        <pt x="933" y="860" on="0"/>
        <pt x="921" y="828" on="0"/>
        <pt x="911" y="811" on="1"/>
        <pt x="893" y="779" on="0"/>
        <pt x="863" y="751" on="1"/>
        <pt x="846" y="736" on="0"/>
        <pt x="815" y="719" on="0"/>
        <pt x="798" y="711" on="1"/>
        <pt x="766" y="698" on="0"/>
      </contour>
      <contour>
        <pt x="320" y="-342" on="1"/>
        <pt x="333" y="-336" on="1"/>
        <pt x="462" y="-282" on="0"/>
        <pt x="614" y="-121" on="0"/>
        <pt x="639" y="-19" on="1"/>
        <pt x="632" y="-20" on="0"/>
        <pt x="619" y="-20" on="1"/>
        <pt x="540" y="-20" on="0"/>
        <pt x="497" y="26" on="1"/>
        <pt x="462" y="64" on="0"/>
        <pt x="462" y="119" on="1"/>
        <pt x="462" y="129" on="1"/>
        <pt x="462" y="135" on="0"/>
        <pt x="463" y="148" on="0"/>
        <pt x="464" y="156" on="1"/>
        <pt x="476" y="233" on="0"/>
        <pt x="537" y="282" on="1"/>
        <pt x="554" y="298" on="0"/>
        <pt x="579" y="307" on="1"/>
        <pt x="597" y="318" on="0"/>
        <pt x="624" y="323" on="1"/>
        <pt x="649" y="328" on="0"/>
        <pt x="673" y="328" on="1"/>
        <pt x="772" y="328" on="0"/>
        <pt x="816" y="248" on="1"/>
        <pt x="830" y="222" on="0"/>
        <pt x="843" y="161" on="0"/>
        <pt x="843" y="132" on="1"/>
        <pt x="843" y="93" on="0"/>
        <pt x="836" y="42" on="1"/>
        <pt x="810" y="-140" on="0"/>
        <pt x="687" y="-277" on="1"/>
        <pt x="656" y="-311" on="0"/>
        <pt x="587" y="-366" on="0"/>
        <pt x="547" y="-392" on="1"/>
        <pt x="497" y="-424" on="0"/>
        <pt x="413" y="-462" on="0"/>
        <pt x="376" y="-475" on="1"/>
        <pt x="360" y="-480" on="1"/>
      </contour>
    </TTGlyph>
    <TTGlyph name="uni003C" xMin="88" yMin="109" xMax="1145" yMax="1176">
      <contour>
        <pt x="88" y="524" on="1"/>
        <pt x="88" y="760" on="1"/>
        <pt x="1145" y="1176" on="1"/>
        <pt x="1145" y="926" on="1"/>
        <pt x="350" y="641" on="1"/>
        <pt x="1145" y="358" on="1"/>
        <pt x="1145" y="109" on="1"/>
      </contour>
    </TTGlyph>
    <TTGlyph name="uni003D" xMin="88" yMin="295" xMax="1145" yMax="987">
      <contour>
        <pt x="88" y="987" on="1"/>
        <pt x="1145" y="987" on="1"/>
        <pt x="1145" y="752" on="1"/>
        <pt x="88" y="752" on="1"/>
      </contour>
      <contour>
        <pt x="88" y="532" on="1"/>
        <pt x="1145" y="532" on="1"/>
        <pt x="1145" y="295" on="1"/>
        <pt x="88" y="295" on="1"/>
      </contour>
    </TTGlyph>
    <TTGlyph name="uni003E" xMin="88" yMin="109" xMax="1145" yMax="1176">
      <contour>
        <pt x="88" y="358" on="1"/>
        <pt x="883" y="641" on="1"/>
        <pt x="88" y="926" on="1"/>
        <pt x="88" y="1176" on="1"/>
        <pt x="1145" y="760" on="1"/>
        <pt x="1145" y="524" on="1"/>
        <pt x="88" y="109" on="1"/>
      </contour>
    </TTGlyph>
    <TTGlyph name="uni003F" xMin="378" yMin="-55" xMax="1207" yMax="1543">
      <contour>
        <pt x="531" y="585" on="1"/>
        <pt x="543" y="669" on="0"/>
        <pt x="586" y="737" on="1"/>
        <pt x="630" y="809" on="0"/>
        <pt x="728" y="891" on="1"/>
        <pt x="832" y="980" on="1"/>
        <pt x="907" y="1044" on="0"/>
        <pt x="932" y="1081" on="1"/>
        <pt x="961" y="1122" on="0"/>
        <pt x="968" y="1167" on="1"/>
        <pt x="969" y="1169" on="0"/>
        <pt x="969" y="1176" on="1"/>
        <pt x="970" y="1178" on="0"/>
        <pt x="970" y="1184" on="1"/>
        <pt x="970" y="1190" on="0"/>
        <pt x="971" y="1192" on="1"/>
        <pt x="971" y="1199" on="1"/>
        <pt x="971" y="1260" on="0"/>
        <pt x="930" y="1298" on="1"/>
        <pt x="904" y="1323" on="0"/>
        <pt x="864" y="1336" on="1"/>
        <pt x="825" y="1349" on="0"/>
        <pt x="775" y="1349" on="1"/>
        <pt x="732" y="1349" on="0"/>
        <pt x="647" y="1330" on="0"/>
        <pt x="606" y="1315" on="1"/>
        <pt x="557" y="1297" on="0"/>
        <pt x="458" y="1246" on="0"/>
        <pt x="406" y="1214" on="1"/>
        <pt x="378" y="1197" on="1"/>
        <pt x="414" y="1425" on="1"/>
        <pt x="421" y="1428" on="1"/>
        <pt x="434" y="1436" on="0"/>
        <pt x="477" y="1457" on="0"/>
        <pt x="490" y="1463" on="1"/>
        <pt x="506" y="1471" on="0"/>
        <pt x="543" y="1486" on="0"/>
        <pt x="559" y="1492" on="1"/>
        <pt x="576" y="1499" on="0"/>
        <pt x="604" y="1508" on="0"/>
        <pt x="627" y="1514" on="1"/>
        <pt x="675" y="1527" on="0"/>
        <pt x="773" y="1543" on="0"/>
        <pt x="833" y="1543" on="1"/>
        <pt x="938" y="1543" on="0"/>
        <pt x="1078" y="1491" on="0"/>
        <pt x="1127" y="1443" on="1"/>
        <pt x="1154" y="1417" on="0"/>
        <pt x="1171" y="1385" on="1"/>
        <pt x="1189" y="1354" on="0"/>
        <pt x="1198" y="1317" on="1"/>
        <pt x="1203" y="1299" on="0"/>
        <pt x="1207" y="1261" on="0"/>
        <pt x="1207" y="1247" on="1"/>
        <pt x="1207" y="1233" on="0"/>
        <pt x="1203" y="1190" on="0"/>
        <pt x="1201" y="1173" on="1"/>
        <pt x="1190" y="1095" on="0"/>
        <pt x="1142" y="1025" on="1"/>
        <pt x="1128" y="1004" on="0"/>
        <pt x="1100" y="971" on="0"/>
        <pt x="1081" y="951" on="1"/>
        <pt x="1058" y="926" on="0"/>
        <pt x="1016" y="888" on="0"/>
        <pt x="988" y="865" on="1"/>
        <pt x="886" y="779" on="1"/>
        <pt x="876" y="771" on="0"/>
        <pt x="834" y="732" on="0"/>
        <pt x="820" y="718" on="1"/>
        <pt x="798" y="696" on="0"/>
        <pt x="784" y="674" on="1"/>
        <pt x="772" y="656" on="0"/>
        <pt x="757" y="615" on="0"/>
        <pt x="754" y="597" on="1"/>
        <pt x="746" y="550" on="1"/>
        <pt x="732" y="457" on="1"/>
        <pt x="512" y="457" on="1"/>
      </contour>
      <contour>
        <pt x="556" y="-55" on="1"/>
        <pt x="521" y="-55" on="0"/>
        <pt x="473" y="-32" on="0"/>
        <pt x="456" y="-13" on="1"/>
        <pt x="440" y="5" on="0"/>
        <pt x="420" y="55" on="0"/>
        <pt x="420" y="83" on="1"/>
        <pt x="420" y="113" on="1"/>
        <pt x="420" y="134" on="0"/>
        <pt x="435" y="164" on="1"/>
        <pt x="452" y="198" on="0"/>
        <pt x="537" y="279" on="0"/>
        <pt x="607" y="279" on="1"/>
        <pt x="708" y="279" on="0"/>
        <pt x="738" y="192" on="1"/>
        <pt x="747" y="166" on="0"/>
        <pt x="747" y="136" on="1"/>
        <pt x="747" y="88" on="0"/>
        <pt x="713" y="20" on="0"/>
        <pt x="687" y="-3" on="1"/>
        <pt x="661" y="-27" on="0"/>
        <pt x="594" y="-55" on="0"/>
      </contour>
    </TTGlyph>
    <TTGlyph name="uni0040" xMin="-14" yMin="-319" xMax="1229" yMax="1395">
      <contour>
        <pt x="599" y="-319" on="1"/>
        <pt x="320" y="-319" on="0"/>
        <pt x="153" y="-128" on="1"/>
        <pt x="-14" y="63" on="0"/>
        <pt x="-14" y="387" on="1"/>
        <pt x="-14" y="548" on="0"/>
        <pt x="30" y="709" on="1"/>
        <pt x="78" y="875" on="0"/>
        <pt x="158" y="1004" on="1"/>
        <pt x="275" y="1191" on="0"/>
        <pt x="442" y="1293" on="1"/>
        <pt x="606" y="1395" on="0"/>
        <pt x="799" y="1395" on="1"/>
        <pt x="996" y="1395" on="0"/>
        <pt x="1112" y="1293" on="1"/>
        <pt x="1173" y="1239" on="0"/>
        <pt x="1229" y="1100" on="0"/>
        <pt x="1229" y="1023" on="1"/>
        <pt x="1229" y="1010" on="0"/>
        <pt x="1228" y="974" on="0"/>
        <pt x="1226" y="960" on="1"/>
        <pt x="1225" y="947" on="0"/>
        <pt x="1214" y="892" on="1"/>
        <pt x="1067" y="135" on="1"/>
        <pt x="870" y="135" on="1"/>
        <pt x="887" y="217" on="1"/>
        <pt x="845" y="169" on="0"/>
        <pt x="788" y="142" on="1"/>
        <pt x="753" y="125" on="0"/>
        <pt x="691" y="115" on="0"/>
        <pt x="664" y="115" on="1"/>
        <pt x="531" y="115" on="0"/>
        <pt x="451" y="203" on="1"/>
        <pt x="409" y="249" on="0"/>
        <pt x="371" y="373" on="0"/>
        <pt x="371" y="448" on="1"/>
        <pt x="371" y="557" on="0"/>
        <pt x="440" y="751" on="0"/>
        <pt x="498" y="821" on="1"/>
        <pt x="563" y="899" on="0"/>
        <pt x="726" y="973" on="0"/>
        <pt x="810" y="973" on="1"/>
        <pt x="880" y="973" on="0"/>
        <pt x="933" y="949" on="1"/>
        <pt x="960" y="936" on="0"/>
        <pt x="1001" y="898" on="0"/>
        <pt x="1014" y="877" on="1"/>
        <pt x="1024" y="910" on="0"/>
        <pt x="1032" y="981" on="0"/>
        <pt x="1032" y="1004" on="1"/>
        <pt x="1032" y="1102" on="0"/>
        <pt x="910" y="1206" on="0"/>
        <pt x="798" y="1206" on="1"/>
        <pt x="680" y="1206" on="0"/>
        <pt x="454" y="1078" on="0"/>
        <pt x="365" y="961" on="1"/>
        <pt x="314" y="894" on="0"/>
        <pt x="247" y="755" on="0"/>
        <pt x="226" y="690" on="1"/>
        <pt x="178" y="542" on="0"/>
        <pt x="178" y="388" on="1"/>
        <pt x="178" y="275" on="0"/>
        <pt x="234" y="81" on="0"/>
        <pt x="295" y="9" on="1"/>
        <pt x="412" y="-131" on="0"/>
        <pt x="614" y="-131" on="1"/>
        <pt x="774" y="-131" on="0"/>
        <pt x="936" y="-35" on="1"/>
        <pt x="999" y="-209" on="1"/>
        <pt x="893" y="-265" on="0"/>
        <pt x="797" y="-293" on="1"/>
        <pt x="754" y="-305" on="0"/>
        <pt x="653" y="-319" on="0"/>
      </contour>
      <contour>
        <pt x="724" y="301" on="1"/>
        <pt x="828" y="301" on="0"/>
        <pt x="898" y="392" on="1"/>
        <pt x="933" y="438" on="0"/>
        <pt x="969" y="556" on="0"/>
        <pt x="969" y="616" on="1"/>
        <pt x="969" y="699" on="0"/>
        <pt x="929" y="742" on="1"/>
        <pt x="888" y="786" on="0"/>
        <pt x="817" y="786" on="1"/>
        <pt x="713" y="786" on="0"/>
        <pt x="642" y="697" on="1"/>
        <pt x="607" y="652" on="0"/>
        <pt x="571" y="539" on="0"/>
        <pt x="571" y="481" on="1"/>
        <pt x="571" y="443" on="0"/>
        <pt x="588" y="373" on="0"/>
        <pt x="611" y="347" on="1"/>
        <pt x="628" y="327" on="0"/>
        <pt x="685" y="301" on="0"/>
      </contour>
    </TTGlyph>
    <TTGlyph name="uni0041" xMin="-113" yMin="0" xMax="1055" yMax="1493">
      <contour>
        <pt x="582" y="1493" on="1"/>
        <pt x="942" y="1493" on="1"/>
        <pt x="1055" y="0" on="1"/>
        <pt x="762" y="0" on="1"/>
        <pt x="748" y="369" on="1"/>
        <pt x="348" y="369" on="1"/>
        <pt x="186" y="0" on="1"/>
        <pt x="-113" y="0" on="1"/>
      </contour>
      <contour>
        <pt x="737" y="612" on="1"/>
        <pt x="717" y="1219" on="1"/>
        <pt x="453" y="612" on="1"/>
      </contour>
    </TTGlyph>
    <TTGlyph name="uni0042" xMin="-20" yMin="0" xMax="1178" yMax="1495">
      <contour>
        <pt x="270" y="1495" on="1"/>
        <pt x="752" y="1495" on="1"/>
        <pt x="961" y="1495" on="0"/>
        <pt x="1071" y="1412" on="1"/>
        <pt x="1178" y="1329" on="0"/>
        <pt x="1178" y="1164" on="1"/>
        <pt x="1178" y="1005" on="0"/>
        <pt x="988" y="805" on="0"/>
        <pt x="813" y="786" on="1"/>
        <pt x="952" y="775" on="0"/>
        <pt x="1029" y="696" on="1"/>
        <pt x="1106" y="618" on="0"/>
        <pt x="1106" y="480" on="1"/>
        <pt x="1106" y="380" on="0"/>
        <pt x="1068" y="284" on="1"/>
        <pt x="1031" y="191" on="0"/>
        <pt x="961" y="127" on="1"/>
        <pt x="887" y="60" on="0"/>
        <pt x="655" y="0" on="0"/>
        <pt x="461" y="0" on="1"/>
        <pt x="-20" y="0" on="1"/>
      </contour>
      <contour>
        <pt x="639" y="913" on="1"/>
        <pt x="761" y="913" on="0"/>
        <pt x="822" y="968" on="1"/>
        <pt x="883" y="1023" on="0"/>
        <pt x="883" y="1123" on="1"/>
        <pt x="883" y="1197" on="0"/>
        <pt x="840" y="1228" on="1"/>
        <pt x="796" y="1260" on="0"/>
        <pt x="707" y="1260" on="1"/>
        <pt x="510" y="1260" on="1"/>
        <pt x="442" y="913" on="1"/>
      </contour>
      <contour>
        <pt x="508" y="236" on="1"/>
        <pt x="665" y="236" on="0"/>
        <pt x="738" y="303" on="1"/>
        <pt x="811" y="370" on="0"/>
        <pt x="811" y="501" on="1"/>
        <pt x="811" y="555" on="0"/>
        <pt x="784" y="617" on="0"/>
        <pt x="758" y="637" on="1"/>
        <pt x="705" y="678" on="0"/>
        <pt x="594" y="678" on="1"/>
        <pt x="397" y="678" on="1"/>
        <pt x="311" y="236" on="1"/>
      </contour>
    </TTGlyph>
    <TTGlyph name="uni0043" xMin="105" yMin="-29" xMax="1193" yMax="1520">
      <contour>
        <pt x="598" y="-29" on="1"/>
        <pt x="488" y="-29" on="0"/>
        <pt x="297" y="37" on="0"/>
        <pt x="231" y="108" on="1"/>
        <pt x="164" y="180" on="0"/>
        <pt x="105" y="388" on="0"/>
        <pt x="105" y="517" on="1"/>
        <pt x="105" y="619" on="0"/>
        <pt x="140" y="839" on="0"/>
        <pt x="176" y="948" on="1"/>
        <pt x="247" y="1160" on="0"/>
        <pt x="367" y="1296" on="1"/>
        <pt x="415" y="1350" on="0"/>
        <pt x="527" y="1434" on="0"/>
        <pt x="594" y="1463" on="1"/>
        <pt x="724" y="1520" on="0"/>
        <pt x="877" y="1520" on="1"/>
        <pt x="958" y="1520" on="0"/>
        <pt x="1038" y="1502" on="1"/>
        <pt x="1070" y="1494" on="0"/>
        <pt x="1152" y="1468" on="0"/>
        <pt x="1193" y="1448" on="1"/>
        <pt x="1129" y="1120" on="1"/>
        <pt x="1080" y="1188" on="0"/>
        <pt x="1007" y="1223" on="1"/>
        <pt x="970" y="1240" on="0"/>
        <pt x="889" y="1257" on="0"/>
        <pt x="853" y="1257" on="1"/>
        <pt x="812" y="1257" on="0"/>
        <pt x="729" y="1235" on="0"/>
        <pt x="689" y="1210" on="1"/>
        <pt x="647" y="1184" on="0"/>
        <pt x="582" y="1111" on="0"/>
        <pt x="558" y="1074" on="1"/>
        <pt x="489" y="968" on="0"/>
        <pt x="447" y="819" on="1"/>
        <pt x="424" y="738" on="0"/>
        <pt x="404" y="597" on="0"/>
        <pt x="404" y="537" on="1"/>
        <pt x="404" y="466" on="0"/>
        <pt x="433" y="350" on="0"/>
        <pt x="467" y="308" on="1"/>
        <pt x="530" y="231" on="0"/>
        <pt x="651" y="231" on="1"/>
        <pt x="730" y="231" on="0"/>
        <pt x="810" y="265" on="1"/>
        <pt x="853" y="283" on="0"/>
        <pt x="938" y="336" on="0"/>
        <pt x="984" y="371" on="1"/>
        <pt x="920" y="43" on="1"/>
        <pt x="880" y="24" on="0"/>
        <pt x="800" y="-3" on="0"/>
        <pt x="763" y="-11" on="1"/>
        <pt x="682" y="-29" on="0"/>
      </contour>
    </TTGlyph>
    <TTGlyph name="uni0044" xMin="-8" yMin="0" xMax="1165" yMax="1493">
      <contour>
        <pt x="283" y="1493" on="1"/>
        <pt x="598" y="1493" on="1"/>
        <pt x="737" y="1493" on="0"/>
        <pt x="953" y="1433" on="0"/>
        <pt x="1025" y="1370" on="1"/>
        <pt x="1165" y="1248" on="0"/>
        <pt x="1165" y="996" on="1"/>
        <pt x="1165" y="960" on="0"/>
        <pt x="1159" y="861" on="0"/>
        <pt x="1152" y="814" on="1"/>
        <pt x="1146" y="773" on="0"/>
        <pt x="1123" y="652" on="0"/>
        <pt x="1111" y="603" on="1"/>
        <pt x="1091" y="522" on="0"/>
        <pt x="1043" y="392" on="0"/>
        <pt x="1021" y="347" on="1"/>
        <pt x="992" y="287" on="0"/>
        <pt x="926" y="200" on="0"/>
        <pt x="897" y="171" on="1"/>
        <pt x="806" y="81" on="0"/>
        <pt x="671" y="40" on="1"/>
        <pt x="545" y="0" on="0"/>
        <pt x="322" y="0" on="1"/>
        <pt x="-8" y="0" on="1"/>
      </contour>
      <contour>
        <pt x="434" y="266" on="1"/>
        <pt x="546" y="266" on="0"/>
        <pt x="623" y="310" on="1"/>
        <pt x="665" y="333" on="0"/>
        <pt x="721" y="399" on="0"/>
        <pt x="743" y="442" on="1"/>
        <pt x="767" y="490" on="0"/>
        <pt x="812" y="623" on="0"/>
        <pt x="828" y="695" on="1"/>
        <pt x="845" y="770" on="0"/>
        <pt x="860" y="909" on="0"/>
        <pt x="860" y="960" on="1"/>
        <pt x="860" y="1033" on="0"/>
        <pt x="829" y="1131" on="0"/>
        <pt x="798" y="1163" on="1"/>
        <pt x="735" y="1227" on="0"/>
        <pt x="606" y="1227" on="1"/>
        <pt x="524" y="1227" on="1"/>
        <pt x="338" y="266" on="1"/>
      </contour>
    </TTGlyph>
    <TTGlyph name="uni0045" xMin="29" yMin="0" xMax="1249" yMax="1493">
      <contour>
        <pt x="317" y="1493" on="1"/>
        <pt x="1249" y="1493" on="1"/>
        <pt x="1198" y="1233" on="1"/>
        <pt x="563" y="1233" on="1"/>
        <pt x="500" y="911" on="1"/>
        <pt x="1075" y="911" on="1"/>
        <pt x="1026" y="651" on="1"/>
        <pt x="451" y="651" on="1"/>
        <pt x="375" y="260" on="1"/>
        <pt x="1010" y="260" on="1"/>
        <pt x="958" y="0" on="1"/>
        <pt x="29" y="0" on="1"/>
      </contour>
    </TTGlyph>
    <TTGlyph name="uni0046" xMin="47" yMin="0" xMax="1268" yMax="1493">
      <contour>
        <pt x="338" y="1493" on="1"/>
        <pt x="1268" y="1493" on="1"/>
        <pt x="1217" y="1233" on="1"/>
        <pt x="582" y="1233" on="1"/>
        <pt x="520" y="901" on="1"/>
        <pt x="1098" y="901" on="1"/>
        <pt x="1047" y="641" on="1"/>
        <pt x="469" y="641" on="1"/>
        <pt x="342" y="0" on="1"/>
        <pt x="47" y="0" on="1"/>
      </contour>
    </TTGlyph>
    <TTGlyph name="uni0047" xMin="102" yMin="-29" xMax="1192" yMax="1520">
      <contour>
        <pt x="611" y="-29" on="1"/>
        <pt x="483" y="-29" on="0"/>
        <pt x="298" y="47" on="0"/>
        <pt x="235" y="115" on="1"/>
        <pt x="165" y="191" on="0"/>
        <pt x="102" y="401" on="0"/>
        <pt x="102" y="528" on="1"/>
        <pt x="102" y="624" on="0"/>
        <pt x="137" y="841" on="0"/>
        <pt x="174" y="949" on="1"/>
        <pt x="206" y="1043" on="0"/>
        <pt x="303" y="1221" on="0"/>
        <pt x="367" y="1294" on="1"/>
        <pt x="412" y="1345" on="0"/>
        <pt x="525" y="1432" on="0"/>
        <pt x="595" y="1463" on="1"/>
        <pt x="726" y="1520" on="0"/>
        <pt x="876" y="1520" on="1"/>
        <pt x="958" y="1520" on="0"/>
        <pt x="1037" y="1502" on="1"/>
        <pt x="1069" y="1494" on="0"/>
        <pt x="1151" y="1468" on="0"/>
        <pt x="1192" y="1448" on="1"/>
        <pt x="1126" y="1120" on="1"/>
        <pt x="1075" y="1188" on="0"/>
        <pt x="1006" y="1222" on="1"/>
        <pt x="934" y="1257" on="0"/>
        <pt x="857" y="1257" on="1"/>
        <pt x="818" y="1257" on="0"/>
        <pt x="750" y="1241" on="0"/>
        <pt x="721" y="1228" on="1"/>
        <pt x="691" y="1214" on="0"/>
        <pt x="634" y="1173" on="0"/>
        <pt x="605" y="1141" on="1"/>
        <pt x="582" y="1116" on="0"/>
        <pt x="546" y="1062" on="0"/>
        <pt x="529" y="1031" on="1"/>
        <pt x="513" y="1002" on="0"/>
        <pt x="483" y="934" on="0"/>
        <pt x="469" y="891" on="1"/>
        <pt x="437" y="795" on="0"/>
        <pt x="420" y="702" on="1"/>
        <pt x="403" y="605" on="0"/>
        <pt x="403" y="533" on="1"/>
        <pt x="403" y="451" on="0"/>
        <pt x="440" y="342" on="0"/>
        <pt x="467" y="309" on="1"/>
        <pt x="501" y="267" on="0"/>
        <pt x="594" y="231" on="0"/>
        <pt x="648" y="231" on="1"/>
        <pt x="685" y="231" on="0"/>
        <pt x="715" y="240" on="1"/>
        <pt x="727" y="243" on="0"/>
        <pt x="755" y="253" on="0"/>
        <pt x="770" y="264" on="1"/>
        <pt x="827" y="555" on="1"/>
        <pt x="621" y="555" on="1"/>
        <pt x="670" y="803" on="1"/>
        <pt x="1130" y="803" on="1"/>
        <pt x="991" y="94" on="1"/>
        <pt x="920" y="35" on="0"/>
        <pt x="823" y="3" on="1"/>
        <pt x="722" y="-29" on="0"/>
      </contour>
    </TTGlyph>
    <TTGlyph name="uni0048" xMin="-8" yMin="0" xMax="1241" yMax="1493">
      <contour>
        <pt x="283" y="1493" on="1"/>
        <pt x="578" y="1493" on="1"/>
        <pt x="467" y="924" on="1"/>
        <pt x="836" y="924" on="1"/>
        <pt x="946" y="1493" on="1"/>
        <pt x="1241" y="1493" on="1"/>
        <pt x="950" y="0" on="1"/>
        <pt x="655" y="0" on="1"/>
        <pt x="784" y="664" on="1"/>
        <pt x="416" y="664" on="1"/>
        <pt x="287" y="0" on="1"/>
        <pt x="-8" y="0" on="1"/>
      </contour>
    </TTGlyph>
    <TTGlyph name="uni0049" xMin="27" yMin="0" xMax="1206" yMax="1493">
      <contour>
        <pt x="78" y="260" on="1"/>
        <pt x="375" y="260" on="1"/>
        <pt x="563" y="1233" on="1"/>
        <pt x="266" y="1233" on="1"/>
        <pt x="317" y="1493" on="1"/>
        <pt x="1206" y="1493" on="1"/>
        <pt x="1155" y="1233" on="1"/>
        <pt x="858" y="1233" on="1"/>
        <pt x="670" y="260" on="1"/>
        <pt x="967" y="260" on="1"/>
        <pt x="915" y="0" on="1"/>
        <pt x="27" y="0" on="1"/>
      </contour>
    </TTGlyph>
    <TTGlyph name="uni004A" xMin="-20" yMin="-29" xMax="1153" yMax="1493">
      <contour>
        <pt x="411" y="-29" on="1"/>
        <pt x="298" y="-29" on="0"/>
        <pt x="192" y="-3" on="1"/>
        <pt x="146" y="8" on="0"/>
        <pt x="37" y="49" on="0"/>
        <pt x="-20" y="78" on="1"/>
        <pt x="45" y="422" on="1"/>
        <pt x="123" y="326" on="0"/>
        <pt x="212" y="279" on="1"/>
        <pt x="300" y="231" on="0"/>
        <pt x="406" y="231" on="1"/>
        <pt x="518" y="231" on="0"/>
        <pt x="575" y="285" on="1"/>
        <pt x="631" y="337" on="0"/>
        <pt x="659" y="479" on="1"/>
        <pt x="807" y="1233" on="1"/>
        <pt x="446" y="1233" on="1"/>
        <pt x="498" y="1493" on="1"/>
        <pt x="1153" y="1493" on="1"/>
        <pt x="954" y="479" on="1"/>
        <pt x="920" y="308" on="0"/>
        <pt x="880" y="223" on="1"/>
        <pt x="840" y="138" on="0"/>
        <pt x="702" y="28" on="0"/>
        <pt x="614" y="-1" on="1"/>
        <pt x="524" y="-29" on="0"/>
      </contour>
    </TTGlyph>
    <TTGlyph name="uni004B" xMin="-18" yMin="0" xMax="1368" yMax="1493">
      <contour>
        <pt x="270" y="1493" on="1"/>
        <pt x="565" y="1493" on="1"/>
        <pt x="457" y="936" on="1"/>
        <pt x="1020" y="1493" on="1"/>
        <pt x="1368" y="1493" on="1"/>
        <pt x="762" y="889" on="1"/>
        <pt x="1100" y="0" on="1"/>
        <pt x="797" y="0" on="1"/>
        <pt x="543" y="670" on="1"/>
        <pt x="371" y="500" on="1"/>
        <pt x="276" y="0" on="1"/>
        <pt x="-18" y="0" on="1"/>
      </contour>
    </TTGlyph>
    <TTGlyph name="uni004C" xMin="80" yMin="0" xMax="1057" yMax="1493">
      <contour>
        <pt x="371" y="1493" on="1"/>
        <pt x="666" y="1493" on="1"/>
        <pt x="426" y="260" on="1"/>
        <pt x="1057" y="260" on="1"/>
        <pt x="1006" y="0" on="1"/>
        <pt x="80" y="0" on="1"/>
      </contour>
    </TTGlyph>
    <TTGlyph name="uni004D" xMin="-57" yMin="0" xMax="1290" yMax="1493">
      <contour>
        <pt x="231" y="1493" on="1"/>
        <pt x="584" y="1493" on="1"/>
        <pt x="633" y="838" on="1"/>
        <pt x="930" y="1493" on="1"/>
        <pt x="1290" y="1493" on="1"/>
        <pt x="1001" y="0" on="1"/>
        <pt x="748" y="0" on="1"/>
        <pt x="985" y="1198" on="1"/>
        <pt x="692" y="543" on="1"/>
        <pt x="473" y="543" on="1"/>
        <pt x="426" y="1198" on="1"/>
        <pt x="195" y="0" on="1"/>
        <pt x="-57" y="0" on="1"/>
      </contour>
    </TTGlyph>
    <TTGlyph name="uni004E" xMin="-25" yMin="0" xMax="1255" yMax="1493">
      <contour>
        <pt x="266" y="1493" on="1"/>
        <pt x="569" y="1493" on="1"/>
        <pt x="784" y="408" on="1"/>
        <pt x="995" y="1493" on="1"/>
        <pt x="1255" y="1493" on="1"/>
        <pt x="967" y="0" on="1"/>
        <pt x="674" y="0" on="1"/>
        <pt x="449" y="1085" on="1"/>
        <pt x="238" y="0" on="1"/>
        <pt x="-25" y="0" on="1"/>
      </contour>
    </TTGlyph>
    <TTGlyph name="uni004F" xMin="61" yMin="-29" xMax="1171" yMax="1520">
      <contour>
        <pt x="500" y="-29" on="1"/>
        <pt x="398" y="-29" on="0"/>
        <pt x="231" y="33" on="0"/>
        <pt x="173" y="98" on="1"/>
        <pt x="114" y="164" on="0"/>
        <pt x="61" y="353" on="0"/>
        <pt x="61" y="476" on="1"/>
        <pt x="61" y="564" on="0"/>
        <pt x="86" y="767" on="0"/>
        <pt x="111" y="870" on="1"/>
        <pt x="137" y="979" on="0"/>
        <pt x="206" y="1157" on="0"/>
        <pt x="246" y="1228" on="1"/>
        <pt x="281" y="1291" on="0"/>
        <pt x="378" y="1403" on="0"/>
        <pt x="447" y="1445" on="1"/>
        <pt x="512" y="1484" on="0"/>
        <pt x="657" y="1520" on="0"/>
        <pt x="732" y="1520" on="1"/>
        <pt x="835" y="1520" on="0"/>
        <pt x="1001" y="1458" on="0"/>
        <pt x="1058" y="1395" on="1"/>
        <pt x="1122" y="1325" on="0"/>
        <pt x="1171" y="1130" on="0"/>
        <pt x="1171" y="1015" on="1"/>
        <pt x="1171" y="930" on="0"/>
        <pt x="1148" y="731" on="0"/>
        <pt x="1122" y="622" on="1"/>
        <pt x="1099" y="523" on="0"/>
        <pt x="1033" y="342" on="0"/>
        <pt x="988" y="264" on="1"/>
        <pt x="906" y="119" on="0"/>
        <pt x="786" y="46" on="1"/>
        <pt x="661" y="-29" on="0"/>
      </contour>
      <contour>
        <pt x="525" y="233" on="1"/>
        <pt x="586" y="233" on="0"/>
        <pt x="635" y="269" on="1"/>
        <pt x="685" y="305" on="0"/>
        <pt x="721" y="373" on="1"/>
        <pt x="734" y="397" on="0"/>
        <pt x="756" y="451" on="0"/>
        <pt x="767" y="483" on="1"/>
        <pt x="780" y="520" on="0"/>
        <pt x="798" y="584" on="0"/>
        <pt x="809" y="630" on="1"/>
        <pt x="824" y="693" on="0"/>
        <pt x="845" y="797" on="0"/>
        <pt x="853" y="846" on="1"/>
        <pt x="868" y="945" on="0"/>
        <pt x="868" y="1020" on="1"/>
        <pt x="868" y="1142" on="0"/>
        <pt x="828" y="1200" on="1"/>
        <pt x="788" y="1260" on="0"/>
        <pt x="708" y="1260" on="1"/>
        <pt x="674" y="1260" on="0"/>
        <pt x="619" y="1240" on="0"/>
        <pt x="598" y="1225" on="1"/>
        <pt x="550" y="1190" on="0"/>
        <pt x="512" y="1121" on="1"/>
        <pt x="498" y="1096" on="0"/>
        <pt x="479" y="1046" on="0"/>
        <pt x="469" y="1017" on="1"/>
        <pt x="455" y="974" on="0"/>
        <pt x="438" y="914" on="0"/>
        <pt x="424" y="860" on="1"/>
        <pt x="411" y="808" on="0"/>
        <pt x="388" y="697" on="0"/>
        <pt x="380" y="646" on="1"/>
        <pt x="365" y="546" on="0"/>
        <pt x="365" y="471" on="1"/>
        <pt x="365" y="350" on="0"/>
        <pt x="405" y="292" on="1"/>
        <pt x="445" y="233" on="0"/>
      </contour>
    </TTGlyph>
    <TTGlyph name="uni0050" xMin="14" yMin="0" xMax="1208" yMax="1493">
      <contour>
        <pt x="305" y="1493" on="1"/>
        <pt x="725" y="1493" on="1"/>
        <pt x="961" y="1493" on="0"/>
        <pt x="1085" y="1402" on="1"/>
        <pt x="1208" y="1310" on="0"/>
        <pt x="1208" y="1129" on="1"/>
        <pt x="1208" y="1023" on="0"/>
        <pt x="1172" y="909" on="1"/>
        <pt x="1153" y="850" on="0"/>
        <pt x="1106" y="765" on="0"/>
        <pt x="1077" y="731" on="1"/>
        <pt x="1000" y="641" on="0"/>
        <pt x="766" y="559" on="0"/>
        <pt x="582" y="559" on="1"/>
        <pt x="418" y="559" on="1"/>
        <pt x="309" y="0" on="1"/>
        <pt x="14" y="0" on="1"/>
      </contour>
      <contour>
        <pt x="610" y="807" on="1"/>
        <pt x="685" y="807" on="0"/>
        <pt x="794" y="843" on="0"/>
        <pt x="829" y="875" on="1"/>
        <pt x="865" y="909" on="0"/>
        <pt x="901" y="1010" on="0"/>
        <pt x="901" y="1071" on="1"/>
        <pt x="901" y="1170" on="0"/>
        <pt x="849" y="1207" on="1"/>
        <pt x="796" y="1245" on="0"/>
        <pt x="672" y="1245" on="1"/>
        <pt x="551" y="1245" on="1"/>
        <pt x="467" y="807" on="1"/>
      </contour>
    </TTGlyph>
    <TTGlyph name="uni0051" xMin="61" yMin="-350" xMax="1171" yMax="1520">
      <contour>
        <pt x="535" y="-29" on="1"/>
        <pt x="508" y="-29" on="1"/>
        <pt x="292" y="-29" on="0"/>
        <pt x="176" y="95" on="1"/>
        <pt x="116" y="160" on="0"/>
        <pt x="61" y="347" on="0"/>
        <pt x="61" y="474" on="1"/>
        <pt x="61" y="592" on="0"/>
        <pt x="108" y="871" on="0"/>
        <pt x="191" y="1134" on="0"/>
        <pt x="244" y="1226" on="1"/>
        <pt x="282" y="1292" on="0"/>
        <pt x="380" y="1404" on="0"/>
        <pt x="448" y="1445" on="1"/>
        <pt x="508" y="1481" on="0"/>
        <pt x="650" y="1520" on="0"/>
        <pt x="732" y="1520" on="1"/>
        <pt x="838" y="1520" on="0"/>
        <pt x="1001" y="1456" on="0"/>
        <pt x="1057" y="1397" on="1"/>
        <pt x="1119" y="1331" on="0"/>
        <pt x="1171" y="1150" on="0"/>
        <pt x="1171" y="1024" on="1"/>
        <pt x="1171" y="941" on="0"/>
        <pt x="1148" y="740" on="0"/>
        <pt x="1122" y="627" on="1"/>
        <pt x="1099" y="527" on="0"/>
        <pt x="1032" y="337" on="0"/>
        <pt x="990" y="262" on="1"/>
        <pt x="950" y="192" on="0"/>
        <pt x="902" y="141" on="1"/>
        <pt x="850" y="86" on="0"/>
        <pt x="776" y="39" on="1"/>
        <pt x="1050" y="-350" on="1"/>
        <pt x="706" y="-350" on="1"/>
      </contour>
      <contour>
        <pt x="525" y="233" on="1"/>
        <pt x="586" y="233" on="0"/>
        <pt x="635" y="269" on="1"/>
        <pt x="685" y="305" on="0"/>
        <pt x="721" y="373" on="1"/>
        <pt x="732" y="394" on="0"/>
        <pt x="756" y="452" on="0"/>
        <pt x="767" y="483" on="1"/>
        <pt x="788" y="543" on="0"/>
        <pt x="809" y="630" on="1"/>
        <pt x="825" y="695" on="0"/>
        <pt x="845" y="798" on="0"/>
        <pt x="853" y="846" on="1"/>
        <pt x="868" y="945" on="0"/>
        <pt x="868" y="1020" on="1"/>
        <pt x="868" y="1142" on="0"/>
        <pt x="828" y="1200" on="1"/>
        <pt x="788" y="1260" on="0"/>
        <pt x="708" y="1260" on="1"/>
        <pt x="674" y="1260" on="0"/>
        <pt x="619" y="1240" on="0"/>
        <pt x="598" y="1225" on="1"/>
        <pt x="550" y="1190" on="0"/>
        <pt x="512" y="1121" on="1"/>
        <pt x="498" y="1096" on="0"/>
        <pt x="479" y="1046" on="0"/>
        <pt x="469" y="1017" on="1"/>
        <pt x="455" y="974" on="0"/>
        <pt x="438" y="914" on="0"/>
        <pt x="424" y="860" on="1"/>
        <pt x="408" y="796" on="0"/>
        <pt x="388" y="695" on="0"/>
        <pt x="380" y="646" on="1"/>
        <pt x="365" y="546" on="0"/>
        <pt x="365" y="471" on="1"/>
        <pt x="365" y="350" on="0"/>
        <pt x="405" y="292" on="1"/>
        <pt x="445" y="233" on="0"/>
      </contour>
    </TTGlyph>
    <TTGlyph name="uni0052" xMin="3" yMin="0" xMax="1160" yMax="1493">
      <contour>
        <pt x="294" y="1493" on="1"/>
        <pt x="704" y="1493" on="1"/>
        <pt x="936" y="1493" on="0"/>
        <pt x="1048" y="1406" on="1"/>
        <pt x="1102" y="1364" on="0"/>
        <pt x="1160" y="1232" on="0"/>
        <pt x="1160" y="1133" on="1"/>
        <pt x="1160" y="953" on="0"/>
        <pt x="1062" y="838" on="1"/>
        <pt x="965" y="725" on="0"/>
        <pt x="783" y="705" on="1"/>
        <pt x="844" y="696" on="0"/>
        <pt x="878" y="660" on="1"/>
        <pt x="912" y="625" on="0"/>
        <pt x="939" y="537" on="1"/>
        <pt x="1103" y="0" on="1"/>
        <pt x="802" y="0" on="1"/>
        <pt x="696" y="376" on="1"/>
        <pt x="688" y="403" on="1"/>
        <pt x="657" y="504" on="0"/>
        <pt x="582" y="590" on="0"/>
        <pt x="530" y="590" on="1"/>
        <pt x="413" y="590" on="1"/>
        <pt x="298" y="0" on="1"/>
        <pt x="3" y="0" on="1"/>
      </contour>
      <contour>
        <pt x="585" y="838" on="1"/>
        <pt x="721" y="838" on="0"/>
        <pt x="790" y="902" on="1"/>
        <pt x="825" y="934" on="0"/>
        <pt x="859" y="1028" on="0"/>
        <pt x="859" y="1084" on="1"/>
        <pt x="859" y="1170" on="0"/>
        <pt x="813" y="1207" on="1"/>
        <pt x="766" y="1245" on="0"/>
        <pt x="675" y="1245" on="1"/>
        <pt x="542" y="1245" on="1"/>
        <pt x="462" y="838" on="1"/>
      </contour>
    </TTGlyph>
    <TTGlyph name="uni0053" xMin="4" yMin="-29" xMax="1159" yMax="1520">
      <contour>
        <pt x="469" y="-29" on="1"/>
        <pt x="411" y="-29" on="0"/>
        <pt x="300" y="-16" on="0"/>
        <pt x="243" y="-3" on="1"/>
        <pt x="128" y="24" on="0"/>
        <pt x="4" y="76" on="1"/>
        <pt x="63" y="381" on="1"/>
        <pt x="155" y="303" on="0"/>
        <pt x="266" y="258" on="1"/>
        <pt x="319" y="237" on="0"/>
        <pt x="422" y="215" on="0"/>
        <pt x="479" y="215" on="1"/>
        <pt x="611" y="215" on="0"/>
        <pt x="688" y="274" on="1"/>
        <pt x="764" y="332" on="0"/>
        <pt x="764" y="429" on="1"/>
        <pt x="764" y="496" on="0"/>
        <pt x="729" y="540" on="1"/>
        <pt x="694" y="585" on="0"/>
        <pt x="625" y="614" on="1"/>
        <pt x="506" y="664" on="1"/>
        <pt x="408" y="705" on="0"/>
        <pt x="286" y="779" on="0"/>
        <pt x="252" y="820" on="1"/>
        <pt x="223" y="855" on="0"/>
        <pt x="190" y="950" on="0"/>
        <pt x="190" y="1021" on="1"/>
        <pt x="190" y="1138" on="0"/>
        <pt x="279" y="1319" on="0"/>
        <pt x="351" y="1381" on="1"/>
        <pt x="429" y="1448" on="0"/>
        <pt x="642" y="1520" on="0"/>
        <pt x="770" y="1520" on="1"/>
        <pt x="974" y="1520" on="0"/>
        <pt x="1159" y="1438" on="1"/>
        <pt x="1102" y="1153" on="1"/>
        <pt x="1034" y="1215" on="0"/>
        <pt x="943" y="1247" on="1"/>
        <pt x="897" y="1263" on="0"/>
        <pt x="796" y="1278" on="0"/>
        <pt x="748" y="1278" on="1"/>
        <pt x="679" y="1278" on="0"/>
        <pt x="583" y="1248" on="0"/>
        <pt x="549" y="1222" on="1"/>
        <pt x="512" y="1193" on="0"/>
        <pt x="475" y="1120" on="0"/>
        <pt x="475" y="1087" on="1"/>
        <pt x="475" y="989" on="0"/>
        <pt x="659" y="910" on="1"/>
        <pt x="666" y="907" on="1"/>
        <pt x="782" y="856" on="1"/>
        <pt x="929" y="791" on="0"/>
        <pt x="996" y="700" on="1"/>
        <pt x="1063" y="609" on="0"/>
        <pt x="1063" y="473" on="1"/>
        <pt x="1063" y="366" on="0"/>
        <pt x="985" y="178" on="0"/>
        <pt x="903" y="108" on="1"/>
        <pt x="825" y="42" on="0"/>
        <pt x="606" y="-29" on="0"/>
      </contour>
    </TTGlyph>
    <TTGlyph name="uni0054" xMin="180" yMin="0" xMax="1288" yMax="1493">
      <contour>
        <pt x="563" y="1235" on="1"/>
        <pt x="180" y="1235" on="1"/>
        <pt x="229" y="1493" on="1"/>
        <pt x="1288" y="1493" on="1"/>
        <pt x="1237" y="1235" on="1"/>
        <pt x="858" y="1235" on="1"/>
        <pt x="618" y="0" on="1"/>
        <pt x="324" y="0" on="1"/>
      </contour>
    </TTGlyph>
    <TTGlyph name="uni0055" xMin="45" yMin="-29" xMax="1272" yMax="1493">
      <contour>
        <pt x="497" y="-29" on="1"/>
        <pt x="281" y="-29" on="0"/>
        <pt x="163" y="70" on="1"/>
        <pt x="101" y="121" on="0"/>
        <pt x="45" y="263" on="0"/>
        <pt x="45" y="354" on="1"/>
        <pt x="45" y="390" on="0"/>
        <pt x="51" y="444" on="1"/>
        <pt x="55" y="479" on="0"/>
        <pt x="60" y="516" on="0"/>
        <pt x="68" y="551" on="1"/>
        <pt x="252" y="1493" on="1"/>
        <pt x="547" y="1493" on="1"/>
        <pt x="348" y="477" on="1"/>
        <pt x="348" y="473" on="0"/>
        <pt x="347" y="471" on="1"/>
        <pt x="340" y="428" on="0"/>
        <pt x="340" y="400" on="1"/>
        <pt x="340" y="321" on="0"/>
        <pt x="432" y="231" on="0"/>
        <pt x="518" y="231" on="1"/>
        <pt x="625" y="231" on="0"/>
        <pt x="689" y="292" on="1"/>
        <pt x="753" y="353" on="0"/>
        <pt x="778" y="477" on="1"/>
        <pt x="977" y="1493" on="1"/>
        <pt x="1272" y="1493" on="1"/>
        <pt x="1087" y="551" on="1"/>
        <pt x="1070" y="466" on="0"/>
        <pt x="1036" y="335" on="0"/>
        <pt x="1012" y="279" on="1"/>
        <pt x="973" y="188" on="0"/>
        <pt x="908" y="123" on="1"/>
        <pt x="835" y="51" on="0"/>
        <pt x="729" y="10" on="1"/>
        <pt x="629" y="-29" on="0"/>
      </contour>
    </TTGlyph>
    <TTGlyph name="uni0056" xMin="203" yMin="0" xMax="1325" yMax="1493">
      <contour>
        <pt x="203" y="1493" on="1"/>
        <pt x="494" y="1493" on="1"/>
        <pt x="518" y="242" on="1"/>
        <pt x="1024" y="1493" on="1"/>
        <pt x="1325" y="1493" on="1"/>
        <pt x="680" y="0" on="1"/>
        <pt x="268" y="0" on="1"/>
      </contour>
    </TTGlyph>
    <TTGlyph name="uni0057" xMin="41" yMin="0" xMax="1370" yMax="1493">
      <contour>
        <pt x="143" y="1493" on="1"/>
        <pt x="397" y="1493" on="1"/>
        <pt x="289" y="397" on="1"/>
        <pt x="561" y="1106" on="1"/>
        <pt x="799" y="1106" on="1"/>
        <pt x="811" y="397" on="1"/>
        <pt x="1108" y="1493" on="1"/>
        <pt x="1370" y="1493" on="1"/>
        <pt x="909" y="0" on="1"/>
        <pt x="639" y="0" on="1"/>
        <pt x="627" y="784" on="1"/>
        <pt x="309" y="0" on="1"/>
        <pt x="41" y="0" on="1"/>
      </contour>
    </TTGlyph>
    <TTGlyph name="uni0058" xMin="-143" yMin="0" xMax="1343" yMax="1493">
      <contour>
        <pt x="471" y="782" on="1"/>
        <pt x="184" y="1493" on="1"/>
        <pt x="475" y="1493" on="1"/>
        <pt x="662" y="1030" on="1"/>
        <pt x="1022" y="1493" on="1"/>
        <pt x="1343" y="1493" on="1"/>
        <pt x="770" y="756" on="1"/>
        <pt x="1071" y="0" on="1"/>
        <pt x="780" y="0" on="1"/>
        <pt x="580" y="512" on="1"/>
        <pt x="180" y="0" on="1"/>
        <pt x="-143" y="0" on="1"/>
      </contour>
    </TTGlyph>
    <TTGlyph name="uni0059" xMin="145" yMin="0" xMax="1358" yMax="1493">
      <contour>
        <pt x="432" y="588" on="1"/>
        <pt x="145" y="1493" on="1"/>
        <pt x="438" y="1493" on="1"/>
        <pt x="625" y="844" on="1"/>
        <pt x="1036" y="1493" on="1"/>
        <pt x="1358" y="1493" on="1"/>
        <pt x="725" y="588" on="1"/>
        <pt x="610" y="0" on="1"/>
        <pt x="317" y="0" on="1"/>
      </contour>
    </TTGlyph>
    <TTGlyph name="uni005A" xMin="-43" yMin="0" xMax="1280" yMax="1493">
      <contour>
        <pt x="4" y="244" on="1"/>
        <pt x="862" y="1233" on="1"/>
        <pt x="219" y="1233" on="1"/>
        <pt x="271" y="1493" on="1"/>
        <pt x="1280" y="1493" on="1"/>
        <pt x="1231" y="1249" on="1"/>
        <pt x="355" y="260" on="1"/>
        <pt x="1055" y="260" on="1"/>
        <pt x="1004" y="0" on="1"/>
        <pt x="-43" y="0" on="1"/>
      </contour>
    </TTGlyph>
    <TTGlyph name="uni005B" xMin="342" yMin="-285" xMax="1104" yMax="1651">
      <contour>
        <pt x="649" y="1651" on="1"/>
        <pt x="1104" y="1651" on="1"/>
        <pt x="1076" y="1478" on="1"/>
        <pt x="836" y="1478" on="1"/>
        <pt x="585" y="-112" on="1"/>
        <pt x="825" y="-112" on="1"/>
        <pt x="797" y="-285" on="1"/>
        <pt x="342" y="-285" on="1"/>
      </contour>
    </TTGlyph>
    <TTGlyph name="uni005C" xMin="112" yMin="-190" xMax="1121" yMax="1493">
      <contour>
        <pt x="112" y="1493" on="1"/>
        <pt x="335" y="1493" on="1"/>
        <pt x="1121" y="-190" on="1"/>
        <pt x="898" y="-190" on="1"/>
      </contour>
    </TTGlyph>
    <TTGlyph name="uni005D" xMin="345" yMin="-285" xMax="1107" yMax="1650">
      <contour>
        <pt x="373" y="-112" on="1"/>
        <pt x="613" y="-112" on="1"/>
        <pt x="864" y="1477" on="1"/>
        <pt x="624" y="1477" on="1"/>
        <pt x="652" y="1650" on="1"/>
        <pt x="1107" y="1650" on="1"/>
        <pt x="800" y="-285" on="1"/>
        <pt x="345" y="-285" on="1"/>
      </contour>
    </TTGlyph>
    <TTGlyph name="uni005E" xMin="57" yMin="936" xMax="1176" yMax="1493">
      <contour>
        <pt x="494" y="1493" on="1"/>
        <pt x="739" y="1493" on="1"/>
        <pt x="1176" y="936" on="1"/>
        <pt x="934" y="936" on="1"/>
        <pt x="616" y="1237" on="1"/>
        <pt x="299" y="936" on="1"/>
        <pt x="57" y="936" on="1"/>
      </contour>
    </TTGlyph>
    <TTGlyph name="uni005F" xMin="94" yMin="-390" xMax="1138" yMax="-190">
      <contour>
        <pt x="94" y="-190" on="1"/>
        <pt x="1138" y="-190" on="1"/>
        <pt x="1138" y="-390" on="1"/>
        <pt x="94" y="-390" on="1"/>
      </contour>
    </TTGlyph>
    <TTGlyph name="uni0060" xMin="371" yMin="1262" xMax="864" yMax="1638">
      <contour>
        <pt x="371" y="1638" on="1"/>
        <pt x="655" y="1638" on="1"/>
        <pt x="864" y="1262" on="1"/>
        <pt x="666" y="1262" on="1"/>
      </contour>
    </TTGlyph>
    <TTGlyph name="uni0061" xMin="47" yMin="-29" xMax="1141" yMax="1147">
      <contour>
        <pt x="379" y="-29" on="1"/>
        <pt x="304" y="-29" on="0"/>
        <pt x="180" y="13" on="0"/>
        <pt x="135" y="58" on="1"/>
        <pt x="88" y="104" on="0"/>
        <pt x="47" y="228" on="0"/>
        <pt x="47" y="300" on="1"/>
        <pt x="47" y="510" on="0"/>
        <pt x="203" y="624" on="1"/>
        <pt x="358" y="737" on="0"/>
        <pt x="651" y="737" on="1"/>
        <pt x="844" y="737" on="1"/>
        <pt x="852" y="786" on="1"/>
        <pt x="854" y="800" on="0"/>
        <pt x="854" y="798" on="1"/>
        <pt x="854" y="815" on="1"/>
        <pt x="854" y="932" on="0"/>
        <pt x="657" y="932" on="1"/>
        <pt x="570" y="932" on="0"/>
        <pt x="470" y="904" on="1"/>
        <pt x="373" y="877" on="0"/>
        <pt x="248" y="819" on="1"/>
        <pt x="295" y="1069" on="1"/>
        <pt x="353" y="1089" on="0"/>
        <pt x="460" y="1118" on="0"/>
        <pt x="509" y="1128" on="1"/>
        <pt x="608" y="1147" on="0"/>
        <pt x="705" y="1147" on="1"/>
        <pt x="916" y="1147" on="0"/>
        <pt x="1029" y="1071" on="1"/>
        <pt x="1089" y="1031" on="0"/>
        <pt x="1141" y="918" on="0"/>
        <pt x="1141" y="845" on="1"/>
        <pt x="1141" y="808" on="0"/>
        <pt x="1134" y="756" on="1"/>
        <pt x="1130" y="727" on="0"/>
        <pt x="1122" y="678" on="0"/>
        <pt x="1114" y="639" on="1"/>
        <pt x="991" y="0" on="1"/>
        <pt x="729" y="0" on="1"/>
        <pt x="725" y="125" on="1"/>
        <pt x="655" y="46" on="0"/>
        <pt x="572" y="10" on="1"/>
        <pt x="528" y="-10" on="0"/>
        <pt x="430" y="-29" on="0"/>
      </contour>
      <contour>
        <pt x="501" y="172" on="1"/>
        <pt x="555" y="172" on="0"/>
        <pt x="654" y="218" on="0"/>
        <pt x="694" y="265" on="1"/>
        <pt x="732" y="309" on="0"/>
        <pt x="789" y="441" on="0"/>
        <pt x="803" y="530" on="1"/>
        <pt x="690" y="530" on="1"/>
        <pt x="517" y="530" on="0"/>
        <pt x="435" y="478" on="1"/>
        <pt x="352" y="426" on="0"/>
        <pt x="352" y="321" on="1"/>
        <pt x="352" y="253" on="0"/>
        <pt x="433" y="172" on="0"/>
      </contour>
    </TTGlyph>
    <TTGlyph name="uni0062" xMin="47" yMin="-29" xMax="1165" yMax="1556">
      <contour>
        <pt x="651" y="-29" on="1"/>
        <pt x="540" y="-29" on="0"/>
        <pt x="398" y="94" on="0"/>
        <pt x="381" y="207" on="1"/>
        <pt x="311" y="0" on="1"/>
        <pt x="47" y="0" on="1"/>
        <pt x="350" y="1556" on="1"/>
        <pt x="643" y="1556" on="1"/>
        <pt x="524" y="952" on="1"/>
        <pt x="587" y="1048" on="0"/>
        <pt x="670" y="1098" on="1"/>
        <pt x="753" y="1147" on="0"/>
        <pt x="848" y="1147" on="1"/>
        <pt x="996" y="1147" on="0"/>
        <pt x="1081" y="1038" on="1"/>
        <pt x="1126" y="981" on="0"/>
        <pt x="1165" y="825" on="0"/>
        <pt x="1165" y="732" on="1"/>
        <pt x="1165" y="674" on="0"/>
        <pt x="1150" y="544" on="0"/>
        <pt x="1135" y="479" on="1"/>
        <pt x="1122" y="425" on="0"/>
        <pt x="1079" y="301" on="0"/>
        <pt x="1049" y="244" on="1"/>
        <pt x="980" y="116" on="0"/>
        <pt x="772" y="-29" on="0"/>
      </contour>
      <contour>
        <pt x="599" y="209" on="1"/>
        <pt x="656" y="209" on="0"/>
        <pt x="755" y="284" on="0"/>
        <pt x="792" y="351" on="1"/>
        <pt x="830" y="420" on="0"/>
        <pt x="870" y="593" on="0"/>
        <pt x="870" y="682" on="1"/>
        <pt x="870" y="797" on="0"/>
        <pt x="829" y="851" on="1"/>
        <pt x="787" y="907" on="0"/>
        <pt x="714" y="907" on="1"/>
        <pt x="661" y="907" on="0"/>
        <pt x="558" y="841" on="0"/>
        <pt x="516" y="769" on="1"/>
        <pt x="477" y="702" on="0"/>
        <pt x="434" y="530" on="0"/>
        <pt x="434" y="444" on="1"/>
        <pt x="434" y="381" on="0"/>
        <pt x="457" y="297" on="0"/>
        <pt x="478" y="269" on="1"/>
        <pt x="523" y="209" on="0"/>
      </contour>
    </TTGlyph>
    <TTGlyph name="uni0063" xMin="135" yMin="-29" xMax="1142" yMax="1147">
      <contour>
        <pt x="621" y="-29" on="1"/>
        <pt x="516" y="-29" on="0"/>
        <pt x="332" y="28" on="0"/>
        <pt x="263" y="94" on="1"/>
        <pt x="194" y="160" on="0"/>
        <pt x="135" y="341" on="0"/>
        <pt x="135" y="448" on="1"/>
        <pt x="135" y="589" on="0"/>
        <pt x="229" y="855" on="0"/>
        <pt x="318" y="950" on="1"/>
        <pt x="501" y="1147" on="0"/>
        <pt x="797" y="1147" on="1"/>
        <pt x="847" y="1147" on="0"/>
        <pt x="943" y="1136" on="0"/>
        <pt x="981" y="1127" on="1"/>
        <pt x="1064" y="1107" on="0"/>
        <pt x="1142" y="1063" on="1"/>
        <pt x="1089" y="795" on="1"/>
        <pt x="1028" y="853" on="0"/>
        <pt x="960" y="881" on="1"/>
        <pt x="895" y="909" on="0"/>
        <pt x="814" y="909" on="1"/>
        <pt x="725" y="909" on="0"/>
        <pt x="587" y="843" on="0"/>
        <pt x="538" y="786" on="1"/>
        <pt x="484" y="723" on="0"/>
        <pt x="431" y="559" on="0"/>
        <pt x="431" y="466" on="1"/>
        <pt x="431" y="333" on="0"/>
        <pt x="554" y="209" on="0"/>
        <pt x="675" y="209" on="1"/>
        <pt x="746" y="209" on="0"/>
        <pt x="827" y="235" on="1"/>
        <pt x="864" y="247" on="0"/>
        <pt x="947" y="284" on="0"/>
        <pt x="997" y="313" on="1"/>
        <pt x="941" y="37" on="1"/>
        <pt x="902" y="20" on="0"/>
        <pt x="823" y="-5" on="0"/>
        <pt x="783" y="-13" on="1"/>
        <pt x="702" y="-29" on="0"/>
      </contour>
    </TTGlyph>
    <TTGlyph name="uni0064" xMin="66" yMin="-29" xMax="1272" yMax="1556">
      <contour>
        <pt x="382" y="-29" on="1"/>
        <pt x="238" y="-29" on="0"/>
        <pt x="152" y="81" on="1"/>
        <pt x="109" y="136" on="0"/>
        <pt x="66" y="285" on="0"/>
        <pt x="66" y="386" on="1"/>
        <pt x="66" y="464" on="0"/>
        <pt x="96" y="640" on="0"/>
        <pt x="149" y="808" on="0"/>
        <pt x="184" y="874" on="1"/>
        <pt x="251" y="1000" on="0"/>
        <pt x="358" y="1076" on="1"/>
        <pt x="461" y="1149" on="0"/>
        <pt x="581" y="1149" on="1"/>
        <pt x="692" y="1149" on="0"/>
        <pt x="766" y="1086" on="1"/>
        <pt x="800" y="1057" on="0"/>
        <pt x="846" y="969" on="0"/>
        <pt x="854" y="911" on="1"/>
        <pt x="979" y="1556" on="1"/>
        <pt x="1272" y="1556" on="1"/>
        <pt x="969" y="0" on="1"/>
        <pt x="707" y="0" on="1"/>
        <pt x="709" y="166" on="1"/>
        <pt x="643" y="70" on="0"/>
        <pt x="561" y="21" on="1"/>
        <pt x="478" y="-29" on="0"/>
      </contour>
      <contour>
        <pt x="517" y="211" on="1"/>
        <pt x="572" y="206" on="0"/>
        <pt x="675" y="283" on="0"/>
        <pt x="756" y="419" on="0"/>
        <pt x="802" y="588" on="0"/>
        <pt x="799" y="674" on="1"/>
        <pt x="799" y="740" on="0"/>
        <pt x="776" y="821" on="0"/>
        <pt x="754" y="850" on="1"/>
        <pt x="709" y="909" on="0"/>
        <pt x="634" y="909" on="1"/>
        <pt x="522" y="909" on="0"/>
        <pt x="442" y="768" on="1"/>
        <pt x="402" y="696" on="0"/>
        <pt x="362" y="524" on="0"/>
        <pt x="362" y="436" on="1"/>
        <pt x="362" y="372" on="0"/>
        <pt x="383" y="295" on="0"/>
        <pt x="404" y="267" on="1"/>
        <pt x="446" y="211" on="0"/>
      </contour>
    </TTGlyph>
    <TTGlyph name="uni0065" xMin="76" yMin="-29" xMax="1155" yMax="1149">
      <contour>
        <pt x="583" y="-29" on="1"/>
        <pt x="332" y="-29" on="0"/>
        <pt x="205" y="89" on="1"/>
        <pt x="76" y="208" on="0"/>
        <pt x="76" y="438" on="1"/>
        <pt x="76" y="574" on="0"/>
        <pt x="120" y="709" on="1"/>
        <pt x="165" y="841" on="0"/>
        <pt x="244" y="938" on="1"/>
        <pt x="330" y="1042" on="0"/>
        <pt x="444" y="1095" on="1"/>
        <pt x="560" y="1149" on="0"/>
        <pt x="694" y="1149" on="1"/>
        <pt x="796" y="1149" on="0"/>
        <pt x="968" y="1089" on="0"/>
        <pt x="1030" y="1029" on="1"/>
        <pt x="1088" y="973" on="0"/>
        <pt x="1155" y="815" on="0"/>
        <pt x="1155" y="713" on="1"/>
        <pt x="1155" y="693" on="0"/>
        <pt x="1152" y="633" on="0"/>
        <pt x="1149" y="607" on="1"/>
        <pt x="1147" y="587" on="0"/>
        <pt x="1135" y="506" on="0"/>
        <pt x="1128" y="465" on="1"/>
        <pt x="369" y="465" on="1"/>
        <pt x="367" y="457" on="0"/>
        <pt x="366" y="441" on="0"/>
        <pt x="365" y="433" on="1"/>
        <pt x="362" y="403" on="1"/>
        <pt x="362" y="348" on="0"/>
        <pt x="398" y="277" on="0"/>
        <pt x="429" y="254" on="1"/>
        <pt x="496" y="203" on="0"/>
        <pt x="629" y="203" on="1"/>
        <pt x="737" y="203" on="0"/>
        <pt x="843" y="234" on="1"/>
        <pt x="951" y="266" on="0"/>
        <pt x="1044" y="324" on="1"/>
        <pt x="993" y="55" on="1"/>
        <pt x="898" y="13" on="0"/>
        <pt x="795" y="-8" on="1"/>
        <pt x="692" y="-29" on="0"/>
      </contour>
      <contour>
        <pt x="876" y="684" on="1"/>
        <pt x="881" y="698" on="0"/>
        <pt x="882" y="712" on="1"/>
        <pt x="883" y="719" on="0"/>
        <pt x="883" y="731" on="0"/>
        <pt x="883" y="737" on="1"/>
        <pt x="883" y="822" on="0"/>
        <pt x="832" y="871" on="1"/>
        <pt x="783" y="920" on="0"/>
        <pt x="692" y="920" on="1"/>
        <pt x="490" y="920" on="0"/>
        <pt x="410" y="684" on="1"/>
      </contour>
    </TTGlyph>
    <TTGlyph name="uni0066" xMin="183" yMin="0" xMax="1220" yMax="1556">
      <contour>
        <pt x="456" y="895" on="1"/>
        <pt x="183" y="895" on="1"/>
        <pt x="226" y="1120" on="1"/>
        <pt x="499" y="1120" on="1"/>
        <pt x="515" y="1198" on="1"/>
        <pt x="538" y="1312" on="0"/>
        <pt x="605" y="1448" on="0"/>
        <pt x="649" y="1483" on="1"/>
        <pt x="695" y="1519" on="0"/>
        <pt x="856" y="1556" on="0"/>
        <pt x="980" y="1556" on="1"/>
        <pt x="1220" y="1556" on="1"/>
        <pt x="1177" y="1331" on="1"/>
        <pt x="947" y="1331" on="1"/>
        <pt x="882" y="1331" on="0"/>
        <pt x="853" y="1304" on="1"/>
        <pt x="825" y="1276" on="0"/>
        <pt x="808" y="1196" on="1"/>
        <pt x="792" y="1120" on="1"/>
        <pt x="1136" y="1120" on="1"/>
        <pt x="1093" y="895" on="1"/>
        <pt x="749" y="895" on="1"/>
        <pt x="575" y="0" on="1"/>
        <pt x="282" y="0" on="1"/>
      </contour>
    </TTGlyph>
    <TTGlyph name="uni0067" xMin="18" yMin="-424" xMax="1190" yMax="1151">
      <contour>
        <pt x="386" y="-424" on="1"/>
        <pt x="288" y="-424" on="0"/>
        <pt x="196" y="-409" on="1"/>
        <pt x="102" y="-392" on="0"/>
        <pt x="18" y="-365" on="1"/>
        <pt x="72" y="-100" on="1"/>
        <pt x="146" y="-145" on="0"/>
        <pt x="230" y="-168" on="1"/>
        <pt x="312" y="-190" on="0"/>
        <pt x="396" y="-190" on="1"/>
        <pt x="525" y="-190" on="0"/>
        <pt x="595" y="-132" on="1"/>
        <pt x="634" y="-100" on="0"/>
        <pt x="676" y="-9" on="0"/>
        <pt x="688" y="51" on="1"/>
        <pt x="715" y="184" on="1"/>
        <pt x="661" y="101" on="0"/>
        <pt x="584" y="59" on="1"/>
        <pt x="508" y="16" on="0"/>
        <pt x="409" y="16" on="1"/>
        <pt x="333" y="16" on="0"/>
        <pt x="210" y="66" on="0"/>
        <pt x="161" y="121" on="1"/>
        <pt x="68" y="226" on="0"/>
        <pt x="68" y="407" on="1"/>
        <pt x="68" y="540" on="0"/>
        <pt x="110" y="683" on="1"/>
        <pt x="133" y="759" on="0"/>
        <pt x="191" y="882" on="0"/>
        <pt x="225" y="932" on="1"/>
        <pt x="296" y="1035" on="0"/>
        <pt x="496" y="1151" on="0"/>
        <pt x="602" y="1151" on="1"/>
        <pt x="707" y="1151" on="0"/>
        <pt x="841" y="1041" on="0"/>
        <pt x="862" y="938" on="1"/>
        <pt x="926" y="1120" on="1"/>
        <pt x="1190" y="1120" on="1"/>
        <pt x="987" y="84" on="1"/>
        <pt x="961" y="-51" on="0"/>
        <pt x="869" y="-248" on="0"/>
        <pt x="796" y="-309" on="1"/>
        <pt x="660" y="-424" on="0"/>
      </contour>
      <contour>
        <pt x="521" y="246" on="1"/>
        <pt x="635" y="246" on="0"/>
        <pt x="720" y="379" on="1"/>
        <pt x="762" y="446" on="0"/>
        <pt x="803" y="608" on="0"/>
        <pt x="803" y="689" on="1"/>
        <pt x="803" y="740" on="0"/>
        <pt x="785" y="825" on="0"/>
        <pt x="762" y="855" on="1"/>
        <pt x="740" y="884" on="0"/>
        <pt x="682" y="909" on="0"/>
        <pt x="649" y="909" on="1"/>
        <pt x="532" y="909" on="0"/>
        <pt x="450" y="777" on="1"/>
        <pt x="408" y="711" on="0"/>
        <pt x="367" y="546" on="0"/>
        <pt x="367" y="465" on="1"/>
        <pt x="367" y="414" on="0"/>
        <pt x="385" y="330" on="0"/>
        <pt x="407" y="301" on="1"/>
        <pt x="447" y="246" on="0"/>
      </contour>
    </TTGlyph>
    <TTGlyph name="uni0068" xMin="59" yMin="0" xMax="1120" yMax="1556">
      <contour>
        <pt x="362" y="1556" on="1"/>
        <pt x="653" y="1556" on="1"/>
        <pt x="537" y="952" on="1"/>
        <pt x="562" y="1000" on="0"/>
        <pt x="630" y="1072" on="0"/>
        <pt x="669" y="1096" on="1"/>
        <pt x="752" y="1147" on="0"/>
        <pt x="857" y="1147" on="1"/>
        <pt x="982" y="1147" on="0"/>
        <pt x="1051" y="1078" on="1"/>
        <pt x="1120" y="1009" on="0"/>
        <pt x="1120" y="880" on="1"/>
        <pt x="1120" y="866" on="0"/>
        <pt x="1118" y="832" on="0"/>
        <pt x="1116" y="813" on="1"/>
        <pt x="1114" y="801" on="0"/>
        <pt x="1107" y="751" on="0"/>
        <pt x="1102" y="728" on="1"/>
        <pt x="961" y="0" on="1"/>
        <pt x="668" y="0" on="1"/>
        <pt x="801" y="682" on="1"/>
        <pt x="803" y="690" on="0"/>
        <pt x="809" y="733" on="0"/>
        <pt x="809" y="735" on="1"/>
        <pt x="810" y="748" on="0"/>
        <pt x="811" y="774" on="0"/>
        <pt x="811" y="784" on="1"/>
        <pt x="811" y="845" on="0"/>
        <pt x="782" y="877" on="1"/>
        <pt x="754" y="907" on="0"/>
        <pt x="699" y="907" on="1"/>
        <pt x="654" y="907" on="0"/>
        <pt x="584" y="869" on="0"/>
        <pt x="557" y="836" on="1"/>
        <pt x="499" y="765" on="0"/>
        <pt x="473" y="629" on="1"/>
        <pt x="352" y="0" on="1"/>
        <pt x="59" y="0" on="1"/>
      </contour>
    </TTGlyph>
    <TTGlyph name="uni0069" xMin="260" yMin="-8" xMax="1074" yMax="1665">
      <contour>
        <pt x="615" y="1323" on="1"/>
        <pt x="587" y="1323" on="0"/>
        <pt x="587" y="1348" on="1"/>
        <pt x="587" y="1354" on="0"/>
        <pt x="588" y="1356" on="1"/>
        <pt x="644" y="1638" on="1"/>
        <pt x="648" y="1665" on="0"/>
        <pt x="676" y="1665" on="1"/>
        <pt x="909" y="1665" on="1"/>
        <pt x="937" y="1665" on="0"/>
        <pt x="937" y="1640" on="1"/>
        <pt x="937" y="1634" on="0"/>
        <pt x="936" y="1632" on="1"/>
        <pt x="880" y="1350" on="1"/>
        <pt x="876" y="1323" on="0"/>
        <pt x="848" y="1323" on="1"/>
      </contour>
      <contour>
        <pt x="732" y="-8" on="1"/>
        <pt x="525" y="-8" on="0"/>
        <pt x="442" y="49" on="1"/>
        <pt x="395" y="80" on="0"/>
        <pt x="357" y="171" on="0"/>
        <pt x="357" y="229" on="1"/>
        <pt x="357" y="246" on="0"/>
        <pt x="360" y="275" on="0"/>
        <pt x="362" y="292" on="1"/>
        <pt x="367" y="332" on="0"/>
        <pt x="376" y="371" on="1"/>
        <pt x="496" y="895" on="1"/>
        <pt x="260" y="895" on="1"/>
        <pt x="303" y="1120" on="1"/>
        <pt x="831" y="1120" on="1"/>
        <pt x="665" y="357" on="1"/>
        <pt x="659" y="333" on="0"/>
        <pt x="661" y="330" on="0"/>
        <pt x="659" y="321" on="1"/>
        <pt x="657" y="313" on="0"/>
        <pt x="656" y="301" on="0"/>
        <pt x="656" y="295" on="1"/>
        <pt x="656" y="256" on="0"/>
        <pt x="687" y="236" on="1"/>
        <pt x="718" y="217" on="0"/>
        <pt x="796" y="217" on="1"/>
        <pt x="1074" y="217" on="1"/>
        <pt x="1029" y="-8" on="1"/>
      </contour>
    </TTGlyph>
    <TTGlyph name="uni006A" xMin="-23" yMin="-424" xMax="1090" yMax="1665">
      <contour>
        <pt x="763" y="1323" on="1"/>
        <pt x="729" y="1323" on="0"/>
        <pt x="736" y="1356" on="1"/>
        <pt x="791" y="1638" on="1"/>
        <pt x="796" y="1665" on="0"/>
        <pt x="823" y="1665" on="1"/>
        <pt x="1056" y="1665" on="1"/>
        <pt x="1090" y="1665" on="0"/>
        <pt x="1083" y="1632" on="1"/>
        <pt x="1028" y="1350" on="1"/>
        <pt x="1024" y="1323" on="0"/>
        <pt x="996" y="1323" on="1"/>
      </contour>
      <contour>
        <pt x="22" y="-199" on="1"/>
        <pt x="253" y="-199" on="1"/>
        <pt x="353" y="-199" on="0"/>
        <pt x="404" y="-146" on="1"/>
        <pt x="433" y="-116" on="0"/>
        <pt x="468" y="-18" on="0"/>
        <pt x="480" y="43" on="1"/>
        <pt x="646" y="895" on="1"/>
        <pt x="349" y="895" on="1"/>
        <pt x="392" y="1120" on="1"/>
        <pt x="982" y="1120" on="1"/>
        <pt x="773" y="43" on="1"/>
        <pt x="753" y="-57" on="0"/>
        <pt x="722" y="-164" on="0"/>
        <pt x="709" y="-196" on="1"/>
        <pt x="679" y="-267" on="0"/>
        <pt x="632" y="-314" on="1"/>
        <pt x="602" y="-344" on="0"/>
        <pt x="530" y="-385" on="0"/>
        <pt x="491" y="-398" on="1"/>
        <pt x="451" y="-411" on="0"/>
        <pt x="350" y="-424" on="0"/>
        <pt x="284" y="-424" on="1"/>
        <pt x="-23" y="-424" on="1"/>
      </contour>
    </TTGlyph>
    <TTGlyph name="uni006B" xMin="62" yMin="0" xMax="1278" yMax="1556">
      <contour>
        <pt x="363" y="1556" on="1"/>
        <pt x="656" y="1556" on="1"/>
        <pt x="504" y="774" on="1"/>
        <pt x="908" y="1120" on="1"/>
        <pt x="1278" y="1120" on="1"/>
        <pt x="773" y="702" on="1"/>
        <pt x="1086" y="0" on="1"/>
        <pt x="775" y="0" on="1"/>
        <pt x="553" y="524" on="1"/>
        <pt x="437" y="428" on="1"/>
        <pt x="355" y="0" on="1"/>
        <pt x="62" y="0" on="1"/>
      </contour>
    </TTGlyph>
    <TTGlyph name="uni006C" xMin="231" yMin="-10" xMax="1032" yMax="1556">
      <contour>
        <pt x="690" y="-10" on="1"/>
        <pt x="483" y="-10" on="0"/>
        <pt x="400" y="47" on="1"/>
        <pt x="359" y="74" on="0"/>
        <pt x="315" y="161" on="0"/>
        <pt x="315" y="226" on="1"/>
        <pt x="315" y="257" on="0"/>
        <pt x="320" y="290" on="1"/>
        <pt x="322" y="300" on="0"/>
        <pt x="329" y="347" on="0"/>
        <pt x="334" y="369" on="1"/>
        <pt x="537" y="1331" on="1"/>
        <pt x="231" y="1331" on="1"/>
        <pt x="274" y="1556" on="1"/>
        <pt x="872" y="1556" on="1"/>
        <pt x="623" y="355" on="1"/>
        <pt x="617" y="331" on="0"/>
        <pt x="619" y="326" on="0"/>
        <pt x="617" y="319" on="1"/>
        <pt x="615" y="311" on="0"/>
        <pt x="614" y="299" on="0"/>
        <pt x="614" y="293" on="1"/>
        <pt x="614" y="254" on="0"/>
        <pt x="645" y="234" on="1"/>
        <pt x="676" y="215" on="0"/>
        <pt x="754" y="215" on="1"/>
        <pt x="1032" y="215" on="1"/>
        <pt x="987" y="-10" on="1"/>
      </contour>
    </TTGlyph>
    <TTGlyph name="uni006D" xMin="-33" yMin="0" xMax="1206" yMax="1147">
      <contour>
        <pt x="184" y="1120" on="1"/>
        <pt x="376" y="1120" on="1"/>
        <pt x="375" y="1004" on="1"/>
        <pt x="415" y="1072" on="0"/>
        <pt x="477" y="1110" on="1"/>
        <pt x="535" y="1147" on="0"/>
        <pt x="606" y="1147" on="1"/>
        <pt x="676" y="1147" on="0"/>
        <pt x="719" y="1110" on="1"/>
        <pt x="762" y="1072" on="0"/>
        <pt x="770" y="1008" on="1"/>
        <pt x="802" y="1072" on="0"/>
        <pt x="866" y="1110" on="1"/>
        <pt x="930" y="1147" on="0"/>
        <pt x="1004" y="1147" on="1"/>
        <pt x="1097" y="1147" on="0"/>
        <pt x="1152" y="1092" on="1"/>
        <pt x="1181" y="1062" on="0"/>
        <pt x="1206" y="979" on="0"/>
        <pt x="1206" y="931" on="1"/>
        <pt x="1206" y="896" on="0"/>
        <pt x="1201" y="843" on="1"/>
        <pt x="1198" y="816" on="0"/>
        <pt x="1185" y="746" on="0"/>
        <pt x="1180" y="719" on="1"/>
        <pt x="1040" y="0" on="1"/>
        <pt x="801" y="0" on="1"/>
        <pt x="940" y="719" on="1"/>
        <pt x="945" y="742" on="0"/>
        <pt x="951" y="778" on="0"/>
        <pt x="954" y="801" on="1"/>
        <pt x="958" y="828" on="0"/>
        <pt x="958" y="848" on="1"/>
        <pt x="958" y="871" on="0"/>
        <pt x="948" y="899" on="0"/>
        <pt x="941" y="907" on="1"/>
        <pt x="923" y="928" on="0"/>
        <pt x="889" y="928" on="1"/>
        <pt x="842" y="928" on="0"/>
        <pt x="813" y="883" on="1"/>
        <pt x="784" y="837" on="0"/>
        <pt x="762" y="719" on="1"/>
        <pt x="623" y="0" on="1"/>
        <pt x="383" y="0" on="1"/>
        <pt x="524" y="719" on="1"/>
        <pt x="526" y="731" on="0"/>
        <pt x="535" y="778" on="0"/>
        <pt x="537" y="794" on="1"/>
        <pt x="541" y="825" on="0"/>
        <pt x="541" y="845" on="1"/>
        <pt x="541" y="928" on="0"/>
        <pt x="471" y="928" on="1"/>
        <pt x="424" y="928" on="0"/>
        <pt x="397" y="885" on="1"/>
        <pt x="381" y="860" on="0"/>
        <pt x="357" y="779" on="0"/>
        <pt x="346" y="719" on="1"/>
        <pt x="207" y="0" on="1"/>
        <pt x="-33" y="0" on="1"/>
      </contour>
    </TTGlyph>
    <TTGlyph name="uni006E" xMin="59" yMin="0" xMax="1120" yMax="1147">
      <contour>
        <pt x="276" y="1120" on="1"/>
        <pt x="540" y="1120" on="1"/>
        <pt x="537" y="952" on="1"/>
        <pt x="562" y="1000" on="0"/>
        <pt x="630" y="1072" on="0"/>
        <pt x="669" y="1096" on="1"/>
        <pt x="752" y="1147" on="0"/>
        <pt x="857" y="1147" on="1"/>
        <pt x="982" y="1147" on="0"/>
        <pt x="1051" y="1078" on="1"/>
        <pt x="1120" y="1009" on="0"/>
        <pt x="1120" y="880" on="1"/>
        <pt x="1120" y="866" on="0"/>
        <pt x="1118" y="832" on="0"/>
        <pt x="1116" y="813" on="1"/>
        <pt x="1114" y="801" on="0"/>
        <pt x="1107" y="751" on="0"/>
        <pt x="1102" y="728" on="1"/>
        <pt x="961" y="0" on="1"/>
        <pt x="668" y="0" on="1"/>
        <pt x="801" y="682" on="1"/>
        <pt x="805" y="702" on="0"/>
        <pt x="808" y="730" on="0"/>
        <pt x="809" y="735" on="1"/>
        <pt x="810" y="748" on="0"/>
        <pt x="811" y="773" on="0"/>
        <pt x="811" y="783" on="1"/>
        <pt x="811" y="845" on="0"/>
        <pt x="782" y="877" on="1"/>
        <pt x="754" y="907" on="0"/>
        <pt x="699" y="907" on="1"/>
        <pt x="616" y="907" on="0"/>
        <pt x="558" y="835" on="1"/>
        <pt x="498" y="762" on="0"/>
        <pt x="473" y="629" on="1"/>
        <pt x="352" y="0" on="1"/>
        <pt x="59" y="0" on="1"/>
      </contour>
    </TTGlyph>
    <TTGlyph name="uni006F" xMin="88" yMin="-29" xMax="1145" yMax="1149">
      <contour>
        <pt x="543" y="-29" on="1"/>
        <pt x="429" y="-29" on="0"/>
        <pt x="262" y="38" on="0"/>
        <pt x="208" y="91" on="1"/>
        <pt x="144" y="154" on="0"/>
        <pt x="88" y="330" on="0"/>
        <pt x="88" y="442" on="1"/>
        <pt x="88" y="584" on="0"/>
        <pt x="171" y="848" on="0"/>
        <pt x="254" y="949" on="1"/>
        <pt x="334" y="1046" on="0"/>
        <pt x="554" y="1149" on="0"/>
        <pt x="689" y="1149" on="1"/>
        <pt x="789" y="1149" on="0"/>
        <pt x="963" y="1090" on="0"/>
        <pt x="1025" y="1030" on="1"/>
        <pt x="1088" y="968" on="0"/>
        <pt x="1145" y="790" on="0"/>
        <pt x="1145" y="676" on="1"/>
        <pt x="1145" y="531" on="0"/>
        <pt x="1061" y="269" on="0"/>
        <pt x="980" y="171" on="1"/>
        <pt x="895" y="68" on="0"/>
        <pt x="672" y="-29" on="0"/>
      </contour>
      <contour>
        <pt x="563" y="207" on="1"/>
        <pt x="684" y="207" on="0"/>
        <pt x="767" y="343" on="1"/>
        <pt x="805" y="406" on="0"/>
        <pt x="850" y="576" on="0"/>
        <pt x="850" y="672" on="1"/>
        <pt x="850" y="741" on="0"/>
        <pt x="826" y="826" on="0"/>
        <pt x="804" y="853" on="1"/>
        <pt x="778" y="885" on="0"/>
        <pt x="708" y="911" on="0"/>
        <pt x="672" y="911" on="1"/>
        <pt x="548" y="911" on="0"/>
        <pt x="466" y="776" on="1"/>
        <pt x="424" y="703" on="0"/>
        <pt x="383" y="529" on="0"/>
        <pt x="383" y="448" on="1"/>
        <pt x="383" y="395" on="0"/>
        <pt x="403" y="301" on="0"/>
        <pt x="431" y="267" on="1"/>
        <pt x="452" y="241" on="0"/>
        <pt x="518" y="207" on="0"/>
      </contour>
    </TTGlyph>
    <TTGlyph name="uni0070" xMin="-37" yMin="-426" xMax="1169" yMax="1147">
      <contour>
        <pt x="264" y="1120" on="1"/>
        <pt x="528" y="1120" on="1"/>
        <pt x="524" y="952" on="1"/>
        <pt x="594" y="1050" on="0"/>
        <pt x="677" y="1099" on="1"/>
        <pt x="758" y="1147" on="0"/>
        <pt x="854" y="1147" on="1"/>
        <pt x="999" y="1147" on="0"/>
        <pt x="1084" y="1038" on="1"/>
        <pt x="1169" y="929" on="0"/>
        <pt x="1169" y="734" on="1"/>
        <pt x="1169" y="615" on="0"/>
        <pt x="1104" y="345" on="0"/>
        <pt x="1051" y="244" on="1"/>
        <pt x="982" y="115" on="0"/>
        <pt x="772" y="-29" on="0"/>
        <pt x="654" y="-29" on="1"/>
        <pt x="544" y="-29" on="0"/>
        <pt x="398" y="95" on="0"/>
        <pt x="379" y="207" on="1"/>
        <pt x="256" y="-426" on="1"/>
        <pt x="-37" y="-426" on="1"/>
      </contour>
      <contour>
        <pt x="601" y="209" on="1"/>
        <pt x="661" y="209" on="0"/>
        <pt x="759" y="287" on="0"/>
        <pt x="794" y="350" on="1"/>
        <pt x="832" y="419" on="0"/>
        <pt x="874" y="594" on="0"/>
        <pt x="874" y="683" on="1"/>
        <pt x="874" y="797" on="0"/>
        <pt x="833" y="851" on="1"/>
        <pt x="791" y="907" on="0"/>
        <pt x="718" y="907" on="1"/>
        <pt x="602" y="907" on="0"/>
        <pt x="519" y="769" on="1"/>
        <pt x="436" y="626" on="0"/>
        <pt x="436" y="444" on="1"/>
        <pt x="436" y="389" on="0"/>
        <pt x="456" y="301" on="0"/>
        <pt x="480" y="269" on="1"/>
        <pt x="525" y="209" on="0"/>
      </contour>
    </TTGlyph>
    <TTGlyph name="uni0071" xMin="68" yMin="-426" xMax="1186" yMax="1149">
      <contour>
        <pt x="709" y="166" on="1"/>
        <pt x="644" y="70" on="0"/>
        <pt x="563" y="21" on="1"/>
        <pt x="480" y="-29" on="0"/>
        <pt x="385" y="-29" on="1"/>
        <pt x="240" y="-29" on="0"/>
        <pt x="68" y="192" on="0"/>
        <pt x="68" y="387" on="1"/>
        <pt x="68" y="445" on="0"/>
        <pt x="83" y="574" on="0"/>
        <pt x="99" y="639" on="1"/>
        <pt x="131" y="769" on="0"/>
        <pt x="187" y="874" on="1"/>
        <pt x="222" y="938" on="0"/>
        <pt x="305" y="1039" on="0"/>
        <pt x="359" y="1077" on="1"/>
        <pt x="462" y="1149" on="0"/>
        <pt x="580" y="1149" on="1"/>
        <pt x="692" y="1149" on="0"/>
        <pt x="836" y="1026" on="0"/>
        <pt x="854" y="911" on="1"/>
        <pt x="922" y="1120" on="1"/>
        <pt x="1186" y="1120" on="1"/>
        <pt x="885" y="-426" on="1"/>
        <pt x="594" y="-426" on="1"/>
      </contour>
      <contour>
        <pt x="519" y="211" on="1"/>
        <pt x="635" y="211" on="0"/>
        <pt x="717" y="350" on="1"/>
        <pt x="758" y="419" on="0"/>
        <pt x="799" y="584" on="0"/>
        <pt x="799" y="674" on="1"/>
        <pt x="799" y="733" on="0"/>
        <pt x="779" y="818" on="0"/>
        <pt x="754" y="850" on="1"/>
        <pt x="709" y="909" on="0"/>
        <pt x="634" y="909" on="1"/>
        <pt x="522" y="909" on="0"/>
        <pt x="442" y="768" on="1"/>
        <pt x="402" y="696" on="0"/>
        <pt x="362" y="524" on="0"/>
        <pt x="362" y="436" on="1"/>
        <pt x="362" y="318" on="0"/>
        <pt x="446" y="216" on="0"/>
      </contour>
    </TTGlyph>
    <TTGlyph name="uni0072" xMin="124" yMin="0" xMax="1197" yMax="1147">
      <contour>
        <pt x="343" y="1120" on="1"/>
        <pt x="607" y="1120" on="1"/>
        <pt x="601" y="946" on="1"/>
        <pt x="663" y="1042" on="0"/>
        <pt x="762" y="1095" on="1"/>
        <pt x="859" y="1147" on="0"/>
        <pt x="979" y="1147" on="1"/>
        <pt x="1042" y="1147" on="0"/>
        <pt x="1098" y="1132" on="1"/>
        <pt x="1154" y="1117" on="0"/>
        <pt x="1197" y="1090" on="1"/>
        <pt x="1144" y="815" on="1"/>
        <pt x="1094" y="860" on="0"/>
        <pt x="1037" y="879" on="1"/>
        <pt x="1007" y="890" on="0"/>
        <pt x="936" y="899" on="0"/>
        <pt x="900" y="899" on="1"/>
        <pt x="822" y="899" on="0"/>
        <pt x="696" y="857" on="0"/>
        <pt x="649" y="811" on="1"/>
        <pt x="559" y="724" on="0"/>
        <pt x="519" y="516" on="1"/>
        <pt x="419" y="0" on="1"/>
        <pt x="124" y="0" on="1"/>
      </contour>
    </TTGlyph>
    <TTGlyph name="uni0073" xMin="90" yMin="-29" xMax="1094" yMax="1147">
      <contour>
        <pt x="501" y="-29" on="1"/>
        <pt x="448" y="-29" on="0"/>
        <pt x="338" y="-20" on="0"/>
        <pt x="293" y="-12" on="1"/>
        <pt x="196" y="5" on="0"/>
        <pt x="90" y="41" on="1"/>
        <pt x="141" y="297" on="1"/>
        <pt x="189" y="266" on="0"/>
        <pt x="274" y="227" on="0"/>
        <pt x="322" y="212" on="1"/>
        <pt x="368" y="198" on="0"/>
        <pt x="459" y="182" on="0"/>
        <pt x="510" y="182" on="1"/>
        <pt x="620" y="182" on="0"/>
        <pt x="682" y="220" on="1"/>
        <pt x="743" y="257" on="0"/>
        <pt x="743" y="326" on="1"/>
        <pt x="743" y="353" on="0"/>
        <pt x="726" y="384" on="0"/>
        <pt x="712" y="395" on="1"/>
        <pt x="672" y="426" on="0"/>
        <pt x="549" y="461" on="1"/>
        <pt x="461" y="485" on="1"/>
        <pt x="406" y="500" on="0"/>
        <pt x="314" y="553" on="0"/>
        <pt x="282" y="592" on="1"/>
        <pt x="255" y="625" on="0"/>
        <pt x="225" y="710" on="0"/>
        <pt x="225" y="767" on="1"/>
        <pt x="225" y="943" on="0"/>
        <pt x="495" y="1147" on="0"/>
        <pt x="725" y="1147" on="1"/>
        <pt x="822" y="1147" on="0"/>
        <pt x="997" y="1119" on="0"/>
        <pt x="1094" y="1085" on="1"/>
        <pt x="1044" y="831" on="1"/>
        <pt x="966" y="884" on="0"/>
        <pt x="882" y="911" on="1"/>
        <pt x="838" y="925" on="0"/>
        <pt x="749" y="938" on="0"/>
        <pt x="705" y="938" on="1"/>
        <pt x="609" y="938" on="0"/>
        <pt x="553" y="903" on="1"/>
        <pt x="498" y="869" on="0"/>
        <pt x="498" y="810" on="1"/>
        <pt x="498" y="764" on="0"/>
        <pt x="535" y="737" on="1"/>
        <pt x="555" y="723" on="0"/>
        <pt x="634" y="691" on="0"/>
        <pt x="700" y="672" on="1"/>
        <pt x="774" y="651" on="1"/>
        <pt x="840" y="632" on="0"/>
        <pt x="933" y="577" on="0"/>
        <pt x="961" y="544" on="1"/>
        <pt x="1020" y="476" on="0"/>
        <pt x="1020" y="359" on="1"/>
        <pt x="1020" y="179" on="0"/>
        <pt x="884" y="75" on="1"/>
        <pt x="814" y="22" on="0"/>
        <pt x="618" y="-29" on="0"/>
      </contour>
    </TTGlyph>
    <TTGlyph name="uni0074" xMin="164" yMin="-5" xMax="1169" yMax="1438">
      <contour>
        <pt x="707" y="-5" on="1"/>
        <pt x="501" y="-5" on="0"/>
        <pt x="418" y="52" on="1"/>
        <pt x="372" y="82" on="0"/>
        <pt x="332" y="172" on="0"/>
        <pt x="332" y="229" on="1"/>
        <pt x="332" y="246" on="0"/>
        <pt x="335" y="273" on="0"/>
        <pt x="337" y="290" on="1"/>
        <pt x="339" y="302" on="0"/>
        <pt x="345" y="350" on="0"/>
        <pt x="350" y="374" on="1"/>
        <pt x="451" y="895" on="1"/>
        <pt x="164" y="895" on="1"/>
        <pt x="207" y="1120" on="1"/>
        <pt x="494" y="1120" on="1"/>
        <pt x="555" y="1438" on="1"/>
        <pt x="848" y="1438" on="1"/>
        <pt x="786" y="1120" on="1"/>
        <pt x="1169" y="1120" on="1"/>
        <pt x="1126" y="895" on="1"/>
        <pt x="743" y="895" on="1"/>
        <pt x="639" y="360" on="1"/>
        <pt x="638" y="355" on="0"/>
        <pt x="635" y="339" on="0"/>
        <pt x="633" y="325" on="1"/>
        <pt x="632" y="317" on="0"/>
        <pt x="631" y="306" on="0"/>
        <pt x="631" y="300" on="1"/>
        <pt x="631" y="257" on="0"/>
        <pt x="661" y="239" on="1"/>
        <pt x="689" y="220" on="0"/>
        <pt x="770" y="220" on="1"/>
        <pt x="995" y="220" on="1"/>
        <pt x="952" y="-5" on="1"/>
      </contour>
    </TTGlyph>
    <TTGlyph name="uni0075" xMin="106" yMin="-29" xMax="1165" yMax="1120">
      <contour>
        <pt x="372" y="-29" on="1"/>
        <pt x="244" y="-29" on="0"/>
        <pt x="175" y="42" on="1"/>
        <pt x="106" y="112" on="0"/>
        <pt x="106" y="244" on="1"/>
        <pt x="106" y="276" on="0"/>
        <pt x="110" y="308" on="1"/>
        <pt x="111" y="311" on="0"/>
        <pt x="117" y="362" on="0"/>
        <pt x="123" y="391" on="1"/>
        <pt x="266" y="1120" on="1"/>
        <pt x="557" y="1120" on="1"/>
        <pt x="426" y="436" on="1"/>
        <pt x="424" y="423" on="0"/>
        <pt x="421" y="400" on="0"/>
        <pt x="419" y="383" on="1"/>
        <pt x="417" y="367" on="0"/>
        <pt x="416" y="347" on="0"/>
        <pt x="416" y="336" on="1"/>
        <pt x="416" y="301" on="0"/>
        <pt x="431" y="259" on="0"/>
        <pt x="445" y="243" on="1"/>
        <pt x="458" y="229" on="0"/>
        <pt x="497" y="211" on="0"/>
        <pt x="529" y="211" on="1"/>
        <pt x="614" y="211" on="0"/>
        <pt x="668" y="282" on="1"/>
        <pt x="726" y="356" on="0"/>
        <pt x="752" y="489" on="1"/>
        <pt x="874" y="1120" on="1"/>
        <pt x="1165" y="1120" on="1"/>
        <pt x="948" y="0" on="1"/>
        <pt x="684" y="0" on="1"/>
        <pt x="688" y="166" on="1"/>
        <pt x="664" y="116" on="0"/>
        <pt x="599" y="49" on="0"/>
        <pt x="559" y="24" on="1"/>
        <pt x="513" y="-5" on="0"/>
        <pt x="422" y="-29" on="0"/>
      </contour>
    </TTGlyph>
    <TTGlyph name="uni0076" xMin="172" yMin="0" xMax="1231" yMax="1120">
      <contour>
        <pt x="172" y="1120" on="1"/>
        <pt x="455" y="1120" on="1"/>
        <pt x="535" y="242" on="1"/>
        <pt x="924" y="1120" on="1"/>
        <pt x="1231" y="1120" on="1"/>
        <pt x="680" y="0" on="1"/>
        <pt x="311" y="0" on="1"/>
      </contour>
    </TTGlyph>
    <TTGlyph name="uni0077" xMin="90" yMin="0" xMax="1325" yMax="1120">
      <contour>
        <pt x="96" y="1120" on="1"/>
        <pt x="336" y="1120" on="1"/>
        <pt x="303" y="262" on="1"/>
        <pt x="530" y="827" on="1"/>
        <pt x="760" y="827" on="1"/>
        <pt x="782" y="262" on="1"/>
        <pt x="1073" y="1120" on="1"/>
        <pt x="1325" y="1120" on="1"/>
        <pt x="907" y="0" on="1"/>
        <pt x="627" y="0" on="1"/>
        <pt x="608" y="590" on="1"/>
        <pt x="369" y="0" on="1"/>
        <pt x="90" y="0" on="1"/>
      </contour>
    </TTGlyph>
    <TTGlyph name="uni0078" xMin="-76" yMin="0" xMax="1227" yMax="1120">
      <contour>
        <pt x="436" y="594" on="1"/>
        <pt x="178" y="1120" on="1"/>
        <pt x="479" y="1120" on="1"/>
        <pt x="627" y="803" on="1"/>
        <pt x="895" y="1120" on="1"/>
        <pt x="1227" y="1120" on="1"/>
        <pt x="750" y="567" on="1"/>
        <pt x="1028" y="0" on="1"/>
        <pt x="729" y="0" on="1"/>
        <pt x="559" y="356" on="1"/>
        <pt x="256" y="0" on="1"/>
        <pt x="-76" y="0" on="1"/>
      </contour>
    </TTGlyph>
    <TTGlyph name="uni0079" xMin="-65" yMin="-424" xMax="1282" yMax="1120">
      <contour>
        <pt x="-20" y="-201" on="1"/>
        <pt x="97" y="-201" on="1"/>
        <pt x="188" y="-201" on="0"/>
        <pt x="234" y="-171" on="1"/>
        <pt x="258" y="-156" on="0"/>
        <pt x="314" y="-86" on="0"/>
        <pt x="344" y="-29" on="1"/>
        <pt x="383" y="45" on="1"/>
        <pt x="166" y="1120" on="1"/>
        <pt x="463" y="1120" on="1"/>
        <pt x="590" y="420" on="1"/>
        <pt x="973" y="1120" on="1"/>
        <pt x="1282" y="1120" on="1"/>
        <pt x="576" y="-121" on="1"/>
        <pt x="464" y="-317" on="0"/>
        <pt x="383" y="-372" on="1"/>
        <pt x="307" y="-424" on="0"/>
        <pt x="175" y="-424" on="1"/>
        <pt x="-65" y="-424" on="1"/>
      </contour>
    </TTGlyph>
    <TTGlyph name="uni007A" xMin="49" yMin="0" xMax="1188" yMax="1120">
      <contour>
        <pt x="94" y="229" on="1"/>
        <pt x="801" y="901" on="1"/>
        <pt x="250" y="901" on="1"/>
        <pt x="293" y="1120" on="1"/>
        <pt x="1188" y="1120" on="1"/>
        <pt x="1143" y="891" on="1"/>
        <pt x="436" y="219" on="1"/>
        <pt x="1012" y="219" on="1"/>
        <pt x="969" y="0" on="1"/>
        <pt x="49" y="0" on="1"/>
      </contour>
    </TTGlyph>
    <TTGlyph name="uni007B" xMin="51" yMin="-334" xMax="1160" yMax="1556">
      <contour>
        <pt x="644" y="-334" on="1"/>
        <pt x="508" y="-330" on="0"/>
        <pt x="353" y="-288" on="0"/>
        <pt x="284" y="-190" on="0"/>
        <pt x="280" y="-101" on="1"/>
        <pt x="280" y="-80" on="0"/>
        <pt x="284" y="-49" on="1"/>
        <pt x="284" y="-43" on="0"/>
        <pt x="292" y="10" on="0"/>
        <pt x="298" y="35" on="1"/>
        <pt x="341" y="250" on="1"/>
        <pt x="342" y="258" on="0"/>
        <pt x="352" y="310" on="0"/>
        <pt x="354" y="328" on="1"/>
        <pt x="358" y="359" on="0"/>
        <pt x="358" y="377" on="1"/>
        <pt x="358" y="455" on="0"/>
        <pt x="295" y="486" on="1"/>
        <pt x="238" y="516" on="0"/>
        <pt x="113" y="516" on="1"/>
        <pt x="51" y="516" on="1"/>
        <pt x="88" y="707" on="1"/>
        <pt x="179" y="707" on="1"/>
        <pt x="322" y="707" on="0"/>
        <pt x="386" y="762" on="1"/>
        <pt x="450" y="817" on="0"/>
        <pt x="480" y="973" on="1"/>
        <pt x="521" y="1188" on="1"/>
        <pt x="543" y="1303" on="0"/>
        <pt x="612" y="1449" on="0"/>
        <pt x="658" y="1484" on="1"/>
        <pt x="751" y="1556" on="0"/>
        <pt x="1011" y="1556" on="1"/>
        <pt x="1160" y="1556" on="1"/>
        <pt x="1124" y="1366" on="1"/>
        <pt x="1001" y="1366" on="1"/>
        <pt x="945" y="1366" on="0"/>
        <pt x="874" y="1344" on="0"/>
        <pt x="852" y="1323" on="1"/>
        <pt x="808" y="1282" on="0"/>
        <pt x="781" y="1139" on="1"/>
        <pt x="743" y="930" on="1"/>
        <pt x="729" y="852" on="0"/>
        <pt x="681" y="732" on="0"/>
        <pt x="648" y="696" on="1"/>
        <pt x="586" y="628" on="0"/>
        <pt x="456" y="612" on="1"/>
        <pt x="553" y="591" on="0"/>
        <pt x="593" y="548" on="1"/>
        <pt x="634" y="507" on="0"/>
        <pt x="634" y="428" on="1"/>
        <pt x="634" y="417" on="0"/>
        <pt x="632" y="381" on="0"/>
        <pt x="630" y="364" on="1"/>
        <pt x="628" y="351" on="0"/>
        <pt x="623" y="317" on="0"/>
        <pt x="618" y="291" on="1"/>
        <pt x="577" y="86" on="1"/>
        <pt x="571" y="60" on="0"/>
        <pt x="568" y="40" on="0"/>
        <pt x="564" y="12" on="1"/>
        <pt x="560" y="-19" on="0"/>
        <pt x="560" y="-32" on="1"/>
        <pt x="560" y="-93" on="0"/>
        <pt x="594" y="-118" on="1"/>
        <pt x="628" y="-143" on="0"/>
        <pt x="708" y="-143" on="1"/>
        <pt x="829" y="-143" on="1"/>
        <pt x="792" y="-334" on="1"/>
      </contour>
    </TTGlyph>
    <TTGlyph name="uni007C" xMin="502" yMin="-483" xMax="729" yMax="1565">
      <contour>
        <pt x="502" y="1565" on="1"/>
        <pt x="729" y="1565" on="1"/>
        <pt x="729" y="654" on="1"/>
        <pt x="502" y="654" on="1"/>
      </contour>
      <contour>
        <pt x="502" y="427" on="1"/>
        <pt x="729" y="427" on="1"/>
        <pt x="729" y="-483" on="1"/>
        <pt x="502" y="-483" on="1"/>
      </contour>
    </TTGlyph>
    <TTGlyph name="uni007D" xMin="19" yMin="-334" xMax="1129" yMax="1556">
      <contour>
        <pt x="56" y="-143" on="1"/>
        <pt x="179" y="-143" on="1"/>
        <pt x="281" y="-143" on="0"/>
        <pt x="326" y="-100" on="1"/>
        <pt x="371" y="-56" on="0"/>
        <pt x="398" y="86" on="1"/>
        <pt x="437" y="291" on="1"/>
        <pt x="452" y="370" on="0"/>
        <pt x="499" y="488" on="0"/>
        <pt x="532" y="524" on="1"/>
        <pt x="595" y="593" on="0"/>
        <pt x="724" y="612" on="1"/>
        <pt x="628" y="629" on="0"/>
        <pt x="588" y="670" on="1"/>
        <pt x="546" y="712" on="0"/>
        <pt x="546" y="792" on="1"/>
        <pt x="546" y="803" on="0"/>
        <pt x="548" y="834" on="0"/>
        <pt x="550" y="852" on="1"/>
        <pt x="552" y="863" on="0"/>
        <pt x="558" y="910" on="0"/>
        <pt x="562" y="930" on="1"/>
        <pt x="603" y="1139" on="1"/>
        <pt x="608" y="1157" on="0"/>
        <pt x="613" y="1191" on="0"/>
        <pt x="616" y="1214" on="1"/>
        <pt x="620" y="1241" on="0"/>
        <pt x="620" y="1247" on="1"/>
        <pt x="620" y="1251" on="0"/>
        <pt x="619" y="1253" on="0"/>
        <pt x="619" y="1257" on="1"/>
        <pt x="619" y="1318" on="0"/>
        <pt x="586" y="1342" on="1"/>
        <pt x="553" y="1366" on="0"/>
        <pt x="472" y="1366" on="1"/>
        <pt x="351" y="1366" on="1"/>
        <pt x="388" y="1556" on="1"/>
        <pt x="535" y="1556" on="1"/>
        <pt x="740" y="1556" on="0"/>
        <pt x="822" y="1508" on="1"/>
        <pt x="864" y="1484" on="0"/>
        <pt x="904" y="1402" on="0"/>
        <pt x="904" y="1351" on="1"/>
        <pt x="904" y="1305" on="0"/>
        <pt x="884" y="1202" on="1"/>
        <pt x="881" y="1187" on="1"/>
        <pt x="840" y="972" on="1"/>
        <pt x="837" y="956" on="0"/>
        <pt x="832" y="923" on="0"/>
        <pt x="830" y="911" on="1"/>
        <pt x="826" y="883" on="0"/>
        <pt x="826" y="864" on="1"/>
        <pt x="826" y="811" on="0"/>
        <pt x="863" y="757" on="0"/>
        <pt x="889" y="742" on="1"/>
        <pt x="951" y="707" on="0"/>
        <pt x="1067" y="707" on="1"/>
        <pt x="1129" y="707" on="1"/>
        <pt x="1092" y="516" on="1"/>
        <pt x="1000" y="516" on="1"/>
        <pt x="858" y="516" on="0"/>
        <pt x="794" y="458" on="1"/>
        <pt x="728" y="401" on="0"/>
        <pt x="699" y="250" on="1"/>
        <pt x="658" y="35" on="1"/>
        <pt x="616" y="-187" on="0"/>
        <pt x="516" y="-260" on="1"/>
        <pt x="415" y="-334" on="0"/>
        <pt x="169" y="-334" on="1"/>
        <pt x="19" y="-334" on="1"/>
      </contour>
    </TTGlyph>
    <TTGlyph name="uni007E" xMin="68" yMin="324" xMax="1165" yMax="877">
      <contour>
        <pt x="1165" y="873" on="1"/>
        <pt x="1161" y="740" on="0"/>
        <pt x="1132" y="549" on="0"/>
        <pt x="1094" y="483" on="1"/>
        <pt x="1095" y="486" on="1"/>
        <pt x="1016" y="324" on="0"/>
        <pt x="830" y="324" on="1"/>
        <pt x="743" y="324" on="0"/>
        <pt x="678" y="362" on="1"/>
        <pt x="618" y="398" on="0"/>
        <pt x="545" y="500" on="1"/>
        <pt x="477" y="596" on="0"/>
        <pt x="448" y="619" on="1"/>
        <pt x="420" y="637" on="0"/>
        <pt x="404" y="637" on="1"/>
        <pt x="361" y="637" on="0"/>
        <pt x="345" y="597" on="1"/>
        <pt x="345" y="598" on="1"/>
        <pt x="316" y="529" on="0"/>
        <pt x="307" y="330" on="1"/>
        <pt x="68" y="330" on="1"/>
        <pt x="74" y="582" on="0"/>
        <pt x="139" y="717" on="1"/>
        <pt x="230" y="877" on="0"/>
        <pt x="399" y="877" on="1"/>
        <pt x="482" y="877" on="0"/>
        <pt x="546" y="837" on="1"/>
        <pt x="579" y="817" on="0"/>
        <pt x="651" y="748" on="0"/>
        <pt x="684" y="702" on="1"/>
        <pt x="683" y="703" on="1"/>
        <pt x="734" y="634" on="0"/>
        <pt x="777" y="591" on="1"/>
        <pt x="804" y="564" on="0"/>
        <pt x="827" y="564" on="1"/>
        <pt x="878" y="564" on="0"/>
        <pt x="922" y="715" on="0"/>
        <pt x="924" y="873" on="1"/>
      </contour>
    </TTGlyph>
    <TTGlyph name="uni00A1" xMin="328" yMin="0" xMax="901" yMax="1556">
      <contour>
        <pt x="696" y="1198" on="1"/>
        <pt x="658" y="1198" on="0"/>
        <pt x="604" y="1223" on="0"/>
        <pt x="587" y="1241" on="1"/>
        <pt x="565" y="1266" on="0"/>
        <pt x="549" y="1327" on="0"/>
        <pt x="549" y="1353" on="1"/>
        <pt x="549" y="1416" on="0"/>
        <pt x="622" y="1522" on="0"/>
        <pt x="681" y="1544" on="1"/>
        <pt x="714" y="1556" on="0"/>
        <pt x="754" y="1556" on="1"/>
        <pt x="797" y="1556" on="0"/>
        <pt x="848" y="1527" on="0"/>
        <pt x="864" y="1510" on="1"/>
        <pt x="884" y="1487" on="0"/>
        <pt x="901" y="1433" on="0"/>
        <pt x="901" y="1403" on="1"/>
        <pt x="901" y="1362" on="0"/>
        <pt x="887" y="1329" on="1"/>
        <pt x="853" y="1245" on="0"/>
        <pt x="770" y="1211" on="1"/>
        <pt x="738" y="1198" on="0"/>
      </contour>
      <contour>
        <pt x="455" y="655" on="1"/>
        <pt x="567" y="1012" on="1"/>
        <pt x="766" y="1012" on="1"/>
        <pt x="741" y="655" on="1"/>
        <pt x="614" y="0" on="1"/>
        <pt x="328" y="0" on="1"/>
      </contour>
    </TTGlyph>
    <TTGlyph name="uni00A1.case" xMin="328" yMin="0" xMax="901" yMax="1556">
      <contour>
        <pt x="696" y="1198" on="1"/>
        <pt x="658" y="1198" on="0"/>
        <pt x="604" y="1223" on="0"/>
        <pt x="587" y="1241" on="1"/>
        <pt x="565" y="1266" on="0"/>
        <pt x="549" y="1327" on="0"/>
        <pt x="549" y="1353" on="1"/>
        <pt x="549" y="1416" on="0"/>
        <pt x="622" y="1522" on="0"/>
        <pt x="681" y="1544" on="1"/>
        <pt x="714" y="1556" on="0"/>
        <pt x="754" y="1556" on="1"/>
        <pt x="797" y="1556" on="0"/>
        <pt x="848" y="1527" on="0"/>
        <pt x="864" y="1510" on="1"/>
        <pt x="884" y="1487" on="0"/>
        <pt x="901" y="1433" on="0"/>
        <pt x="901" y="1403" on="1"/>
        <pt x="901" y="1362" on="0"/>
        <pt x="887" y="1329" on="1"/>
        <pt x="853" y="1245" on="0"/>
        <pt x="770" y="1211" on="1"/>
        <pt x="738" y="1198" on="0"/>
      </contour>
      <contour>
        <pt x="455" y="655" on="1"/>
        <pt x="567" y="1012" on="1"/>
        <pt x="766" y="1012" on="1"/>
        <pt x="741" y="655" on="1"/>
        <pt x="614" y="0" on="1"/>
        <pt x="328" y="0" on="1"/>
      </contour>
    </TTGlyph>
    <TTGlyph name="uni00A2" xMin="104" yMin="-313" xMax="1102" yMax="1432">
      <contour>
        <pt x="506" y="-25" on="1"/>
        <pt x="312" y="-3" on="0"/>
        <pt x="208" y="116" on="1"/>
        <pt x="156" y="176" on="0"/>
        <pt x="104" y="333" on="0"/>
        <pt x="104" y="438" on="1"/>
        <pt x="104" y="515" on="0"/>
        <pt x="132" y="658" on="0"/>
        <pt x="159" y="727" on="1"/>
        <pt x="218" y="873" on="0"/>
        <pt x="315" y="971" on="1"/>
        <pt x="352" y="1009" on="0"/>
        <pt x="444" y="1075" on="0"/>
        <pt x="503" y="1099" on="1"/>
        <pt x="554" y="1120" on="0"/>
        <pt x="670" y="1144" on="0"/>
        <pt x="733" y="1145" on="1"/>
        <pt x="788" y="1432" on="1"/>
        <pt x="930" y="1432" on="1"/>
        <pt x="875" y="1145" on="1"/>
        <pt x="902" y="1143" on="0"/>
        <pt x="959" y="1133" on="0"/>
        <pt x="985" y="1125" on="1"/>
        <pt x="1042" y="1108" on="0"/>
        <pt x="1102" y="1077" on="1"/>
        <pt x="1049" y="813" on="1"/>
        <pt x="1001" y="855" on="0"/>
        <pt x="949" y="877" on="1"/>
        <pt x="896" y="900" on="0"/>
        <pt x="830" y="907" on="1"/>
        <pt x="695" y="215" on="1"/>
        <pt x="756" y="219" on="0"/>
        <pt x="824" y="243" on="1"/>
        <pt x="858" y="255" on="0"/>
        <pt x="920" y="287" on="0"/>
        <pt x="952" y="307" on="1"/>
        <pt x="901" y="43" on="1"/>
        <pt x="839" y="11" on="0"/>
        <pt x="776" y="-5" on="1"/>
        <pt x="709" y="-22" on="0"/>
        <pt x="647" y="-25" on="1"/>
        <pt x="592" y="-313" on="1"/>
        <pt x="451" y="-313" on="1"/>
      </contour>
      <contour>
        <pt x="688" y="907" on="1"/>
        <pt x="552" y="892" on="0"/>
        <pt x="459" y="762" on="1"/>
        <pt x="365" y="631" on="0"/>
        <pt x="365" y="463" on="1"/>
        <pt x="365" y="403" on="0"/>
        <pt x="391" y="318" on="0"/>
        <pt x="417" y="285" on="1"/>
        <pt x="467" y="219" on="0"/>
        <pt x="552" y="215" on="1"/>
      </contour>
    </TTGlyph>
    <TTGlyph name="uni00A3" xMin="-23" yMin="0" xMax="1245" yMax="1520">
      <contour>
        <pt x="29" y="260" on="1"/>
        <pt x="264" y="260" on="1"/>
        <pt x="328" y="594" on="1"/>
        <pt x="129" y="594" on="1"/>
        <pt x="174" y="819" on="1"/>
        <pt x="373" y="819" on="1"/>
        <pt x="410" y="1016" on="1"/>
        <pt x="461" y="1285" on="0"/>
        <pt x="589" y="1402" on="1"/>
        <pt x="653" y="1462" on="0"/>
        <pt x="837" y="1520" on="0"/>
        <pt x="952" y="1520" on="1"/>
        <pt x="1034" y="1520" on="0"/>
        <pt x="1102" y="1504" on="1"/>
        <pt x="1173" y="1488" on="0"/>
        <pt x="1245" y="1456" on="1"/>
        <pt x="1192" y="1190" on="1"/>
        <pt x="1130" y="1233" on="0"/>
        <pt x="1017" y="1272" on="0"/>
        <pt x="952" y="1272" on="1"/>
        <pt x="847" y="1272" on="0"/>
        <pt x="784" y="1205" on="1"/>
        <pt x="753" y="1172" on="0"/>
        <pt x="706" y="1069" on="0"/>
        <pt x="692" y="995" on="1"/>
        <pt x="659" y="819" on="1"/>
        <pt x="995" y="819" on="1"/>
        <pt x="952" y="594" on="1"/>
        <pt x="614" y="594" on="1"/>
        <pt x="551" y="260" on="1"/>
        <pt x="1032" y="260" on="1"/>
        <pt x="981" y="0" on="1"/>
        <pt x="-23" y="0" on="1"/>
      </contour>
    </TTGlyph>
    <TTGlyph name="uni00A4" xMin="186" yMin="176" xMax="1118" yMax="1108">
      <contour>
        <pt x="186" y="305" on="1"/>
        <pt x="356" y="475" on="1"/>
        <pt x="342" y="502" on="0"/>
        <pt x="330" y="535" on="0"/>
        <pt x="323" y="559" on="1"/>
        <pt x="318" y="579" on="0"/>
        <pt x="311" y="616" on="0"/>
        <pt x="311" y="642" on="1"/>
        <pt x="311" y="668" on="0"/>
        <pt x="318" y="710" on="0"/>
        <pt x="323" y="729" on="1"/>
        <pt x="328" y="746" on="0"/>
        <pt x="343" y="784" on="0"/>
        <pt x="358" y="807" on="1"/>
        <pt x="186" y="977" on="1"/>
        <pt x="317" y="1108" on="1"/>
        <pt x="483" y="936" on="1"/>
        <pt x="524" y="960" on="0"/>
        <pt x="566" y="972" on="1"/>
        <pt x="610" y="983" on="0"/>
        <pt x="652" y="983" on="1"/>
        <pt x="694" y="983" on="0"/>
        <pt x="772" y="960" on="0"/>
        <pt x="819" y="938" on="1"/>
        <pt x="991" y="1108" on="1"/>
        <pt x="1118" y="979" on="1"/>
        <pt x="948" y="809" on="1"/>
        <pt x="972" y="766" on="0"/>
        <pt x="982" y="727" on="1"/>
        <pt x="993" y="681" on="0"/>
        <pt x="993" y="641" on="1"/>
        <pt x="993" y="593" on="0"/>
        <pt x="982" y="554" on="1"/>
        <pt x="977" y="538" on="0"/>
        <pt x="959" y="496" on="0"/>
        <pt x="946" y="477" on="1"/>
        <pt x="1118" y="307" on="1"/>
        <pt x="987" y="176" on="1"/>
        <pt x="817" y="348" on="1"/>
        <pt x="795" y="334" on="0"/>
        <pt x="762" y="319" on="0"/>
        <pt x="741" y="313" on="1"/>
        <pt x="722" y="308" on="0"/>
        <pt x="681" y="301" on="0"/>
        <pt x="656" y="301" on="1"/>
        <pt x="575" y="301" on="0"/>
        <pt x="485" y="344" on="1"/>
        <pt x="315" y="176" on="1"/>
      </contour>
      <contour>
        <pt x="654" y="467" on="1"/>
        <pt x="728" y="467" on="0"/>
        <pt x="777" y="518" on="1"/>
        <pt x="827" y="571" on="0"/>
        <pt x="827" y="642" on="1"/>
        <pt x="827" y="717" on="0"/>
        <pt x="778" y="766" on="1"/>
        <pt x="729" y="815" on="0"/>
        <pt x="653" y="815" on="1"/>
        <pt x="580" y="815" on="0"/>
        <pt x="530" y="767" on="1"/>
        <pt x="479" y="719" on="0"/>
        <pt x="479" y="643" on="1"/>
        <pt x="479" y="571" on="0"/>
        <pt x="529" y="518" on="1"/>
        <pt x="578" y="467" on="0"/>
      </contour>
    </TTGlyph>
    <TTGlyph name="uni00A5" xMin="-29" yMin="0" xMax="1343" yMax="1493">
      <contour>
        <pt x="383" y="438" on="1"/>
        <pt x="-29" y="438" on="1"/>
        <pt x="8" y="627" on="1"/>
        <pt x="416" y="627" on="1"/>
        <pt x="358" y="778" on="1"/>
        <pt x="37" y="778" on="1"/>
        <pt x="74" y="965" on="1"/>
        <pt x="297" y="965" on="1"/>
        <pt x="127" y="1493" on="1"/>
        <pt x="444" y="1493" on="1"/>
        <pt x="618" y="893" on="1"/>
        <pt x="1026" y="1493" on="1"/>
        <pt x="1343" y="1493" on="1"/>
        <pt x="969" y="965" on="1"/>
        <pt x="1192" y="965" on="1"/>
        <pt x="1155" y="778" on="1"/>
        <pt x="834" y="778" on="1"/>
        <pt x="719" y="627" on="1"/>
        <pt x="1126" y="627" on="1"/>
        <pt x="1090" y="438" on="1"/>
        <pt x="678" y="438" on="1"/>
        <pt x="592" y="0" on="1"/>
        <pt x="299" y="0" on="1"/>
      </contour>
    </TTGlyph>
    <TTGlyph name="uni00A6" xMin="502" yMin="-350" xMax="729" yMax="1432">
      <contour>
        <pt x="502" y="1432" on="1"/>
        <pt x="729" y="1432" on="1"/>
        <pt x="729" y="674" on="1"/>
        <pt x="502" y="674" on="1"/>
      </contour>
      <contour>
        <pt x="502" y="408" on="1"/>
        <pt x="729" y="408" on="1"/>
        <pt x="729" y="-350" on="1"/>
        <pt x="502" y="-350" on="1"/>
      </contour>
    </TTGlyph>
    <TTGlyph name="uni00A7" xMin="104" yMin="-195" xMax="1059" yMax="1520">
      <contour>
        <pt x="458" y="-195" on="1"/>
        <pt x="380" y="-195" on="0"/>
        <pt x="291" y="-180" on="1"/>
        <pt x="201" y="-165" on="0"/>
        <pt x="104" y="-135" on="1"/>
        <pt x="150" y="94" on="1"/>
        <pt x="185" y="78" on="0"/>
        <pt x="260" y="53" on="0"/>
        <pt x="303" y="44" on="1"/>
        <pt x="388" y="27" on="0"/>
        <pt x="453" y="27" on="1"/>
        <pt x="544" y="27" on="0"/>
        <pt x="590" y="61" on="1"/>
        <pt x="613" y="78" on="0"/>
        <pt x="637" y="127" on="0"/>
        <pt x="637" y="151" on="1"/>
        <pt x="637" y="190" on="0"/>
        <pt x="568" y="272" on="0"/>
        <pt x="485" y="328" on="1"/>
        <pt x="467" y="340" on="1"/>
        <pt x="367" y="408" on="1"/>
        <pt x="315" y="443" on="0"/>
        <pt x="242" y="503" on="0"/>
        <pt x="218" y="538" on="1"/>
        <pt x="200" y="564" on="0"/>
        <pt x="178" y="627" on="0"/>
        <pt x="178" y="669" on="1"/>
        <pt x="178" y="764" on="0"/>
        <pt x="239" y="840" on="1"/>
        <pt x="300" y="917" on="0"/>
        <pt x="414" y="967" on="1"/>
        <pt x="363" y="1008" on="0"/>
        <pt x="339" y="1057" on="1"/>
        <pt x="315" y="1106" on="0"/>
        <pt x="315" y="1172" on="1"/>
        <pt x="315" y="1326" on="0"/>
        <pt x="433" y="1423" on="1"/>
        <pt x="489" y="1469" on="0"/>
        <pt x="639" y="1520" on="0"/>
        <pt x="739" y="1520" on="1"/>
        <pt x="812" y="1520" on="0"/>
        <pt x="892" y="1505" on="1"/>
        <pt x="974" y="1490" on="0"/>
        <pt x="1059" y="1460" on="1"/>
        <pt x="1014" y="1231" on="1"/>
        <pt x="980" y="1248" on="0"/>
        <pt x="911" y="1274" on="0"/>
        <pt x="881" y="1282" on="1"/>
        <pt x="817" y="1298" on="0"/>
        <pt x="753" y="1298" on="1"/>
        <pt x="666" y="1298" on="0"/>
        <pt x="620" y="1264" on="1"/>
        <pt x="573" y="1229" on="0"/>
        <pt x="573" y="1169" on="1"/>
        <pt x="573" y="1124" on="0"/>
        <pt x="604" y="1090" on="1"/>
        <pt x="624" y="1067" on="0"/>
        <pt x="691" y="1018" on="0"/>
        <pt x="743" y="985" on="1"/>
        <pt x="848" y="918" on="1"/>
        <pt x="945" y="856" on="0"/>
        <pt x="990" y="791" on="1"/>
        <pt x="1013" y="759" on="0"/>
        <pt x="1032" y="692" on="0"/>
        <pt x="1032" y="656" on="1"/>
        <pt x="1032" y="569" on="0"/>
        <pt x="977" y="496" on="1"/>
        <pt x="919" y="420" on="0"/>
        <pt x="807" y="354" on="1"/>
        <pt x="853" y="309" on="0"/>
        <pt x="874" y="260" on="1"/>
        <pt x="895" y="210" on="0"/>
        <pt x="895" y="149" on="1"/>
        <pt x="895" y="-7" on="0"/>
        <pt x="776" y="-101" on="1"/>
        <pt x="657" y="-195" on="0"/>
      </contour>
      <contour>
        <pt x="682" y="451" on="1"/>
        <pt x="736" y="487" on="0"/>
        <pt x="770" y="534" on="1"/>
        <pt x="801" y="577" on="0"/>
        <pt x="801" y="619" on="1"/>
        <pt x="801" y="654" on="0"/>
        <pt x="782" y="685" on="1"/>
        <pt x="762" y="718" on="0"/>
        <pt x="729" y="741" on="1"/>
        <pt x="649" y="795" on="1"/>
        <pt x="647" y="795" on="0"/>
        <pt x="627" y="810" on="0"/>
        <pt x="608" y="823" on="1"/>
        <pt x="530" y="877" on="1"/>
        <pt x="501" y="856" on="0"/>
        <pt x="456" y="810" on="0"/>
        <pt x="441" y="789" on="1"/>
        <pt x="410" y="746" on="0"/>
        <pt x="410" y="704" on="1"/>
        <pt x="410" y="633" on="0"/>
        <pt x="483" y="584" on="1"/>
        <pt x="561" y="530" on="1"/>
        <pt x="612" y="496" on="1"/>
        <pt x="641" y="476" on="0"/>
        <pt x="661" y="464" on="0"/>
      </contour>
    </TTGlyph>
    <TTGlyph name="uni00A8" xMin="415" yMin="1339" xMax="1090" yMax="1585">
      <contour>
        <pt x="449" y="1339" on="1"/>
        <pt x="415" y="1339" on="0"/>
        <pt x="422" y="1372" on="1"/>
        <pt x="458" y="1558" on="1"/>
        <pt x="462" y="1585" on="0"/>
        <pt x="490" y="1585" on="1"/>
        <pt x="667" y="1585" on="1"/>
        <pt x="694" y="1585" on="0"/>
        <pt x="694" y="1561" on="1"/>
        <pt x="694" y="1554" on="0"/>
        <pt x="693" y="1552" on="1"/>
        <pt x="656" y="1366" on="1"/>
        <pt x="652" y="1339" on="0"/>
        <pt x="624" y="1339" on="1"/>
      </contour>
      <contour>
        <pt x="844" y="1339" on="1"/>
        <pt x="810" y="1339" on="0"/>
        <pt x="817" y="1372" on="1"/>
        <pt x="853" y="1558" on="1"/>
        <pt x="858" y="1585" on="0"/>
        <pt x="885" y="1585" on="1"/>
        <pt x="1063" y="1585" on="1"/>
        <pt x="1090" y="1585" on="0"/>
        <pt x="1090" y="1561" on="1"/>
        <pt x="1090" y="1554" on="0"/>
        <pt x="1089" y="1552" on="1"/>
        <pt x="1052" y="1366" on="1"/>
        <pt x="1048" y="1339" on="0"/>
        <pt x="1020" y="1339" on="1"/>
      </contour>
    </TTGlyph>
    <TTGlyph name="uni00A9" xMin="0" yMin="125" xMax="1233" yMax="1358">
      <contour>
        <pt x="616" y="125" on="1"/>
        <pt x="489" y="125" on="0"/>
        <pt x="382" y="171" on="1"/>
        <pt x="269" y="219" on="0"/>
        <pt x="181" y="307" on="1"/>
        <pt x="139" y="349" on="0"/>
        <pt x="68" y="452" on="0"/>
        <pt x="45" y="508" on="1"/>
        <pt x="0" y="614" on="0"/>
        <pt x="0" y="741" on="1"/>
        <pt x="0" y="869" on="0"/>
        <pt x="46" y="977" on="1"/>
        <pt x="93" y="1086" on="0"/>
        <pt x="182" y="1178" on="1"/>
        <pt x="229" y="1226" on="0"/>
        <pt x="329" y="1292" on="0"/>
        <pt x="381" y="1313" on="1"/>
        <pt x="490" y="1358" on="0"/>
        <pt x="616" y="1358" on="1"/>
        <pt x="742" y="1358" on="0"/>
        <pt x="852" y="1313" on="1"/>
        <pt x="909" y="1290" on="0"/>
        <pt x="1009" y="1221" on="0"/>
        <pt x="1051" y="1178" on="1"/>
        <pt x="1100" y="1128" on="0"/>
        <pt x="1167" y="1025" on="0"/>
        <pt x="1187" y="977" on="1"/>
        <pt x="1233" y="870" on="0"/>
        <pt x="1233" y="742" on="1"/>
        <pt x="1233" y="614" on="0"/>
        <pt x="1188" y="508" on="1"/>
        <pt x="1166" y="456" on="0"/>
        <pt x="1097" y="352" on="0"/>
        <pt x="1052" y="307" on="1"/>
        <pt x="1010" y="265" on="0"/>
        <pt x="908" y="195" on="0"/>
        <pt x="851" y="171" on="1"/>
        <pt x="744" y="125" on="0"/>
      </contour>
      <contour>
        <pt x="616" y="256" on="1"/>
        <pt x="667" y="256" on="0"/>
        <pt x="756" y="273" on="0"/>
        <pt x="802" y="293" on="1"/>
        <pt x="840" y="310" on="0"/>
        <pt x="920" y="362" on="0"/>
        <pt x="958" y="400" on="1"/>
        <pt x="1030" y="472" on="0"/>
        <pt x="1066" y="558" on="1"/>
        <pt x="1102" y="644" on="0"/>
        <pt x="1102" y="743" on="1"/>
        <pt x="1102" y="797" on="0"/>
        <pt x="1083" y="885" on="0"/>
        <pt x="1066" y="927" on="1"/>
        <pt x="1028" y="1016" on="0"/>
        <pt x="889" y="1158" on="0"/>
        <pt x="802" y="1193" on="1"/>
        <pt x="754" y="1213" on="0"/>
        <pt x="665" y="1229" on="0"/>
        <pt x="619" y="1229" on="1"/>
        <pt x="563" y="1229" on="0"/>
        <pt x="472" y="1210" on="0"/>
        <pt x="431" y="1193" on="1"/>
        <pt x="346" y="1156" on="0"/>
        <pt x="203" y="1012" on="0"/>
        <pt x="167" y="927" on="1"/>
        <pt x="131" y="843" on="0"/>
        <pt x="131" y="742" on="1"/>
        <pt x="131" y="644" on="0"/>
        <pt x="167" y="558" on="1"/>
        <pt x="203" y="472" on="0"/>
        <pt x="274" y="401" on="1"/>
        <pt x="348" y="327" on="0"/>
        <pt x="431" y="293" on="1"/>
        <pt x="477" y="273" on="0"/>
        <pt x="566" y="256" on="0"/>
      </contour>
      <contour>
        <pt x="637" y="399" on="1"/>
        <pt x="470" y="399" on="0"/>
        <pt x="266" y="588" on="0"/>
        <pt x="266" y="741" on="1"/>
        <pt x="266" y="823" on="0"/>
        <pt x="321" y="949" on="0"/>
        <pt x="367" y="991" on="1"/>
        <pt x="414" y="1034" on="0"/>
        <pt x="550" y="1083" on="0"/>
        <pt x="636" y="1083" on="1"/>
        <pt x="694" y="1083" on="0"/>
        <pt x="745" y="1075" on="1"/>
        <pt x="768" y="1071" on="0"/>
        <pt x="825" y="1057" on="0"/>
        <pt x="848" y="1049" on="1"/>
        <pt x="848" y="881" on="1"/>
        <pt x="797" y="912" on="0"/>
        <pt x="751" y="926" on="1"/>
        <pt x="703" y="940" on="0"/>
        <pt x="655" y="940" on="1"/>
        <pt x="559" y="940" on="0"/>
        <pt x="507" y="888" on="1"/>
        <pt x="453" y="836" on="0"/>
        <pt x="453" y="741" on="1"/>
        <pt x="453" y="646" on="0"/>
        <pt x="506" y="595" on="1"/>
        <pt x="558" y="543" on="0"/>
        <pt x="658" y="543" on="1"/>
        <pt x="714" y="543" on="0"/>
        <pt x="802" y="570" on="0"/>
        <pt x="848" y="602" on="1"/>
        <pt x="848" y="434" on="1"/>
        <pt x="820" y="426" on="0"/>
        <pt x="766" y="413" on="0"/>
        <pt x="740" y="408" on="1"/>
        <pt x="688" y="399" on="0"/>
      </contour>
    </TTGlyph>
    <TTGlyph name="uni00AA" xMin="211" yMin="428" xMax="1051" yMax="1520">
      <contour>
        <pt x="511" y="698" on="1"/>
        <pt x="399" y="698" on="0"/>
        <pt x="338" y="759" on="1"/>
        <pt x="274" y="820" on="0"/>
        <pt x="274" y="926" on="1"/>
        <pt x="274" y="1072" on="0"/>
        <pt x="386" y="1153" on="1"/>
        <pt x="499" y="1233" on="0"/>
        <pt x="705" y="1233" on="1"/>
        <pt x="840" y="1233" on="1"/>
        <pt x="846" y="1268" on="1"/>
        <pt x="848" y="1274" on="0"/>
        <pt x="848" y="1275" on="1"/>
        <pt x="848" y="1286" on="1"/>
        <pt x="848" y="1326" on="0"/>
        <pt x="812" y="1347" on="1"/>
        <pt x="777" y="1368" on="0"/>
        <pt x="708" y="1368" on="1"/>
        <pt x="676" y="1368" on="0"/>
        <pt x="612" y="1358" on="0"/>
        <pt x="575" y="1348" on="1"/>
        <pt x="507" y="1330" on="0"/>
        <pt x="418" y="1290" on="1"/>
        <pt x="451" y="1464" on="1"/>
        <pt x="532" y="1493" on="0"/>
        <pt x="603" y="1506" on="1"/>
        <pt x="676" y="1520" on="0"/>
        <pt x="743" y="1520" on="1"/>
        <pt x="810" y="1520" on="0"/>
        <pt x="927" y="1495" on="0"/>
        <pt x="969" y="1469" on="1"/>
        <pt x="1013" y="1442" on="0"/>
        <pt x="1051" y="1365" on="0"/>
        <pt x="1051" y="1318" on="1"/>
        <pt x="1051" y="1308" on="0"/>
        <pt x="1049" y="1272" on="0"/>
        <pt x="1047" y="1255" on="1"/>
        <pt x="1045" y="1236" on="0"/>
        <pt x="1036" y="1185" on="0"/>
        <pt x="1032" y="1165" on="1"/>
        <pt x="944" y="717" on="1"/>
        <pt x="737" y="717" on="1"/>
        <pt x="756" y="805" on="1"/>
        <pt x="731" y="776" on="0"/>
        <pt x="681" y="739" on="0"/>
        <pt x="649" y="725" on="1"/>
        <pt x="586" y="698" on="0"/>
      </contour>
      <contour>
        <pt x="598" y="838" on="1"/>
        <pt x="679" y="838" on="0"/>
        <pt x="735" y="903" on="1"/>
        <pt x="761" y="932" on="0"/>
        <pt x="801" y="1024" on="0"/>
        <pt x="811" y="1087" on="1"/>
        <pt x="731" y="1087" on="1"/>
        <pt x="610" y="1087" on="0"/>
        <pt x="551" y="1051" on="1"/>
        <pt x="492" y="1015" on="0"/>
        <pt x="492" y="943" on="1"/>
        <pt x="492" y="896" on="0"/>
        <pt x="521" y="867" on="1"/>
        <pt x="550" y="838" on="0"/>
      </contour>
      <contour>
        <pt x="246" y="598" on="1"/>
        <pt x="934" y="598" on="1"/>
        <pt x="899" y="428" on="1"/>
        <pt x="211" y="428" on="1"/>
      </contour>
    </TTGlyph>
    <TTGlyph name="uni00AB" xMin="78" yMin="141" xMax="1102" yMax="1059">
      <contour>
        <pt x="78" y="535" on="1"/>
        <pt x="102" y="666" on="1"/>
        <pt x="649" y="1059" on="1"/>
        <pt x="602" y="821" on="1"/>
        <pt x="283" y="600" on="1"/>
        <pt x="516" y="379" on="1"/>
        <pt x="471" y="141" on="1"/>
      </contour>
      <contour>
        <pt x="532" y="535" on="1"/>
        <pt x="557" y="666" on="1"/>
        <pt x="1102" y="1059" on="1"/>
        <pt x="1057" y="821" on="1"/>
        <pt x="737" y="600" on="1"/>
        <pt x="971" y="379" on="1"/>
        <pt x="926" y="141" on="1"/>
      </contour>
    </TTGlyph>
    <TTGlyph name="uni00AC" xMin="88" yMin="362" xMax="1145" yMax="899">
      <contour>
        <pt x="907" y="662" on="1"/>
        <pt x="88" y="662" on="1"/>
        <pt x="88" y="899" on="1"/>
        <pt x="1145" y="899" on="1"/>
        <pt x="1145" y="362" on="1"/>
        <pt x="907" y="362" on="1"/>
      </contour>
    </TTGlyph>
    <TTGlyph name="uni00AD" xMin="244" yMin="444" xMax="928" yMax="735">
      <contour>
        <pt x="299" y="735" on="1"/>
        <pt x="928" y="735" on="1"/>
        <pt x="872" y="444" on="1"/>
        <pt x="244" y="444" on="1"/>
      </contour>
    </TTGlyph>
    <TTGlyph name="uni00AE" xMin="0" yMin="125" xMax="1233" yMax="1358">
      <contour>
        <pt x="616" y="125" on="1"/>
        <pt x="363" y="125" on="0"/>
        <pt x="181" y="307" on="1"/>
        <pt x="94" y="394" on="0"/>
        <pt x="46" y="507" on="1"/>
        <pt x="0" y="614" on="0"/>
        <pt x="0" y="741" on="1"/>
        <pt x="0" y="870" on="0"/>
        <pt x="46" y="977" on="1"/>
        <pt x="94" y="1089" on="0"/>
        <pt x="182" y="1178" on="1"/>
        <pt x="268" y="1267" on="0"/>
        <pt x="381" y="1313" on="1"/>
        <pt x="490" y="1358" on="0"/>
        <pt x="616" y="1358" on="1"/>
        <pt x="742" y="1358" on="0"/>
        <pt x="852" y="1313" on="1"/>
        <pt x="909" y="1290" on="0"/>
        <pt x="1009" y="1221" on="0"/>
        <pt x="1051" y="1178" on="1"/>
        <pt x="1100" y="1128" on="0"/>
        <pt x="1167" y="1025" on="0"/>
        <pt x="1187" y="977" on="1"/>
        <pt x="1233" y="870" on="0"/>
        <pt x="1233" y="742" on="1"/>
        <pt x="1233" y="614" on="0"/>
        <pt x="1188" y="508" on="1"/>
        <pt x="1166" y="456" on="0"/>
        <pt x="1097" y="352" on="0"/>
        <pt x="1052" y="307" on="1"/>
        <pt x="1010" y="265" on="0"/>
        <pt x="908" y="195" on="0"/>
        <pt x="851" y="171" on="1"/>
        <pt x="744" y="125" on="0"/>
      </contour>
      <contour>
        <pt x="616" y="256" on="1"/>
        <pt x="815" y="256" on="0"/>
        <pt x="958" y="399" on="1"/>
        <pt x="990" y="431" on="0"/>
        <pt x="1046" y="511" on="0"/>
        <pt x="1066" y="558" on="1"/>
        <pt x="1102" y="644" on="0"/>
        <pt x="1102" y="742" on="1"/>
        <pt x="1102" y="840" on="0"/>
        <pt x="1027" y="1016" on="0"/>
        <pt x="959" y="1086" on="1"/>
        <pt x="891" y="1155" on="0"/>
        <pt x="802" y="1193" on="1"/>
        <pt x="754" y="1213" on="0"/>
        <pt x="665" y="1229" on="0"/>
        <pt x="617" y="1229" on="1"/>
        <pt x="558" y="1229" on="0"/>
        <pt x="471" y="1210" on="0"/>
        <pt x="432" y="1193" on="1"/>
        <pt x="397" y="1178" on="0"/>
        <pt x="315" y="1127" on="0"/>
        <pt x="273" y="1085" on="1"/>
        <pt x="236" y="1047" on="0"/>
        <pt x="184" y="966" on="0"/>
        <pt x="167" y="927" on="1"/>
        <pt x="147" y="879" on="0"/>
        <pt x="131" y="787" on="0"/>
        <pt x="131" y="742" on="1"/>
        <pt x="131" y="644" on="0"/>
        <pt x="167" y="558" on="1"/>
        <pt x="183" y="520" on="0"/>
        <pt x="235" y="439" on="0"/>
        <pt x="274" y="400" on="1"/>
        <pt x="344" y="330" on="0"/>
        <pt x="432" y="292" on="1"/>
        <pt x="518" y="256" on="0"/>
      </contour>
      <contour>
        <pt x="360" y="1055" on="1"/>
        <pt x="606" y="1055" on="1"/>
        <pt x="739" y="1055" on="0"/>
        <pt x="804" y="1011" on="1"/>
        <pt x="868" y="968" on="0"/>
        <pt x="868" y="878" on="1"/>
        <pt x="868" y="812" on="0"/>
        <pt x="829" y="770" on="1"/>
        <pt x="811" y="750" on="0"/>
        <pt x="759" y="722" on="0"/>
        <pt x="719" y="715" on="1"/>
        <pt x="742" y="707" on="0"/>
        <pt x="775" y="683" on="0"/>
        <pt x="785" y="673" on="1"/>
        <pt x="796" y="662" on="0"/>
        <pt x="823" y="623" on="0"/>
        <pt x="836" y="596" on="1"/>
        <pt x="915" y="430" on="1"/>
        <pt x="743" y="430" on="1"/>
        <pt x="680" y="563" on="1"/>
        <pt x="667" y="590" on="0"/>
        <pt x="640" y="633" on="0"/>
        <pt x="625" y="645" on="1"/>
        <pt x="613" y="655" on="0"/>
        <pt x="577" y="669" on="0"/>
        <pt x="555" y="670" on="1"/>
        <pt x="524" y="670" on="1"/>
        <pt x="524" y="430" on="1"/>
        <pt x="360" y="430" on="1"/>
      </contour>
      <contour>
        <pt x="588" y="780" on="1"/>
        <pt x="645" y="780" on="0"/>
        <pt x="674" y="800" on="1"/>
        <pt x="702" y="819" on="0"/>
        <pt x="702" y="861" on="1"/>
        <pt x="702" y="903" on="0"/>
        <pt x="674" y="924" on="1"/>
        <pt x="645" y="944" on="0"/>
        <pt x="588" y="944" on="1"/>
        <pt x="524" y="944" on="1"/>
        <pt x="524" y="780" on="1"/>
      </contour>
    </TTGlyph>
    <TTGlyph name="uni00AF" xMin="422" yMin="1368" xMax="1090" yMax="1556">
      <contour>
        <pt x="459" y="1556" on="1"/>
        <pt x="1090" y="1556" on="1"/>
        <pt x="1053" y="1368" on="1"/>
        <pt x="422" y="1368" on="1"/>
      </contour>
    </TTGlyph>
    <TTGlyph name="uni00B0" xMin="283" yMin="854" xMax="948" yMax="1520">
      <contour>
        <pt x="613" y="854" on="1"/>
        <pt x="542" y="854" on="0"/>
        <pt x="422" y="904" on="0"/>
        <pt x="378" y="948" on="1"/>
        <pt x="283" y="1043" on="0"/>
        <pt x="283" y="1185" on="1"/>
        <pt x="283" y="1279" on="0"/>
        <pt x="371" y="1431" on="0"/>
        <pt x="522" y="1520" on="0"/>
        <pt x="616" y="1520" on="1"/>
        <pt x="685" y="1520" on="0"/>
        <pt x="744" y="1495" on="1"/>
        <pt x="803" y="1470" on="0"/>
        <pt x="901" y="1372" on="0"/>
        <pt x="924" y="1313" on="1"/>
        <pt x="948" y="1254" on="0"/>
        <pt x="948" y="1188" on="1"/>
        <pt x="948" y="1118" on="0"/>
        <pt x="923" y="1059" on="1"/>
        <pt x="898" y="998" on="0"/>
        <pt x="852" y="952" on="1"/>
        <pt x="806" y="906" on="0"/>
        <pt x="743" y="880" on="1"/>
        <pt x="680" y="854" on="0"/>
      </contour>
      <contour>
        <pt x="614" y="1016" on="1"/>
        <pt x="686" y="1016" on="0"/>
        <pt x="786" y="1116" on="0"/>
        <pt x="786" y="1187" on="1"/>
        <pt x="786" y="1259" on="0"/>
        <pt x="737" y="1308" on="1"/>
        <pt x="687" y="1358" on="0"/>
        <pt x="616" y="1358" on="1"/>
        <pt x="544" y="1358" on="0"/>
        <pt x="444" y="1258" on="0"/>
        <pt x="444" y="1185" on="1"/>
        <pt x="444" y="1114" on="0"/>
        <pt x="542" y="1016" on="0"/>
      </contour>
    </TTGlyph>
    <TTGlyph name="uni00B1" xMin="88" yMin="0" xMax="1145" yMax="1284">
      <contour>
        <pt x="498" y="694" on="1"/>
        <pt x="88" y="694" on="1"/>
        <pt x="88" y="930" on="1"/>
        <pt x="498" y="930" on="1"/>
        <pt x="498" y="1284" on="1"/>
        <pt x="735" y="1284" on="1"/>
        <pt x="735" y="930" on="1"/>
        <pt x="1145" y="930" on="1"/>
        <pt x="1145" y="694" on="1"/>
        <pt x="735" y="694" on="1"/>
        <pt x="735" y="340" on="1"/>
        <pt x="498" y="340" on="1"/>
      </contour>
      <contour>
        <pt x="88" y="238" on="1"/>
        <pt x="1145" y="238" on="1"/>
        <pt x="1145" y="0" on="1"/>
        <pt x="88" y="0" on="1"/>
      </contour>
    </TTGlyph>
    <TTGlyph name="uni00B2" xMin="260" yMin="1120" xMax="1028" yMax="1972">
      <contour>
        <pt x="289" y="1261" on="1"/>
        <pt x="334" y="1294" on="0"/>
        <pt x="371" y="1321" on="0"/>
        <pt x="399" y="1340" on="0"/>
        <pt x="431" y="1363" on="1"/>
        <pt x="649" y="1519" on="0"/>
        <pt x="831" y="1697" on="0"/>
        <pt x="831" y="1746" on="1"/>
        <pt x="831" y="1762" on="0"/>
        <pt x="813" y="1797" on="0"/>
        <pt x="795" y="1810" on="1"/>
        <pt x="760" y="1834" on="0"/>
        <pt x="691" y="1834" on="1"/>
        <pt x="628" y="1834" on="0"/>
        <pt x="555" y="1816" on="1"/>
        <pt x="474" y="1797" on="0"/>
        <pt x="403" y="1763" on="1"/>
        <pt x="434" y="1925" on="1"/>
        <pt x="472" y="1936" on="0"/>
        <pt x="546" y="1954" on="0"/>
        <pt x="583" y="1960" on="1"/>
        <pt x="656" y="1972" on="0"/>
        <pt x="728" y="1972" on="1"/>
        <pt x="797" y="1972" on="0"/>
        <pt x="908" y="1947" on="0"/>
        <pt x="950" y="1918" on="1"/>
        <pt x="991" y="1889" on="0"/>
        <pt x="1028" y="1813" on="0"/>
        <pt x="1028" y="1777" on="1"/>
        <pt x="1028" y="1695" on="0"/>
        <pt x="834" y="1490" on="0"/>
        <pt x="618" y="1338" on="1"/>
        <pt x="600" y="1326" on="0"/>
        <pt x="590" y="1319" on="0"/>
        <pt x="560" y="1298" on="0"/>
        <pt x="514" y="1265" on="1"/>
        <pt x="952" y="1265" on="1"/>
        <pt x="924" y="1120" on="1"/>
        <pt x="260" y="1120" on="1"/>
      </contour>
    </TTGlyph>
    <TTGlyph name="uni00B3" xMin="276" yMin="1103" xMax="1040" yMax="1970">
      <contour>
        <pt x="569" y="1103" on="1"/>
        <pt x="529" y="1103" on="0"/>
        <pt x="456" y="1109" on="0"/>
        <pt x="419" y="1114" on="1"/>
        <pt x="383" y="1119" on="0"/>
        <pt x="314" y="1133" on="0"/>
        <pt x="276" y="1144" on="1"/>
        <pt x="307" y="1298" on="1"/>
        <pt x="373" y="1270" on="0"/>
        <pt x="442" y="1257" on="1"/>
        <pt x="518" y="1243" on="0"/>
        <pt x="588" y="1243" on="1"/>
        <pt x="643" y="1243" on="0"/>
        <pt x="718" y="1264" on="0"/>
        <pt x="746" y="1284" on="1"/>
        <pt x="775" y="1306" on="0"/>
        <pt x="801" y="1360" on="0"/>
        <pt x="801" y="1389" on="1"/>
        <pt x="801" y="1441" on="0"/>
        <pt x="758" y="1466" on="1"/>
        <pt x="714" y="1492" on="0"/>
        <pt x="639" y="1492" on="1"/>
        <pt x="528" y="1492" on="1"/>
        <pt x="557" y="1638" on="1"/>
        <pt x="666" y="1638" on="1"/>
        <pt x="755" y="1638" on="0"/>
        <pt x="801" y="1666" on="1"/>
        <pt x="848" y="1695" on="0"/>
        <pt x="848" y="1743" on="1"/>
        <pt x="848" y="1785" on="0"/>
        <pt x="808" y="1807" on="1"/>
        <pt x="767" y="1830" on="0"/>
        <pt x="699" y="1830" on="1"/>
        <pt x="650" y="1830" on="0"/>
        <pt x="581" y="1818" on="1"/>
        <pt x="549" y="1812" on="0"/>
        <pt x="474" y="1795" on="0"/>
        <pt x="432" y="1783" on="1"/>
        <pt x="461" y="1935" on="1"/>
        <pt x="498" y="1943" on="0"/>
        <pt x="570" y="1956" on="0"/>
        <pt x="605" y="1961" on="1"/>
        <pt x="676" y="1970" on="0"/>
        <pt x="739" y="1970" on="1"/>
        <pt x="884" y="1970" on="0"/>
        <pt x="961" y="1919" on="1"/>
        <pt x="1040" y="1868" on="0"/>
        <pt x="1040" y="1776" on="1"/>
        <pt x="1040" y="1690" on="0"/>
        <pt x="980" y="1634" on="1"/>
        <pt x="919" y="1578" on="0"/>
        <pt x="807" y="1566" on="1"/>
        <pt x="891" y="1557" on="0"/>
        <pt x="940" y="1508" on="1"/>
        <pt x="989" y="1459" on="0"/>
        <pt x="989" y="1380" on="1"/>
        <pt x="989" y="1252" on="0"/>
        <pt x="770" y="1103" on="0"/>
      </contour>
    </TTGlyph>
    <TTGlyph name="uni00B4" xMin="569" yMin="1262" xMax="1208" yMax="1638">
      <contour>
        <pt x="887" y="1638" on="1"/>
        <pt x="1208" y="1638" on="1"/>
        <pt x="766" y="1262" on="1"/>
        <pt x="569" y="1262" on="1"/>
      </contour>
    </TTGlyph>
    <TTGlyph name="uni00B5" xMin="-55" yMin="-428" xMax="1147" yMax="1120">
      <contour>
        <pt x="246" y="1120" on="1"/>
        <pt x="535" y="1120" on="1"/>
        <pt x="403" y="440" on="1"/>
        <pt x="398" y="422" on="0"/>
        <pt x="394" y="388" on="1"/>
        <pt x="391" y="364" on="0"/>
        <pt x="391" y="346" on="1"/>
        <pt x="391" y="282" on="0"/>
        <pt x="425" y="248" on="1"/>
        <pt x="460" y="213" on="0"/>
        <pt x="521" y="213" on="1"/>
        <pt x="602" y="213" on="0"/>
        <pt x="653" y="269" on="1"/>
        <pt x="704" y="323" on="0"/>
        <pt x="727" y="440" on="1"/>
        <pt x="858" y="1120" on="1"/>
        <pt x="1147" y="1120" on="1"/>
        <pt x="997" y="344" on="1"/>
        <pt x="993" y="310" on="0"/>
        <pt x="990" y="294" on="0"/>
        <pt x="990" y="293" on="1"/>
        <pt x="988" y="283" on="0"/>
        <pt x="987" y="271" on="0"/>
        <pt x="987" y="264" on="1"/>
        <pt x="987" y="213" on="0"/>
        <pt x="1028" y="213" on="1"/>
        <pt x="1040" y="213" on="0"/>
        <pt x="1055" y="219" on="1"/>
        <pt x="1067" y="224" on="0"/>
        <pt x="1090" y="238" on="1"/>
        <pt x="1047" y="16" on="1"/>
        <pt x="997" y="-9" on="0"/>
        <pt x="924" y="-29" on="0"/>
        <pt x="883" y="-29" on="1"/>
        <pt x="845" y="-29" on="0"/>
        <pt x="793" y="-9" on="0"/>
        <pt x="775" y="9" on="1"/>
        <pt x="737" y="47" on="0"/>
        <pt x="725" y="129" on="1"/>
        <pt x="673" y="50" on="0"/>
        <pt x="611" y="11" on="1"/>
        <pt x="582" y="-8" on="0"/>
        <pt x="518" y="-29" on="0"/>
        <pt x="479" y="-29" on="1"/>
        <pt x="420" y="-29" on="0"/>
        <pt x="383" y="-5" on="1"/>
        <pt x="345" y="19" on="0"/>
        <pt x="330" y="66" on="1"/>
        <pt x="233" y="-428" on="1"/>
        <pt x="-55" y="-428" on="1"/>
      </contour>
    </TTGlyph>
    <TTGlyph name="uni00B6" xMin="102" yMin="-197" xMax="1190" yMax="1493">
      <contour>
        <pt x="457" y="649" on="1"/>
        <pt x="286" y="667" on="0"/>
        <pt x="194" y="753" on="1"/>
        <pt x="148" y="796" on="0"/>
        <pt x="102" y="908" on="0"/>
        <pt x="102" y="986" on="1"/>
        <pt x="102" y="1196" on="0"/>
        <pt x="265" y="1346" on="1"/>
        <pt x="427" y="1493" on="0"/>
        <pt x="672" y="1493" on="1"/>
        <pt x="1190" y="1493" on="1"/>
        <pt x="862" y="-197" on="1"/>
        <pt x="672" y="-197" on="1"/>
        <pt x="973" y="1346" on="1"/>
        <pt x="782" y="1346" on="1"/>
        <pt x="483" y="-197" on="1"/>
        <pt x="293" y="-197" on="1"/>
      </contour>
    </TTGlyph>
    <TTGlyph name="uni00B7" xMin="454" yMin="576" xMax="778" yMax="914">
      <contour>
        <pt x="616" y="576" on="1"/>
        <pt x="548" y="576" on="0"/>
        <pt x="454" y="670" on="0"/>
        <pt x="454" y="745" on="1"/>
        <pt x="454" y="820" on="0"/>
        <pt x="548" y="914" on="0"/>
        <pt x="616" y="914" on="1"/>
        <pt x="684" y="914" on="0"/>
        <pt x="778" y="820" on="0"/>
        <pt x="778" y="745" on="1"/>
        <pt x="778" y="670" on="0"/>
        <pt x="684" y="576" on="0"/>
      </contour>
    </TTGlyph>
    <TTGlyph name="uni00B8" xMin="150" yMin="-401" xMax="635" yMax="0">
      <contour>
        <pt x="349" y="-401" on="1"/>
        <pt x="323" y="-401" on="0"/>
        <pt x="266" y="-397" on="0"/>
        <pt x="249" y="-395" on="1"/>
        <pt x="237" y="-393" on="0"/>
        <pt x="164" y="-381" on="0"/>
        <pt x="150" y="-375" on="1"/>
        <pt x="178" y="-219" on="1"/>
        <pt x="200" y="-227" on="0"/>
        <pt x="242" y="-240" on="0"/>
        <pt x="262" y="-245" on="1"/>
        <pt x="302" y="-254" on="0"/>
        <pt x="339" y="-254" on="1"/>
        <pt x="406" y="-254" on="0"/>
        <pt x="443" y="-227" on="1"/>
        <pt x="479" y="-200" on="0"/>
        <pt x="479" y="-151" on="1"/>
        <pt x="479" y="-122" on="0"/>
        <pt x="466" y="-90" on="1"/>
        <pt x="460" y="-74" on="0"/>
        <pt x="438" y="-28" on="0"/>
        <pt x="422" y="0" on="1"/>
        <pt x="563" y="0" on="1"/>
        <pt x="599" y="-50" on="0"/>
        <pt x="617" y="-94" on="1"/>
        <pt x="635" y="-140" on="0"/>
        <pt x="635" y="-185" on="1"/>
        <pt x="635" y="-285" on="0"/>
        <pt x="560" y="-342" on="1"/>
        <pt x="486" y="-401" on="0"/>
      </contour>
    </TTGlyph>
    <TTGlyph name="uni00B9" xMin="289" yMin="1120" xMax="975" yMax="1955">
      <contour>
        <pt x="315" y="1265" on="1"/>
        <pt x="551" y="1265" on="1"/>
        <pt x="657" y="1808" on="1"/>
        <pt x="428" y="1765" on="1"/>
        <pt x="457" y="1914" on="1"/>
        <pt x="686" y="1955" on="1"/>
        <pt x="883" y="1955" on="1"/>
        <pt x="748" y="1265" on="1"/>
        <pt x="975" y="1265" on="1"/>
        <pt x="946" y="1120" on="1"/>
        <pt x="289" y="1120" on="1"/>
      </contour>
    </TTGlyph>
    <TTGlyph name="uni00BA" xMin="221" yMin="428" xMax="1067" yMax="1520">
      <contour>
        <pt x="634" y="698" on="1"/>
        <pt x="482" y="698" on="0"/>
        <pt x="394" y="782" on="1"/>
        <pt x="307" y="863" on="0"/>
        <pt x="307" y="1027" on="1"/>
        <pt x="307" y="1130" on="0"/>
        <pt x="367" y="1310" on="0"/>
        <pt x="427" y="1380" on="1"/>
        <pt x="546" y="1520" on="0"/>
        <pt x="740" y="1520" on="1"/>
        <pt x="894" y="1520" on="0"/>
        <pt x="981" y="1436" on="1"/>
        <pt x="1024" y="1394" on="0"/>
        <pt x="1067" y="1278" on="0"/>
        <pt x="1067" y="1191" on="1"/>
        <pt x="1067" y="1091" on="0"/>
        <pt x="1008" y="910" on="0"/>
        <pt x="948" y="838" on="1"/>
        <pt x="886" y="765" on="0"/>
        <pt x="729" y="698" on="0"/>
      </contour>
      <contour>
        <pt x="649" y="862" on="1"/>
        <pt x="694" y="862" on="0"/>
        <pt x="769" y="913" on="0"/>
        <pt x="796" y="957" on="1"/>
        <pt x="826" y="1006" on="0"/>
        <pt x="856" y="1128" on="0"/>
        <pt x="856" y="1188" on="1"/>
        <pt x="856" y="1226" on="0"/>
        <pt x="842" y="1292" on="0"/>
        <pt x="822" y="1315" on="1"/>
        <pt x="787" y="1356" on="0"/>
        <pt x="728" y="1356" on="1"/>
        <pt x="682" y="1356" on="0"/>
        <pt x="607" y="1305" on="0"/>
        <pt x="580" y="1261" on="1"/>
        <pt x="548" y="1210" on="0"/>
        <pt x="520" y="1087" on="0"/>
        <pt x="520" y="1032" on="1"/>
        <pt x="520" y="985" on="0"/>
        <pt x="538" y="925" on="0"/>
        <pt x="554" y="905" on="1"/>
        <pt x="591" y="862" on="0"/>
      </contour>
      <contour>
        <pt x="254" y="598" on="1"/>
        <pt x="942" y="598" on="1"/>
        <pt x="909" y="428" on="1"/>
        <pt x="221" y="428" on="1"/>
      </contour>
    </TTGlyph>
    <TTGlyph name="uni00BB" xMin="82" yMin="141" xMax="1108" yMax="1059">
      <contour>
        <pt x="127" y="379" on="1"/>
        <pt x="449" y="600" on="1"/>
        <pt x="215" y="821" on="1"/>
        <pt x="260" y="1059" on="1"/>
        <pt x="653" y="666" on="1"/>
        <pt x="627" y="535" on="1"/>
        <pt x="82" y="141" on="1"/>
      </contour>
      <contour>
        <pt x="582" y="379" on="1"/>
        <pt x="903" y="600" on="1"/>
        <pt x="670" y="821" on="1"/>
        <pt x="715" y="1059" on="1"/>
        <pt x="1108" y="666" on="1"/>
        <pt x="1081" y="535" on="1"/>
        <pt x="537" y="141" on="1"/>
      </contour>
    </TTGlyph>
    <TTGlyph name="uni00BC" xMin="31" yMin="-270" xMax="1143" yMax="1659">
      <contour>
        <pt x="57" y="969" on="1"/>
        <pt x="293" y="969" on="1"/>
        <pt x="399" y="1512" on="1"/>
        <pt x="170" y="1469" on="1"/>
        <pt x="199" y="1618" on="1"/>
        <pt x="428" y="1659" on="1"/>
        <pt x="625" y="1659" on="1"/>
        <pt x="490" y="969" on="1"/>
        <pt x="717" y="969" on="1"/>
        <pt x="688" y="824" on="1"/>
        <pt x="31" y="824" on="1"/>
      </contour>
      <contour>
        <pt x="47" y="618" on="1"/>
        <pt x="1106" y="879" on="1"/>
        <pt x="1143" y="762" on="1"/>
        <pt x="84" y="500" on="1"/>
      </contour>
      <contour>
        <pt x="796" y="-90" on="1"/>
        <pt x="407" y="-90" on="1"/>
        <pt x="438" y="72" on="1"/>
        <pt x="905" y="565" on="1"/>
        <pt x="1110" y="565" on="1"/>
        <pt x="1009" y="53" on="1"/>
        <pt x="1118" y="53" on="1"/>
        <pt x="1091" y="-90" on="1"/>
        <pt x="983" y="-90" on="1"/>
        <pt x="948" y="-270" on="1"/>
        <pt x="760" y="-270" on="1"/>
      </contour>
      <contour>
        <pt x="823" y="53" on="1"/>
        <pt x="887" y="383" on="1"/>
        <pt x="573" y="53" on="1"/>
      </contour>
    </TTGlyph>
    <TTGlyph name="uni00BD" xMin="31" yMin="-270" xMax="1182" yMax="1659">
      <contour>
        <pt x="57" y="969" on="1"/>
        <pt x="293" y="969" on="1"/>
        <pt x="399" y="1512" on="1"/>
        <pt x="170" y="1469" on="1"/>
        <pt x="199" y="1618" on="1"/>
        <pt x="428" y="1659" on="1"/>
        <pt x="625" y="1659" on="1"/>
        <pt x="490" y="969" on="1"/>
        <pt x="717" y="969" on="1"/>
        <pt x="688" y="824" on="1"/>
        <pt x="31" y="824" on="1"/>
      </contour>
      <contour>
        <pt x="47" y="618" on="1"/>
        <pt x="1106" y="879" on="1"/>
        <pt x="1143" y="762" on="1"/>
        <pt x="84" y="500" on="1"/>
      </contour>
      <contour>
        <pt x="443" y="-129" on="1"/>
        <pt x="488" y="-96" on="0"/>
        <pt x="525" y="-69" on="0"/>
        <pt x="553" y="-50" on="0"/>
        <pt x="585" y="-27" on="1"/>
        <pt x="799" y="127" on="0"/>
        <pt x="985" y="306" on="0"/>
        <pt x="985" y="356" on="1"/>
        <pt x="985" y="372" on="0"/>
        <pt x="967" y="407" on="0"/>
        <pt x="949" y="420" on="1"/>
        <pt x="914" y="444" on="0"/>
        <pt x="845" y="444" on="1"/>
        <pt x="782" y="444" on="0"/>
        <pt x="709" y="426" on="1"/>
        <pt x="630" y="407" on="0"/>
        <pt x="557" y="373" on="1"/>
        <pt x="588" y="535" on="1"/>
        <pt x="626" y="546" on="0"/>
        <pt x="700" y="564" on="0"/>
        <pt x="737" y="570" on="1"/>
        <pt x="810" y="582" on="0"/>
        <pt x="881" y="582" on="1"/>
        <pt x="1029" y="582" on="0"/>
        <pt x="1105" y="528" on="1"/>
        <pt x="1145" y="499" on="0"/>
        <pt x="1182" y="422" on="0"/>
        <pt x="1182" y="387" on="1"/>
        <pt x="1182" y="307" on="0"/>
        <pt x="983" y="94" on="0"/>
        <pt x="772" y="-52" on="1"/>
        <pt x="748" y="-68" on="0"/>
        <pt x="712" y="-94" on="0"/>
        <pt x="668" y="-125" on="1"/>
        <pt x="1106" y="-125" on="1"/>
        <pt x="1078" y="-270" on="1"/>
        <pt x="414" y="-270" on="1"/>
      </contour>
    </TTGlyph>
</ttFont>
